<svg width="32" height="32" viewBox="0 0 32 32" fill="none" xmlns="http://www.w3.org/2000/svg">
<path d="M16 32C24.8366 32 32 24.8366 32 16C32 7.16344 24.8366 0 16 0C7.16344 0 0 7.16344 0 16C0 24.8366 7.16344 32 16 32Z" fill="#2667BF"/>
<path d="M22.6548 11.9638H19.9695V9.28925C19.9695 8.60029 19.4109 8.04164 18.7215 8.04164H13.2507C13.2098 8.03971 13.169 8.03971 13.1281 8.04164C12.4873 8.10487 11.9996 8.6454 12.0027 9.28925V11.9638H9.32857C8.63922 11.9638 8.08095 12.5224 8.08057 13.2118V18.6822C8.08057 19.3712 8.63922 19.9298 9.32857 19.9298H12.0027V22.6159C12.0027 23.3049 12.5613 23.8635 13.2507 23.8635H18.7215C19.4109 23.8635 19.9695 23.3049 19.9695 22.6159V19.9298H22.6548C23.3438 19.9298 23.9024 19.3712 23.9024 18.6822V13.2118C23.9024 12.5224 23.3438 11.9638 22.6548 11.9638ZM21.4068 17.4346H18.7211C18.0322 17.4346 17.4735 17.9933 17.4731 18.6822V21.3675H14.4983V18.6822C14.4983 17.9933 13.9397 17.4346 13.2503 17.4346H10.5762V14.4598H13.2503C13.9397 14.4598 14.4983 13.9011 14.4983 13.2118V10.5376H17.4731V13.2118C17.4735 13.9011 18.0322 14.4598 18.7211 14.4598H21.4068V17.4346Z" fill="white"/>
</svg>
