<svg width="32" height="32" viewBox="0 0 32 32" fill="none" xmlns="http://www.w3.org/2000/svg">
<path d="M16 32C24.8366 32 32 24.8366 32 16C32 7.16344 24.8366 0 16 0C7.16344 0 0 7.16344 0 16C0 24.8366 7.16344 32 16 32Z" fill="#2667BF"/>
<path d="M25.0931 12.7765C24.5441 12.7765 24.0949 13.1828 24.0182 13.7106L18.7987 12.9523L16.4785 8.25098C16.856 8.07942 17.1205 7.70082 17.1205 7.25937C17.1205 6.65677 16.632 6.16867 16.0298 6.16867C15.4272 6.16867 14.9387 6.65715 14.9387 7.25937C14.9387 7.6719 15.1704 8.0266 15.5081 8.21166L13.1686 12.9523L7.94879 13.7106C7.87246 13.1828 7.42291 12.7765 6.87352 12.7765C6.2713 12.7765 5.7832 13.2646 5.7832 13.8668C5.7832 14.4694 6.2713 14.9575 6.87352 14.9575C7.17964 14.9575 7.45568 14.8306 7.65347 14.6275L11.4283 18.3067L10.5335 23.5242C10.4594 23.508 10.3827 23.4992 10.3037 23.4992C9.70108 23.4992 9.21337 23.9877 9.21337 24.5899C9.21337 25.1921 9.70147 25.6802 10.3037 25.6802C10.9059 25.6802 11.394 25.1917 11.394 24.5899C11.394 24.4098 11.3466 24.2433 11.2695 24.0941L15.9835 21.6158L20.6524 24.0702C20.5726 24.2221 20.5229 24.3921 20.5229 24.5756C20.5229 25.1782 21.011 25.6659 21.6136 25.6659C22.2162 25.6659 22.7039 25.1778 22.7039 24.5756C22.7039 23.9734 22.2158 23.4853 21.6136 23.4853C21.5503 23.4853 21.4894 23.4934 21.4293 23.5038L20.5379 18.3071L24.312 14.6279C24.5101 14.831 24.7858 14.9579 25.0919 14.9579C25.6945 14.9579 26.1826 14.4694 26.1826 13.8672C26.1842 13.2646 25.6957 12.7765 25.0931 12.7765Z" fill="white"/>
</svg>
