<svg width="32" height="32" viewBox="0 0 32 32" fill="none" xmlns="http://www.w3.org/2000/svg">
<path d="M16 32C24.8366 32 32 24.8366 32 16C32 7.16344 24.8366 0 16 0C7.16344 0 0 7.16344 0 16C0 24.8366 7.16344 32 16 32Z" fill="#2667BF"/>
<path d="M25.5101 12.8309V10.9448C25.5101 10.7115 25.3193 10.5219 25.086 10.5219H9.07293C8.83967 10.5219 8.64922 10.7115 8.64922 10.9448V12.8309C8.64922 13.0186 8.77259 13.1794 8.94261 13.2338H8.9029C8.67003 13.2338 8.47996 13.4238 8.47996 13.6579V14.2084C8.47996 14.4413 8.67042 14.631 8.9029 14.631H8.93529C9.07216 14.7254 10.4339 15.7043 10.1316 17.3008C9.81355 18.9795 6.319 23.0204 8.73403 23.0204H12.6099C12.6099 23.0204 13.5444 19.9237 14.4455 17.4952V17.5094H18.671C18.6968 17.5117 18.7535 17.514 18.8295 17.514C18.9806 17.514 19.2065 17.504 19.4359 17.4292C19.55 17.393 19.6676 17.3386 19.7736 17.2503C19.8793 17.162 19.9703 17.0333 20.0081 16.8767C20.0335 16.773 20.1068 16.5564 20.1985 16.3069C20.3365 15.9302 20.5189 15.4668 20.6673 15.0998C20.7429 14.9101 20.81 14.7466 20.8566 14.6306H25.0856C25.3185 14.6306 25.509 14.4409 25.509 14.208V13.6575C25.509 13.4554 25.3667 13.2858 25.1778 13.2445C25.3667 13.2018 25.5101 13.0321 25.5101 12.8309ZM19.9984 15.2899C19.8901 15.5674 19.7767 15.8605 19.6823 16.1172C19.5874 16.3752 19.5123 16.5926 19.4749 16.7433C19.4648 16.7792 19.4517 16.7996 19.419 16.827C19.3711 16.8686 19.2709 16.9118 19.1556 16.9346C19.0415 16.9569 14.6486 16.9581 14.6486 16.9581C15.1468 15.6681 15.6109 14.6757 15.872 14.6391C15.8912 14.6367 15.9051 14.6329 15.9136 14.6306H16.379C16.3246 14.8904 16.1854 15.8485 16.9873 16.3235C17.92 16.8744 17.221 16.005 17.0506 15.751C16.8867 15.5034 16.7414 14.9344 17.0082 14.6306H20.2625C20.1881 14.8137 20.0952 15.0454 19.9984 15.2899Z" fill="white"/>
</svg>
