<svg width="32" height="32" viewBox="0 0 32 32" fill="none" xmlns="http://www.w3.org/2000/svg">
<path d="M16 32C24.8366 32 32 24.8366 32 16C32 7.16344 24.8366 0 16 0C7.16344 0 0 7.16344 0 16C0 24.8366 7.16344 32 16 32Z" fill="#2667BF"/>
<path d="M20.2726 14.9124H8.9558C7.13527 14.9124 5.65479 16.3933 5.65479 18.2138C5.65479 20.0332 7.13527 21.5141 8.9558 21.5141H20.273C22.0939 21.5141 23.5744 20.0332 23.5744 18.2138C23.574 16.3933 22.0935 14.9124 20.2726 14.9124ZM8.9558 19.6276C8.17392 19.6276 7.54124 18.9945 7.54124 18.2138C7.54124 17.4319 8.17392 16.7985 8.9558 16.7985C9.73768 16.7985 10.3704 17.4319 10.3704 18.2138C10.37 18.9949 9.73768 19.6276 8.9558 19.6276ZM12.7279 19.6276C11.9461 19.6276 11.3134 18.9945 11.3134 18.2138C11.3134 17.4319 11.9461 16.7985 12.7279 16.7985C13.5098 16.7985 14.1425 17.4319 14.1425 18.2138C14.1429 18.9949 13.5102 19.6276 12.7279 19.6276ZM16.5005 19.6276C15.7186 19.6276 15.0859 18.9945 15.0859 18.2138C15.0859 17.4319 15.7186 16.7985 16.5005 16.7985C17.2824 16.7985 17.9158 17.4319 17.9158 18.2138C17.9158 18.9949 17.2824 19.6276 16.5005 19.6276ZM20.2726 19.6276C19.4907 19.6276 18.8588 18.9945 18.8588 18.2138C18.8588 17.4319 19.4907 16.7985 20.2726 16.7985C21.0545 16.7985 21.6879 17.4319 21.6879 18.2138C21.6879 18.9949 21.0545 19.6276 20.2726 19.6276Z" fill="white"/>
<path d="M26.4032 11.1395H19.8015V13.026H26.4032V11.1395Z" fill="white"/>
<path d="M17.9159 13.969L18.859 13.026V11.1395L17.9159 10.1965H11.3135L10.3701 11.1395V13.026L11.3135 13.969H17.9159Z" fill="white"/>
</svg>
