<svg width="32" height="32" viewBox="0 0 32 32" fill="none" xmlns="http://www.w3.org/2000/svg">
<path d="M16 32C24.8366 32 32 24.8366 32 16C32 7.16344 24.8366 0 16 0C7.16344 0 0 7.16344 0 16C0 24.8366 7.16344 32 16 32Z" fill="#2667BF"/>
<path d="M22.0774 16.8933C21.8252 16.6778 21.5056 16.6049 21.2006 16.6469C21.2006 16.6469 21.2103 11.281 21.2103 11.2451C21.2103 8.24597 18.7763 5.81512 15.7811 5.81512C12.7854 5.81512 10.3592 8.24635 10.3592 11.2451C10.3592 11.3018 10.3415 16.6346 10.3415 16.6346C10.0511 16.608 9.78473 16.6901 9.54493 16.8933C9.0815 17.2873 9.02483 17.9755 9.40343 18.4451L15.8343 26.1849L22.264 18.3618C22.579 17.8969 22.5161 17.2669 22.0774 16.8933ZM12.0147 12.276C12.0147 11.8546 12.3544 11.515 12.7758 11.515H14.4876C14.9086 11.515 15.2486 11.8546 15.2486 12.276C15.2486 12.6967 14.9086 13.0367 14.4876 13.0367H12.7758C12.3544 13.0367 12.0147 12.6967 12.0147 12.276ZM15.7876 17.6308C15.0362 17.6308 14.427 17.0213 14.427 16.271C14.427 15.5204 15.0366 14.9112 15.7876 14.9112C16.5387 14.9112 17.149 15.5208 17.149 16.271C17.1486 17.0213 16.5383 17.6308 15.7876 17.6308ZM18.7363 13.0367H17.0241C16.603 13.0367 16.2638 12.6967 16.2638 12.276C16.2638 11.8546 16.603 11.515 17.0241 11.515H18.7363C19.1576 11.515 19.4977 11.8546 19.4977 12.276C19.4973 12.6967 19.1573 13.0367 18.7363 13.0367Z" fill="white"/>
</svg>
