<svg width="32" height="32" viewBox="0 0 32 32" fill="none" xmlns="http://www.w3.org/2000/svg">
<path d="M16 32C24.8366 32 32 24.8366 32 16C32 7.16344 24.8366 0 16 0C7.16344 0 0 7.16344 0 16C0 24.8366 7.16344 32 16 32Z" fill="#2667BF"/>
<path d="M25.8896 22.2686H21.9995C22.0053 21.3286 21.5608 19.4973 21.7878 18.1382C21.9 17.4666 22.3395 16.6955 22.6175 16.0633C22.9325 15.3454 23.4414 14.5369 23.4476 13.9879C23.4495 13.7057 22.8265 13.287 21.9436 12.839V9.84716C21.9436 9.14509 21.373 8.57487 20.6709 8.57487H20.2356V7.49227C20.2356 6.79058 19.665 6.21998 18.963 6.21998H17.6826V4.5448H14.2717V6.21998H12.9913C12.2896 6.21998 11.719 6.7902 11.719 7.49227V8.57526H11.2841C10.5821 8.57526 10.0111 9.14547 10.0111 9.84755V12.8386C9.12895 13.287 8.50514 13.7057 8.50784 13.9875C8.51362 14.5365 9.02215 15.345 9.33753 16.0629C9.6155 16.6952 10.055 17.4662 10.1672 18.1379C10.3943 19.4965 9.95015 21.3282 9.95555 22.2682H6.11015C5.8503 22.2682 5.6394 22.4787 5.6394 22.7393C5.6394 23.0003 5.8503 23.2108 6.11015 23.2108H10.7752C12.236 23.8655 15.4114 24.8949 15.9773 24.9859C16.5433 24.8953 19.719 23.8659 21.1798 23.2108H25.8892C26.1499 23.2108 26.3604 23.0003 26.3604 22.7393C26.3604 22.4791 26.1502 22.2686 25.8896 22.2686ZM12.6609 7.49188C12.6609 7.30991 12.8089 7.16186 12.9909 7.16186H18.963C19.1453 7.16186 19.293 7.30991 19.293 7.49188V8.57487H12.6609V7.49188ZM10.9529 9.84678C10.9529 9.66441 11.101 9.51675 11.2837 9.51675H20.6705C20.8533 9.51675 21.0013 9.66441 21.0013 9.84678V12.3902C18.9371 11.4649 16.2723 10.5596 15.9769 10.5635C15.6816 10.5596 13.0168 11.4653 10.9526 12.3906V9.84678H10.9529Z" fill="white"/>
<path d="M21.1424 27.3593H10.8577C10.5975 27.3593 10.387 27.1484 10.387 26.8882C10.387 26.6275 10.5975 26.4163 10.8577 26.4163H21.1424C21.4027 26.4163 21.6136 26.6275 21.6136 26.8882C21.6136 27.1484 21.4027 27.3593 21.1424 27.3593Z" fill="white"/>
</svg>
