<svg width="32" height="32" viewBox="0 0 32 32" fill="none" xmlns="http://www.w3.org/2000/svg">
<path d="M16 32C24.8366 32 32 24.8366 32 16C32 7.16344 24.8366 0 16 0C7.16344 0 0 7.16344 0 16C0 24.8366 7.16344 32 16 32Z" fill="#2667BF"/>
<path d="M7.21021 23.7027L10.2471 22.1919L7.29605 16.2601L4.2592 17.7709L7.21021 23.7027Z" fill="white"/>
<path d="M19.6741 7.07781C19.6664 7.07781 18.9107 7.07241 18.4674 7.07781C16.0088 7.39511 13.5825 8.7499 12.6033 11.0404C12.441 11.4194 11.1964 14.5862 10.6894 15.8767L8.34033 17.0649L10.4007 21.1385L12.5489 20.4368C13.3393 21.1405 14.6574 21.6143 15.5345 21.6143H15.9062V24.0575H23.3229V18.9583C24.6785 17.8421 25.421 16.022 25.421 13.7959C25.4214 10.471 22.9983 7.07781 19.6741 7.07781ZM15.1644 15.8011C13.8663 15.8011 12.8145 14.7489 12.8145 13.4504C12.8145 12.1523 13.8667 11.1002 15.1644 11.1002C16.4622 11.1002 17.5147 12.1523 17.5147 13.4504C17.5147 14.7489 16.4622 15.8011 15.1644 15.8011Z" fill="white"/>
</svg>
