<svg width="32" height="32" viewBox="0 0 32 32" fill="none" xmlns="http://www.w3.org/2000/svg">
<path d="M16 32C24.8366 32 32 24.8366 32 16C32 7.16344 24.8366 0 16 0C7.16344 0 0 7.16344 0 16C0 24.8366 7.16344 32 16 32Z" fill="#2667BF"/>
<path d="M16.0044 7.59058C14.4418 7.59058 13.0091 8.37862 12.1713 9.69872C11.9593 10.0326 12.0588 10.4756 12.3923 10.6873C12.5114 10.7628 12.644 10.7987 12.7755 10.7987C13.0126 10.7987 13.2447 10.6811 13.3808 10.4663C13.9541 9.56262 14.9349 9.02287 16.0044 9.02287C17.0693 9.02287 18.0478 9.55915 18.6222 10.4571C18.8354 10.7906 19.2777 10.8877 19.6115 10.6745C19.945 10.4617 20.0422 10.0183 19.829 9.68484C18.99 8.374 17.5604 7.59058 16.0044 7.59058Z" fill="white"/>
<path d="M10.2191 9.36563C10.3432 9.44466 10.4817 9.48168 10.6185 9.48168C10.8672 9.48168 11.1101 9.3583 11.2527 9.13237C12.2895 7.49074 14.0672 6.5103 16.0073 6.5103C17.9384 6.5103 19.7119 7.4838 20.751 9.11502C20.973 9.46394 21.4365 9.56649 21.7858 9.34442C22.1347 9.12196 22.2376 8.65931 22.0152 8.31001C20.6997 6.24505 18.4539 5.01208 16.0076 5.01208C13.5506 5.01208 11.3002 6.25353 9.98624 8.33237C9.76494 8.68245 9.86942 9.1451 10.2191 9.36563Z" fill="white"/>
<path d="M19.0581 23.8624H17.0094V19.2772H26.1899C26.1899 18.0095 25.1794 16.9847 23.8975 16.9847H17.0094V14.9448C17.0094 14.1807 18.0283 13.6714 18.0391 12.1296C18.0472 11.0038 17.1269 10.0916 16.0012 10.0916C14.8758 10.0916 13.9728 11.0038 13.9632 12.1296C13.9524 13.4161 14.9714 14.1807 14.9714 14.9448V16.9847H8.10371C6.82179 16.9847 5.81128 18.0095 5.81128 19.2772H14.9714V23.8624H12.9446C12.3366 23.8624 11.67 24.4527 11.67 25.1382L16.0012 26.4097L20.3304 25.1378C20.3308 24.4527 19.6657 23.8624 19.0581 23.8624Z" fill="white"/>
</svg>
