<svg width="32" height="32" viewBox="0 0 32 32" fill="none" xmlns="http://www.w3.org/2000/svg">
<path d="M16 32C24.8366 32 32 24.8366 32 16C32 7.16344 24.8366 0 16 0C7.16344 0 0 7.16344 0 16C0 24.8366 7.16344 32 16 32Z" fill="#2667BF"/>
<path d="M8.36938 21.233H14.8577V18.6688H8.36938V21.233Z" fill="white"/>
<path d="M16.8083 5.39609C13.2886 5.39609 10.0424 8.03975 9.36806 10.9506C9.21809 11.5979 9.04883 13.2885 9.04883 13.2885L7.05635 16.8158C7.02397 16.8883 7.00854 16.9728 7.00854 17.0584C7.00854 17.403 7.28652 17.6829 7.63274 17.6829H7.80238H9.04883H15.6339V22.2181H9.151C9.41934 23.7649 10.2621 23.8983 12.1066 23.8983H12.6452V26.2732H21.5998V19.6881C23.4057 18.2686 24.5669 15.6295 24.5669 13.1551C24.5665 8.86905 21.0943 5.39609 16.8083 5.39609ZM11.1493 14.833C10.554 14.833 10.0713 14.3507 10.0713 13.755C10.0713 13.1594 10.5536 12.6767 11.1493 12.6767C11.7445 12.6767 12.2276 13.1594 12.2276 13.755C12.2276 14.3507 11.7449 14.833 11.1493 14.833ZM20.4836 16.1084C20.3148 16.6975 19.9608 17.1975 19.487 17.5168C19.1466 17.7465 18.7726 17.863 18.4013 17.863C18.2382 17.863 18.0751 17.8406 17.9155 17.7947C17.7648 17.7519 17.6777 17.5939 17.7212 17.4443C17.7636 17.2928 17.9221 17.2072 18.0713 17.2496C18.4318 17.3518 18.8216 17.2797 19.1705 17.046C19.534 16.8008 19.8066 16.4122 19.9389 15.9515C20.0618 15.5227 20.1536 14.9147 19.8934 14.4532C19.7322 14.1687 19.4481 13.9698 19.0475 13.8618C18.5235 13.7215 17.9529 14.1167 17.7725 14.7447C17.7301 14.8955 17.5728 14.983 17.422 14.9394C17.2713 14.8962 17.1845 14.7393 17.2277 14.589C17.4961 13.6486 18.362 13.0888 19.1951 13.314C19.7484 13.4632 20.1486 13.7531 20.3876 14.1749C20.6695 14.6757 20.7026 15.3438 20.4836 16.1084Z" fill="white"/>
</svg>
