<svg width="32" height="32" viewBox="0 0 32 32" fill="none" xmlns="http://www.w3.org/2000/svg">
<path d="M16 32C24.8366 32 32 24.8366 32 16C32 7.16344 24.8366 0 16 0C7.16344 0 0 7.16344 0 16C0 24.8366 7.16344 32 16 32Z" fill="#2667BF"/>
<path d="M26.6278 8.39594L24.9588 9.28886L23.7539 9.00471L21.5432 10.1876L21.7541 10.5808L21.8424 10.7443L22.3012 11.6029L24.2332 10.57L24.281 10.6591L25.3782 10.0715L25.3304 9.98129L27.8106 8.65387L27.6321 8.32038L28.0184 8.11411L27.8257 7.75479L27.4397 7.96182L26.7897 6.74698L26.3841 6.96442L26.5553 7.7625L26.5511 8.25368L26.6278 8.39594Z" fill="white"/>
<path fill-rule="evenodd" clip-rule="evenodd" d="M5.90838 25.0479L3.6626 22.3295L7.33681 19.3485L8.07975 19.2868L9.52631 18.1533L9.52939 18.1595L10.1089 17.8275L10.1085 17.826H10.1089L10.0248 17.6671L9.94347 17.0992L10.1752 16.9743L10.2087 16.256L15.7983 13.2638L15.9375 12.8151L17.7542 11.842L17.9172 11.9437L21.1705 10.203L21.1797 10.2215L21.3806 10.2751L22.1382 11.6908L22.0919 11.9241L22.1039 11.9476L18.6355 14.37L18.1748 14.6171L17.8536 14.5199L17.3486 13.5761L17.2657 13.6228L17.8263 14.6703L16.4923 15.3847C17.8949 17.4497 20.5879 17.4597 20.5879 17.4597L20.3982 19.3234C20.3982 19.3234 16.7464 19.1619 14.8464 16.2688L14.686 16.5167L14.6775 16.5209L15.0149 17.1528L14.4381 17.4601L14.1 16.8293L14.0452 16.859L14.4574 17.6297L14.3895 17.9362L13.283 18.5288L12.9827 18.4101L12.97 20.5467L13.2433 21.1551L12.5177 21.5437L11.6726 21.3163L11.5905 19.5308L11.146 19.0693L11.1425 19.0713L10.9378 18.6892L10.287 19.0713L10.2889 19.0724L5.90838 25.0479ZM13.0613 17.723L12.7255 17.6806L13.059 18.3025L13.3173 18.4054L14.2696 17.8957L14.3282 17.632L13.9431 16.9118L13.2318 17.2939L13.2726 17.3691L13.1292 17.6101L13.4307 17.8753L13.7449 17.9227L13.7087 18.0434L13.3887 17.9906L13.0613 17.723Z" fill="white"/>
</svg>
