<svg width="32" height="32" viewBox="0 0 32 32" fill="none" xmlns="http://www.w3.org/2000/svg">
<path d="M16 32C24.8366 32 32 24.8366 32 16C32 7.16344 24.8366 0 16 0C7.16344 0 0 7.16344 0 16C0 24.8366 7.16344 32 16 32Z" fill="#2667BF"/>
<path d="M20.982 16.7584C22.8499 16.7584 24.3686 15.2659 24.3686 13.4315C24.3686 12.5151 23.9842 11.643 23.3087 11.0161C23.4128 10.6545 23.4656 10.2759 23.4656 9.88838C23.4656 7.56588 21.5414 5.67634 19.1761 5.67634C18.8969 5.67634 18.6151 5.70872 18.3156 5.77465C17.5641 5.15778 16.593 4.81927 15.5678 4.81927C14.6078 4.81927 13.6817 5.12424 12.95 5.67942C12.9187 5.67749 12.8867 5.67595 12.8543 5.67595C10.489 5.67595 8.56481 7.56549 8.56481 9.888C8.56481 10.2708 8.61762 10.6494 8.72211 11.0157C8.04625 11.6441 7.66187 12.5162 7.66187 13.4311C7.66187 15.2655 9.1809 16.758 11.0485 16.758C11.6056 16.758 12.1446 16.6257 12.6288 16.3736V24.0621C12.6288 24.9141 11.9198 25.6081 11.0485 25.6081C10.6749 25.6081 10.3711 25.9077 10.3711 26.2759C10.3711 26.6444 10.6749 26.9444 11.0485 26.9444C12.667 26.9444 13.9836 25.6509 13.9836 24.0617V14.8935C13.9836 14.5997 13.7847 14.336 13.5044 14.2535C13.2249 14.166 12.9076 14.2778 12.7425 14.5218C12.3651 15.0816 11.7316 15.4159 11.0485 15.4159C9.92808 15.4159 9.01666 14.5241 9.01666 13.4277C9.01666 12.7738 9.34668 12.1612 9.89955 11.7891C10.1629 11.6121 10.2654 11.2721 10.1432 10.9795C9.99517 10.6279 9.9196 10.2589 9.9196 9.88299C9.9196 8.29841 11.2362 7.00877 12.8547 7.00877C12.8786 7.00877 12.9014 7.01224 12.9241 7.01494L13.1107 7.03846L13.1501 7.03961C13.3278 7.03961 13.4878 6.98024 13.6116 6.86997C14.1382 6.40694 14.8329 6.15209 15.5674 6.15209C16.3605 6.15209 17.12 6.45397 17.6516 6.98062C17.8263 7.15373 18.1054 7.21889 18.3263 7.14988C18.6506 7.05426 18.9209 7.00993 19.1772 7.00993C20.7954 7.00993 22.112 8.29956 22.112 9.88453C22.112 10.2616 22.0368 10.6306 21.8868 10.9822C21.7654 11.2713 21.8683 11.6118 22.1324 11.7914C22.6853 12.1642 23.0153 12.7769 23.0153 13.4304C23.0153 14.5276 22.1039 15.4198 20.9831 15.4198C20.3003 15.4198 19.6669 15.0855 19.2879 14.523C19.1233 14.2851 18.8121 14.1725 18.5307 14.2562C18.2423 14.3429 18.0484 14.6009 18.0484 14.8973V24.0625C18.0484 25.6513 19.365 26.9452 20.9831 26.9452C21.3563 26.9452 21.6594 26.6452 21.6594 26.2766C21.6594 25.9084 21.3559 25.6089 20.982 25.6089C20.111 25.6089 19.402 24.9149 19.402 24.0628V16.3732C19.8866 16.6265 20.426 16.7584 20.982 16.7584Z" fill="white"/>
<path d="M16.9194 23.6191C16.6699 23.6191 16.4675 23.4182 16.4675 23.1753V16.089C16.4675 15.8454 16.6696 15.6468 16.9194 15.6468C17.1684 15.6468 17.3709 15.8465 17.3709 16.089V23.1753C17.3709 23.4201 17.1684 23.6191 16.9194 23.6191Z" fill="white"/>
<path d="M11.0494 10.3313C10.8003 10.3313 10.5979 10.1316 10.5979 9.88913C10.5979 8.66734 11.6111 7.67496 12.8552 7.67496C13.1043 7.67496 13.3067 7.87428 13.3067 8.11718C13.3067 8.36084 13.1043 8.56093 12.8552 8.56093C12.1081 8.56093 11.5005 9.1566 11.5005 9.88913C11.5008 10.1316 11.2988 10.3313 11.0494 10.3313Z" fill="white"/>
<path d="M20.9832 14.7612C20.7357 14.7612 20.5317 14.5611 20.5317 14.3174C20.5317 14.0738 20.7357 13.8748 20.9832 13.8748C21.2307 13.8748 21.4347 13.6755 21.4347 13.4318C21.4347 13.1878 21.639 12.9889 21.8865 12.9889C22.1341 12.9889 22.338 13.1886 22.338 13.4318C22.3376 14.1648 21.73 14.7612 20.9832 14.7612Z" fill="white"/>
</svg>
