<svg width="32" height="32" viewBox="0 0 32 32" fill="none" xmlns="http://www.w3.org/2000/svg">
<path d="M16 32C24.8366 32 32 24.8366 32 16C32 7.16344 24.8366 0 16 0C7.16344 0 0 7.16344 0 16C0 24.8366 7.16344 32 16 32Z" fill="#2667BF"/>
<path d="M21.1852 22.1355C22.1483 22.1355 22.929 21.3548 22.929 20.3917C22.929 19.4286 22.1483 18.6479 21.1852 18.6479C20.2221 18.6479 19.4414 19.4286 19.4414 20.3917C19.4414 21.3548 20.2221 22.1355 21.1852 22.1355Z" fill="white"/>
<path d="M20.0231 12.8347V11.0909V10.5095C20.0231 9.86716 19.5022 9.34668 18.8603 9.34668H7.8149C7.17297 9.34668 6.6521 9.86716 6.6521 10.5095V16.9037C6.6521 17.546 7.17297 18.0669 7.8149 18.0669H8.97769V18.0811C9.46463 17.7122 10.0649 17.4851 10.7215 17.4851C12.3242 17.4851 13.6281 18.7894 13.6281 20.3917H18.2789C18.2789 19.2034 18.9979 18.1814 20.0227 17.7315V12.8347H20.0231Z" fill="white"/>
<path d="M24.6118 13.8745C24.3246 13.3 23.5712 12.8343 22.9293 12.8343H20.6045V17.5433C20.7919 17.5051 20.9869 17.4847 21.1855 17.4847C22.7886 17.4847 24.0921 18.789 24.0921 20.3913C24.7344 20.3913 25.2553 19.8708 25.2553 19.2285V17.4847V15.1595L24.6118 13.8745ZM24.4275 15.7413H21.7669V13.4161H22.9293C23.2509 13.4161 23.6275 13.6489 23.7706 13.9362L24.4279 15.2513V15.7413H24.4275Z" fill="white"/>
<path d="M10.7216 22.1355C11.6847 22.1355 12.4654 21.3548 12.4654 20.3917C12.4654 19.4286 11.6847 18.6479 10.7216 18.6479C9.75851 18.6479 8.97778 19.4286 8.97778 20.3917C8.97778 21.3548 9.75851 22.1355 10.7216 22.1355Z" fill="white"/>
</svg>
