<svg width="32" height="32" viewBox="0 0 32 32" fill="none" xmlns="http://www.w3.org/2000/svg">
<path d="M16 32C24.8366 32 32 24.8366 32 16C32 7.16344 24.8366 0 16 0C7.16344 0 0 7.16344 0 16C0 24.8366 7.16344 32 16 32Z" fill="#2667BF"/>
<path d="M15.9919 6.48984C10.7392 6.48984 6.48169 10.7478 6.48169 16C6.48169 21.2522 10.7392 25.5102 15.9919 25.5102C21.2441 25.5102 25.502 21.2522 25.502 16C25.502 10.7478 21.2441 6.48984 15.9919 6.48984ZM15.9919 24.559C11.2721 24.559 7.43282 20.7198 7.43282 16C7.43282 11.2802 11.2721 7.44097 15.9919 7.44097C20.7117 7.44097 24.5509 11.2802 24.5509 16C24.5509 20.7198 20.7117 24.559 15.9919 24.559Z" fill="white"/>
<path d="M15.9919 13.6223C14.6787 13.6223 13.6143 14.6868 13.6143 16C13.6143 17.3128 14.6787 18.3776 15.9919 18.3776C17.3047 18.3776 18.3695 17.3128 18.3695 16C18.3695 14.6868 17.3047 13.6223 15.9919 13.6223ZM15.9919 17.4265C15.205 17.4265 14.5654 16.7865 14.5654 16C14.5654 15.2131 15.2054 14.5735 15.9919 14.5735C16.7784 14.5735 17.4184 15.2135 17.4184 16C17.4184 16.7865 16.7784 17.4265 15.9919 17.4265Z" fill="white"/>
<path d="M21.3722 10.6197L18.3457 13.6462C18.9471 14.2504 19.3204 15.0828 19.3204 16H23.5999C23.5999 13.8984 22.7486 11.9961 21.3722 10.6197Z" fill="white"/>
<path d="M20.5567 9.91345C20.1928 9.63779 19.8026 9.39759 19.394 9.19287L17.4797 13.0232C17.6579 13.1134 17.8294 13.2179 17.9887 13.3371L20.5567 9.91345Z" fill="white"/>
</svg>
