<svg width="32" height="32" viewBox="0 0 32 32" fill="none" xmlns="http://www.w3.org/2000/svg">
<path d="M16 32C24.8366 32 32 24.8366 32 16C32 7.16344 24.8366 0 16 0C7.16344 0 0 7.16344 0 16C0 24.8366 7.16344 32 16 32Z" fill="#2667BF"/>
<path d="M24.2116 15.3461L19.9321 8.57058C20.431 8.35661 20.9661 8.21396 21.5726 8.21396C23.8187 8.21396 25.6377 10.0326 25.6377 12.2791C25.6015 13.5275 25.0671 14.5974 24.2116 15.3461ZM18.8626 16.2379L17.2934 17.2009L16.9368 17.4149L16.5802 17.6289L15.1891 18.4848L14.8325 18.6992L14.4759 18.9131L8.02151 23.0488L7.27279 21.765C7.27279 21.6933 7.27279 21.6223 7.23732 21.5865C7.20185 21.5152 7.13053 21.4797 7.0592 21.4442L6.34595 20.2313L16.9368 13.5988L17.0794 13.5275L17.6146 14.3475L18.0776 15.0967L18.8626 16.2379ZM16.6156 31.9637H15.225V19.3758L16.6152 18.5199V31.9637H16.6156ZM19.3977 15.7386L17.5429 12.886C17.507 12.7078 17.507 12.5293 17.507 12.3154C17.507 10.9247 18.2206 9.67671 19.3256 8.9276L23.6765 15.7744C23.07 16.1311 22.3567 16.3805 21.5726 16.3805C20.7521 16.3447 20.0034 16.1307 19.3977 15.7386Z" fill="white"/>
</svg>
