<svg width="32" height="32" viewBox="0 0 32 32" fill="none" xmlns="http://www.w3.org/2000/svg">
<path d="M16 32C24.8366 32 32 24.8366 32 16C32 7.16344 24.8366 0 16 0C7.16344 0 0 7.16344 0 16C0 24.8366 7.16344 32 16 32Z" fill="#2667BF"/>
<path d="M21.0229 10.7076L22.432 9.12924V8.55247V7.97531V6.82177C22.432 6.50331 22.0623 6.29666 21.7438 6.29666H20.0139C19.6954 6.29666 19.308 6.50331 19.308 6.82177V7.95064H17.654V6.82177C17.654 6.50331 17.4489 6.29666 17.1304 6.29666H14.8237C14.5053 6.29666 14.3464 6.50331 14.3464 6.82177V7.95064H12.5085V6.82177C12.5085 6.50331 12.2587 6.29666 11.9403 6.29666H10.2099C9.89148 6.29666 9.56763 6.50331 9.56763 6.82177V7.97531V8.55208V9.12885L10.9305 10.7073H21.0229V10.7076Z" fill="white"/>
<path d="M9.05637 21.3667C8.7383 21.3667 8.46533 21.4978 8.46533 21.8166V24.1229C8.46533 24.4414 8.7383 24.6747 9.05637 24.6747H22.8969C23.2158 24.6747 23.535 24.4418 23.535 24.1229V21.8166C23.535 21.4978 23.2158 21.3667 22.8973 21.3667H9.05637Z" fill="white"/>
<path d="M20.5903 11.6264H11.3635L10.2778 20.8154H21.676L20.5903 11.6264ZM17.1027 16.5883H14.8974V14.8958C14.8974 14.3013 15.4055 13.7426 16 13.7426C16.5946 13.7426 17.1027 14.3017 17.1027 14.8958V16.5883Z" fill="white"/>
</svg>
