<svg width="32" height="32" viewBox="0 0 32 32" fill="none" xmlns="http://www.w3.org/2000/svg">
<path d="M16 32C24.8366 32 32 24.8366 32 16C32 7.16344 24.8366 0 16 0C7.16344 0 0 7.16344 0 16C0 24.8366 7.16344 32 16 32Z" fill="#2667BF"/>
<path d="M25.0965 11.4822C24.8705 10.5052 24.0682 9.78544 23.1025 9.67787C20.815 9.42341 18.5002 9.26419 16.1959 9.26573C13.8907 9.26419 11.5759 9.42341 9.28848 9.67787C8.3227 9.78544 7.52077 10.5052 7.29523 11.4822C6.97446 12.8732 6.97021 14.3911 6.97021 15.8234C6.97021 17.2553 6.97021 18.7732 7.29137 20.165C7.51691 21.1408 8.31923 21.8614 9.28462 21.9686C11.5717 22.223 13.8865 22.3819 16.192 22.3811C18.4968 22.3819 20.8116 22.223 23.0986 21.9686C24.0644 21.8618 24.8667 21.1412 25.0922 20.165C25.4134 18.7736 25.4157 17.2553 25.4157 15.8234C25.4157 14.3915 25.4176 12.8732 25.0965 11.4822ZM19.3376 16.2483L14.9899 18.5985C14.5577 18.8326 14.2038 18.6221 14.2038 18.1309V13.5159C14.2038 13.0248 14.5573 12.8135 14.9899 13.0475L19.3376 15.3985C19.7702 15.6318 19.7702 16.0146 19.3376 16.2483Z" fill="white"/>
</svg>
