<svg width="32" height="32" viewBox="0 0 32 32" fill="none" xmlns="http://www.w3.org/2000/svg">
<path d="M16 32C24.8366 32 32 24.8366 32 16C32 7.16344 24.8366 0 16 0C7.16344 0 0 7.16344 0 16C0 24.8366 7.16344 32 16 32Z" fill="#2667BF"/>
<path d="M13.0554 17.9188C12.7184 17.9188 12.4451 18.1926 12.4451 18.5291V19.9206C12.4451 20.2571 12.7184 20.5309 13.0554 20.5309C13.3923 20.5309 13.6657 20.2575 13.6657 19.9206V18.5291C13.6653 18.1926 13.392 17.9188 13.0554 17.9188Z" fill="white"/>
<path d="M19.2199 15.0639C19.5569 15.0639 19.8299 14.791 19.8299 14.4536V13.063C19.8299 12.726 19.5569 12.4526 19.2199 12.4526C18.8826 12.4526 18.6096 12.726 18.6096 13.063V14.4536C18.6096 14.7906 18.8826 15.0639 19.2199 15.0639Z" fill="white"/>
<path d="M22.0395 20.5309C22.3765 20.5309 22.6498 20.2575 22.6498 19.9206V18.5291C22.6498 18.1926 22.3765 17.9188 22.0395 17.9188C21.7025 17.9188 21.4292 18.1926 21.4292 18.5291V19.9206C21.4292 20.2571 21.7025 20.5309 22.0395 20.5309Z" fill="white"/>
<path d="M22.0395 15.0639C22.3765 15.0639 22.6498 14.791 22.6498 14.4536V13.063C22.6498 12.726 22.3765 12.4526 22.0395 12.4526C21.7025 12.4526 21.4292 12.726 21.4292 13.063V14.4536C21.4292 14.7906 21.7025 15.0639 22.0395 15.0639Z" fill="white"/>
<path d="M24.7258 9.53407H17.2228C16.5265 7.25166 14.4052 5.59036 11.8946 5.59036C8.81794 5.59036 6.32349 8.08444 6.32349 11.1614C6.32349 13.482 7.74228 15.4695 9.75905 16.3077V23.3029C9.75905 23.6395 10.0324 23.9133 10.3694 23.9133H15.7897H18.2919H24.7262C25.0631 23.9133 25.3365 23.6399 25.3365 23.3029V10.1444C25.3361 9.80704 25.0628 9.53407 24.7258 9.53407ZM9.75867 14.5338C9.49534 14.545 9.22662 14.4551 9.01496 14.2631L9.00763 14.2558C8.59472 13.8799 8.58431 13.2337 8.96792 12.8278L9.75828 11.9931L10.3671 11.3504L9.75867 10.7747L8.7844 9.85215C8.3792 9.46815 8.36185 8.8293 8.74508 8.42448L8.75202 8.41639C9.13563 8.01195 9.77486 7.99422 10.1797 8.37745L11.4007 9.53407L11.7627 9.87682L12.0873 9.53407L13.2617 8.29378C13.6453 7.88858 14.2842 7.87123 14.6894 8.25446L14.6967 8.26178C15.0533 8.59952 15.1088 9.13427 14.8559 9.53407C14.8216 9.58844 14.7823 9.64048 14.736 9.68906L13.7274 10.7547L13.237 11.2729L14.7148 12.6716C15.12 13.0556 15.1374 13.6948 14.7538 14.0993L14.7468 14.1074C14.3632 14.5118 13.724 14.5295 13.3191 14.1459L11.8414 12.7472L10.9785 13.6586L10.4426 14.2246C10.256 14.422 10.0097 14.5238 9.75867 14.5338ZM19.3024 22.5531H15.8441V18.353H19.3024V22.5531ZM24.1159 22.6922H20.5234V17.7427C20.5234 17.4061 20.25 17.1323 19.9131 17.1323H15.2338C14.8968 17.1323 14.6234 17.4061 14.6234 17.7427V22.6922H10.9789V16.6516C11.2773 16.7009 11.5815 16.7333 11.8942 16.7333C14.9712 16.7333 17.4653 14.2388 17.4653 11.1614C17.4653 11.0242 17.4549 10.8896 17.4448 10.7551H17.734C17.7351 10.7551 17.7363 10.7547 17.7371 10.7547H24.1155V22.6922H24.1159Z" fill="white"/>
</svg>
