<svg width="32" height="32" viewBox="0 0 32 32" fill="none" xmlns="http://www.w3.org/2000/svg">
<path d="M16 32C24.8366 32 32 24.8366 32 16C32 7.16344 24.8366 0 16 0C7.16344 0 0 7.16344 0 16C0 24.8366 7.16344 32 16 32Z" fill="#2667BF"/>
<path d="M16.1927 6.74698L13.148 15.2729L5.84009 10.4011L8.27594 18.3179C8.83421 20.1318 9.49387 20.1446 10.7118 20.1446H13.1477V18.9266H19.2373V20.1446H21.6735C22.8911 20.1446 23.5083 19.6206 24.1094 18.3179L26.5449 10.4011L19.2373 15.2729L16.1927 6.74698Z" fill="white"/>
<path d="M14.3661 20.1446V21.3629C11.6673 21.3629 9.49438 22.1776 9.49438 23.19C9.49438 24.202 11.6673 25.0163 14.3661 25.0163H18.0203C20.7191 25.0163 22.892 24.2017 22.892 23.19C22.892 22.1772 20.7191 21.3629 18.0203 21.3629V20.1446H14.3661Z" fill="white"/>
</svg>
