<svg width="32" height="32" viewBox="0 0 32 32" fill="none" xmlns="http://www.w3.org/2000/svg">
<path d="M16 32C24.8366 32 32 24.8366 32 16C32 7.16344 24.8366 0 16 0C7.16344 0 0 7.16344 0 16C0 24.8366 7.16344 32 16 32Z" fill="#2667BF"/>
<path d="M14.8806 5.86065C14.4187 5.8591 14.042 5.48243 14.0413 5.02132C14.042 4.55366 14.4187 4.17698 14.8806 4.182C15.3475 4.17698 15.7238 4.55366 15.7199 5.02132C15.7238 5.48243 15.3471 5.85872 14.8806 5.86065Z" fill="white"/>
<path d="M17.1193 5.86065C17.5819 5.8591 17.959 5.48243 17.959 5.02132C17.959 4.55366 17.5819 4.17698 17.1193 4.182C16.6532 4.17698 16.2765 4.55366 16.2796 5.02132C16.2769 5.48243 16.6532 5.85872 17.1193 5.86065Z" fill="white"/>
<path d="M20.4522 22.8426C21.6169 22.6487 22.7778 21.4327 22.7755 19.9479V9.10842C22.7782 7.58013 21.4909 6.17522 19.7463 6.17676H16.0119H12.2652C10.5106 6.17522 9.22252 7.58013 9.22445 9.10842V19.9479C9.22291 21.4327 10.3842 22.6494 11.5477 22.8426L8.05664 28.086H10.0753L12.569 24.4121H16H19.4305L21.9354 28.086H23.9433L20.4522 22.8426ZM14.0291 7.29676C14.0295 7.02495 14.2608 6.80134 14.5276 6.79748H16H17.4724C17.7391 6.80134 17.9712 7.02495 17.9712 7.29676V8.14765C17.9712 8.4183 17.7526 8.6477 17.4724 8.64654H16H14.528C14.2492 8.6477 14.0302 8.4183 14.0298 8.14765L14.0291 7.29676ZM12.1924 21.2611C11.4614 21.2553 10.8653 20.6593 10.8669 19.9229C10.8653 19.1888 11.4614 18.5931 12.1924 18.597C12.9314 18.5931 13.5271 19.1888 13.5306 19.9229C13.5271 20.6597 12.9311 21.2557 12.1924 21.2611ZM12.3628 14.218C11.5242 14.213 10.8403 13.6393 10.8418 12.697V10.7512C10.8476 9.93965 11.3723 9.2318 12.3628 9.23025H16H19.6372C20.6288 9.2318 21.1539 9.93927 21.1577 10.7512V12.697C21.1601 13.6393 20.4765 14.2134 19.6372 14.218H16H12.3628ZM18.4455 19.9237C18.4431 19.1892 19.0384 18.5943 19.771 18.5982C20.51 18.5935 21.1061 19.1892 21.1099 19.9237C21.1061 20.6597 20.51 21.2557 19.771 21.2619C19.0384 21.2557 18.4431 20.6597 18.4455 19.9237Z" fill="white"/>
</svg>
