<svg width="32" height="32" viewBox="0 0 32 32" fill="none" xmlns="http://www.w3.org/2000/svg">
<path d="M16 32C24.8366 32 32 24.8366 32 16C32 7.16344 24.8366 0 16 0C7.16344 0 0 7.16344 0 16C0 24.8366 7.16344 32 16 32Z" fill="#2667BF"/>
<path d="M21.5125 24.1157H21.5117C21.509 24.1157 21.2206 24.357 20.8362 24.3771C20.5764 24.3948 20.2968 24.1916 20.0015 23.8959C19.4479 23.3427 18.8491 23.0562 18.2334 23.0932C17.3297 23.1495 16.7695 23.8134 16.6974 23.9044C16.6967 23.9052 16.6967 23.8982 16.6967 23.8982C16.6932 23.9021 16.4048 24.2479 16.0204 24.268C15.7598 24.2865 15.4814 24.1361 15.1853 23.8419C14.6325 23.2887 14.0333 23.1418 13.4176 23.178C12.5147 23.2343 11.9533 23.8138 11.8812 24.1153H11.8805C11.8774 24.1153 11.589 24.3566 11.205 24.3767C10.9474 24.3948 10.6652 24.1912 10.3699 23.8955C9.81704 23.3427 9.21791 23.0566 8.60181 23.0932C8.15651 23.121 7.79718 23.2721 7.5354 23.4568V24.8617C7.71198 24.8617 7.88779 24.7873 8.00692 24.6404C8.01 24.6362 8.29839 24.2869 8.68277 24.2668C8.94648 24.2552 9.22253 24.3963 9.51786 24.6917C10.0353 25.2087 10.5885 25.4705 11.1661 25.4705C11.2061 25.4705 11.2462 25.5079 11.286 25.5052C12.1889 25.4489 12.7502 25.0186 12.8223 24.7179H12.8227C12.8258 24.7179 13.1142 24.3258 13.4986 24.3057C13.7592 24.2949 14.0383 24.416 14.3337 24.7117C14.8507 25.2291 15.4047 25.4805 15.9822 25.4805C16.0223 25.4805 16.0624 25.5129 16.1018 25.5109C17.0051 25.4543 17.5661 25.0194 17.6381 24.7183H17.6385C17.6416 24.7183 17.93 24.3262 18.3148 24.3065C18.5762 24.2957 18.8538 24.4164 19.1499 24.7125C19.6665 25.2299 20.2197 25.4809 20.7973 25.4809C20.8374 25.4809 20.8779 25.5136 20.9172 25.5113C21.8205 25.4547 22.3811 25.0202 22.4536 24.719C22.4543 24.719 22.4543 24.719 22.4543 24.719C22.4578 24.719 22.7458 24.3266 23.1302 24.3069C23.392 24.2961 23.6696 24.4172 23.9649 24.7125C24.1041 24.8521 24.2463 24.9523 24.3905 25.0537V23.4811C23.9599 23.178 23.5088 23.1518 23.0485 23.1796C22.1463 23.2336 21.5846 23.8142 21.5125 24.1157Z" fill="white"/>
<path d="M20.1772 9.21565C21.0085 9.21565 21.6824 9.96823 21.6824 10.8712H22.5853C22.5853 9.3664 21.5078 8.31271 20.1776 8.31271L20.1772 9.21565Z" fill="white"/>
<path d="M11.2042 23.0604C11.5886 23.0408 11.877 22.6907 11.8801 22.6872C11.8801 22.6868 11.8801 22.6868 11.8801 22.6868C11.9526 22.5951 12.5139 21.9173 13.4165 21.861C13.5638 21.8522 13.711 21.8614 13.856 21.8868V16.7399C13.856 15.7428 14.6649 15.0847 15.6619 15.0847H20.1774C22.5041 15.0847 24.3913 13.1979 24.3913 10.8704C24.3913 8.54285 22.5053 6.65601 20.1774 6.65601H13.5553C11.2278 6.65601 9.34131 8.54246 9.34131 10.87C9.34131 10.9718 9.34941 10.87 9.35673 11.1707H9.34131V21.964C9.69601 22.0846 10.0407 22.3067 10.3692 22.6344C10.6649 22.9313 10.9463 23.0786 11.2042 23.0604ZM23.1873 10.7208C23.1873 12.3832 21.8402 13.7311 20.1774 13.7311C18.5145 13.7311 17.167 12.3832 17.167 10.7208C17.167 9.05793 18.5145 7.71046 20.1774 7.71046C21.8402 7.71046 23.1873 9.05793 23.1873 10.7208Z" fill="white"/>
</svg>
