<svg width="32" height="32" viewBox="0 0 32 32" fill="none" xmlns="http://www.w3.org/2000/svg">
<path d="M16 32C24.8366 32 32 24.8366 32 16C32 7.16344 24.8366 0 16 0C7.16344 0 0 7.16344 0 16C0 24.8366 7.16344 32 16 32Z" fill="#2667BF"/>
<path d="M25.8192 10.1023C25.1249 10.4099 24.3793 10.6185 23.5968 10.7117C24.396 10.2327 25.0079 9.47409 25.298 8.5717C24.5481 9.01516 23.7201 9.337 22.8386 9.51171C22.1323 8.75853 21.1275 8.28915 20.0136 8.28915C17.8761 8.28915 16.1428 10.0221 16.1428 12.1587C16.1428 12.4617 16.1771 12.7577 16.2431 13.0406C13.0268 12.8793 10.1746 11.3382 8.26617 8.99677C7.93263 9.5673 7.74287 10.2327 7.74287 10.942C7.74287 12.2849 8.42667 13.4699 9.46407 14.1633C8.83001 14.142 8.23315 13.9677 7.71111 13.6776V13.7261C7.71111 15.6007 9.04568 17.1647 10.8154 17.5212C10.491 17.6086 10.1491 17.6571 9.79552 17.6571C9.54557 17.6571 9.30399 17.632 9.067 17.5848C9.55978 19.1237 10.9884 20.2422 12.6816 20.2727C11.3575 21.3105 9.6881 21.9275 7.87495 21.9275C7.56273 21.9275 7.25469 21.9087 6.95166 21.874C8.66491 22.9745 10.6987 23.6152 12.8847 23.6152C20.004 23.6152 23.8965 17.7185 23.8965 12.6038L23.8836 12.1027C24.6438 11.5593 25.3013 10.8781 25.8192 10.1023Z" fill="white"/>
</svg>
