<svg width="32" height="32" viewBox="0 0 32 32" fill="none" xmlns="http://www.w3.org/2000/svg">
<path d="M16 32C24.8366 32 32 24.8366 32 16C32 7.16344 24.8366 0 16 0C7.16344 0 0 7.16344 0 16C0 24.8366 7.16344 32 16 32Z" fill="#2667BF"/>
<path d="M24.6515 23.7182L16.8713 9.67446C16.7024 9.37027 16.3812 9.18058 16.0316 9.17981C15.6838 9.17981 15.3626 9.36834 15.1938 9.67176L7.34953 23.7151C7.18414 24.0112 7.18838 24.3767 7.35956 24.6686C7.53074 24.9612 7.84804 25.1428 8.18732 25.1428H11.3673C11.8966 25.1428 12.3269 24.7121 12.3269 24.1828C12.3269 23.6538 11.8962 23.2232 11.3673 23.2232H9.82356L16.0285 12.1146L22.1837 23.2232H20.7066C20.1777 23.2232 19.747 23.6538 19.747 24.1832C19.747 24.7125 20.1777 25.1428 20.7066 25.1428H23.813C24.1503 25.1428 24.4672 24.962 24.6403 24.6697C24.8111 24.3775 24.8158 24.0132 24.6515 23.7182Z" fill="white"/>
<path d="M14.1513 8.58798C14.3201 8.89526 14.6424 9.0861 14.9933 9.0861C15.1537 9.0861 15.3137 9.04523 15.4552 8.96735C15.919 8.71251 16.0894 8.12803 15.8345 7.66383L15.0943 6.31675C14.9254 6.00986 14.6031 5.81902 14.2527 5.81902C14.0923 5.81902 13.9327 5.85988 13.7908 5.93776C13.566 6.06152 13.4025 6.26509 13.3312 6.51106C13.2595 6.75743 13.288 7.01651 13.4114 7.24128L14.1513 8.58798Z" fill="white"/>
<path d="M16.0004 20.8282C14.1721 20.8282 12.6843 22.3156 12.6843 24.1442C12.6843 24.6736 13.115 25.1038 13.6443 25.1038C14.1737 25.1038 14.6039 24.6736 14.6039 24.1442C14.6039 23.3743 15.2301 22.7482 16 22.7482C16.7695 22.7482 17.396 23.3743 17.396 24.1442C17.396 24.6736 17.8263 25.1038 18.3557 25.1038C18.8846 25.1038 19.3153 24.6736 19.3157 24.1442C19.3164 22.316 17.8286 20.8282 16.0004 20.8282Z" fill="white"/>
<path d="M16.8861 8.96737C17.0272 9.04525 17.1868 9.08651 17.3476 9.08651C17.6977 9.08651 18.0204 8.89566 18.19 8.58838L18.9298 7.24169C19.1847 6.77749 19.0143 6.19301 18.5509 5.93817C18.4098 5.86029 18.2498 5.81865 18.0886 5.81865C17.7385 5.81865 17.4162 6.00988 17.247 6.31677L16.5071 7.66347C16.3837 7.88824 16.3552 8.14771 16.4269 8.39407C16.4982 8.64043 16.6617 8.844 16.8861 8.96737Z" fill="white"/>
</svg>
