<svg width="32" height="32" viewBox="0 0 32 32" fill="none" xmlns="http://www.w3.org/2000/svg">
<path d="M16 32C24.8366 32 32 24.8366 32 16C32 7.16344 24.8366 0 16 0C7.16344 0 0 7.16344 0 16C0 24.8366 7.16344 32 16 32Z" fill="#2667BF"/>
<path fill-rule="evenodd" clip-rule="evenodd" d="M13.9551 26.3376V16.0943H10.5857V12.7571H13.9551C13.9551 12.7571 13.9551 10.3156 13.9551 9.81687C13.9551 9.31723 13.8511 5.97589 18.2787 5.97589C18.8718 5.97589 19.9987 5.97589 21.184 5.97589C21.184 7.42783 21.184 8.99627 21.184 9.45078C20.2961 9.45078 19.009 9.45078 18.5559 9.45078C18.1019 9.45078 17.6418 9.90989 17.6418 10.2511C17.6418 10.5914 17.6418 12.7452 17.6418 12.7452C17.6418 12.7452 21.0288 12.7452 21.3976 12.7452C21.2692 14.4946 21.0048 16.0943 21.0048 16.0943H17.6257V26.3877L13.9551 26.3376Z" fill="white"/>
</svg>
