<svg width="32" height="32" viewBox="0 0 32 32" fill="none" xmlns="http://www.w3.org/2000/svg">
<path d="M16 32C24.8366 32 32 24.8366 32 16C32 7.16344 24.8366 0 16 0C7.16344 0 0 7.16344 0 16C0 24.8366 7.16344 32 16 32Z" fill="#2667BF"/>
<path d="M21.1081 9.1837C20.693 9.1837 20.2802 9.22925 19.8762 9.31898C18.5386 7.03112 16.1205 5.63272 13.4383 5.63272C9.32315 5.63272 5.9751 8.97985 5.9751 13.0954C5.9751 17.2101 9.32269 20.5581 13.4383 20.5581H14.1607C14.2173 20.0676 14.2233 19.6176 14.1451 19.1929H13.4378C10.075 19.1929 7.34036 16.4573 7.34036 13.0954C7.34036 9.73312 10.0755 6.99753 13.4383 6.99753C15.7864 6.99753 17.8861 8.30941 18.9187 10.421L19.1805 10.9571L19.746 10.7694C20.1864 10.6235 20.6447 10.5494 21.1076 10.5494C23.4912 10.5494 25.4298 12.488 25.4298 14.8712C25.4298 17.2543 23.4912 19.1933 21.1076 19.1933H20.8826C20.7795 19.6277 20.6286 20.0939 20.4054 20.5586H21.1076C24.2435 20.5581 26.795 18.0071 26.795 14.8712C26.7955 11.7352 24.244 9.1837 21.1081 9.1837Z" fill="white"/>
<path d="M13.6504 17.0688H20.4661C20.4661 17.0688 20.7211 19.9079 18.817 21.7375C17.0909 23.3963 16.2033 25.6239 16.8047 28.8891C14.3066 27.5423 13.8262 25.9391 14.0834 24.3157C14.5854 21.1586 15.6516 19.07 13.6504 17.0688Z" fill="white"/>
</svg>
