<svg width="32" height="32" viewBox="0 0 32 32" fill="none" xmlns="http://www.w3.org/2000/svg">
<path d="M16 32C24.8366 32 32 24.8366 32 16C32 7.16344 24.8366 0 16 0C7.16344 0 0 7.16344 0 16C0 24.8366 7.16344 32 16 32Z" fill="#2667BF"/>
<path d="M6.51851 25.132L9.0199 20.3474L10.4264 21.6085C10.739 21.8896 11.2148 21.8896 11.5275 21.6085L15.4982 18.0484L19.4153 18.8573C19.7823 18.934 20.1559 18.752 20.3225 18.4154L24.964 9.046L25.449 10.1753C25.5836 10.4879 25.8874 10.6749 26.2081 10.6749C26.3165 10.6749 26.4271 10.6533 26.5332 10.6078C26.9526 10.4278 27.1462 9.94239 26.9657 9.52369L25.776 6.75357C25.7706 6.74046 25.7625 6.72967 25.7555 6.71733C25.7428 6.69111 25.7297 6.66528 25.7143 6.64061C25.7008 6.61902 25.6865 6.59935 25.6715 6.5793C25.6557 6.55849 25.6391 6.53805 25.6206 6.518C25.6013 6.49757 25.5809 6.47829 25.56 6.46056C25.5427 6.44475 25.525 6.42933 25.5057 6.41468C25.4795 6.3954 25.4498 6.37882 25.4213 6.36263C25.4089 6.35492 25.3977 6.34567 25.3835 6.33873C25.3788 6.3368 25.3746 6.33564 25.3692 6.33333C25.3368 6.31752 25.3029 6.30634 25.2678 6.29516C25.2512 6.28976 25.235 6.28282 25.2185 6.27858C25.183 6.26933 25.146 6.26509 25.1094 6.26123C25.0943 6.2593 25.0793 6.25545 25.0635 6.25429C25.0261 6.25275 24.9898 6.25545 24.9521 6.25853C24.937 6.25969 24.9212 6.25853 24.9062 6.26046C24.8827 6.26393 24.8603 6.27126 24.836 6.27665C24.8075 6.28321 24.7789 6.28783 24.7504 6.29786C24.7493 6.29786 24.7489 6.29786 24.7477 6.29824L21.6564 7.36465C21.2258 7.51347 20.9968 7.98306 21.1452 8.41449C21.294 8.84514 21.7632 9.07299 22.1954 8.92571L23.3841 8.51588L19.1257 17.1115L15.4249 16.3482C15.1651 16.293 14.9014 16.3671 14.7067 16.5417L10.9769 19.8859L9.33605 18.4139C9.1479 18.245 8.89113 18.1729 8.6413 18.2165C8.39109 18.2601 8.17557 18.417 8.05643 18.6414L4.92969 24.5263" fill="white"/>
</svg>
