<svg width="32" height="32" viewBox="0 0 32 32" fill="none" xmlns="http://www.w3.org/2000/svg">
<path d="M16 32C24.8366 32 32 24.8366 32 16C32 7.16344 24.8366 0 16 0C7.16344 0 0 7.16344 0 16C0 24.8366 7.16344 32 16 32Z" fill="#2667BF"/>
<path d="M9.76277 6.29477L8.20364 7.03926L15.1338 14.0133L9.86995 16.8629L6.85887 15.2228L5.7832 15.7452L8.30041 18.4987L8.91573 22.2003L9.9914 21.6779L10.5662 18.2979L16.0911 15.9861L17.2527 25.6856L18.8118 24.9411L20.6559 13.9443C21.6965 13.4632 23.1997 12.721 24.2302 12.2202C25.518 11.5956 25.8406 10.8187 25.5284 10.1753C25.2157 9.53179 24.3864 9.2646 23.0991 9.88957C22.0685 10.3896 20.5741 11.1511 19.5528 11.6712L9.99679 6.1687" fill="white"/>
</svg>
