<svg width="32" height="32" viewBox="0 0 32 32" fill="none" xmlns="http://www.w3.org/2000/svg">
<path d="M16 32C24.8366 32 32 24.8366 32 16C32 7.16344 24.8366 0 16 0C7.16344 0 0 7.16344 0 16C0 24.8366 7.16344 32 16 32Z" fill="#2667BF"/>
<path d="M20.6298 18.0157C20.6428 18.0198 20.6538 18.023 20.6669 18.0263C20.7239 18.0411 20.7639 18.0755 20.7948 18.123C19.6675 18.3156 18.3363 19.4382 18.018 20.8755C17.9518 21.174 17.9162 21.4914 17.8802 21.8123C17.7966 22.5566 17.711 23.3196 17.2371 23.9079C17.1376 24.0313 17.0015 24.0964 16.8438 24.0964H15.0476C14.7696 24.0964 14.5417 23.8674 14.5417 23.5871C14.5417 23.4618 14.5481 23.3144 14.555 23.1543C14.5945 22.2396 14.6518 20.9095 13.6438 20.9095H11.3944C10.3849 20.9095 10.4352 22.3067 10.4676 23.2064C10.4727 23.3481 10.4774 23.4775 10.4774 23.5871C10.4774 23.8669 10.2503 24.0964 9.97155 24.0964H7.81504C7.63489 24.0964 7.48041 24.0095 7.38504 23.8563C4.43701 19.1035 5.56275 8.0032 16.102 7.90364C16.3033 7.90241 16.4773 8.01098 16.5638 8.19372C16.6506 8.37687 16.6249 8.5805 16.4973 8.73702C15.6997 9.7093 15.22 10.9553 15.22 12.3131C15.22 13.8651 15.846 15.2701 16.858 16.2874C17.6096 17.0434 18.5748 17.585 19.6544 17.8137C19.6638 17.8153 19.672 17.8174 19.6809 17.8202C19.7993 17.8521 19.9433 17.8757 20.0903 17.8998C20.2814 17.9311 20.4777 17.9633 20.6298 18.0157Z" fill="white"/>
<path fill-rule="evenodd" clip-rule="evenodd" d="M24.6113 12.8584C25.9527 17.1712 26.0538 18.0914 26.0183 18.2807L26.024 18.2803C26.024 18.2803 24.2368 24.9211 21.1119 22.6668C17.9865 20.4121 21.1718 21.6363 21.1718 21.6363C21.1718 21.6363 22.1879 22.5451 22.6016 20.5309C22.7401 19.8549 22.6688 18.9039 22.6688 18.9039C22.6688 18.9039 22.5681 17.964 21.9926 17.7755C21.7419 17.6937 22.2014 17.4114 22.738 17.0818C23.4328 16.655 24.2567 16.1488 23.8345 15.8961C22.8416 16.4595 20.4247 17.6169 18.3313 15.8961C16.238 14.1744 15.8064 11.5133 17.4461 9.40195C18.5849 7.87326 19.7053 8.17236 19.7053 8.17236C19.7053 8.17236 23.2349 8.435 24.6113 12.8584ZM19.4273 12.8973C19.4273 13.2644 19.7232 13.5619 20.088 13.5619C20.454 13.5619 20.7495 13.2644 20.7495 12.8973C20.7495 12.5306 20.4536 12.2331 20.088 12.2331C19.7236 12.2331 19.4273 12.5302 19.4273 12.8973Z" fill="white"/>
</svg>
