<svg width="32" height="32" viewBox="0 0 32 32" fill="none" xmlns="http://www.w3.org/2000/svg">
<path d="M16 32C24.8366 32 32 24.8366 32 16C32 7.16344 24.8366 0 16 0C7.16344 0 0 7.16344 0 16C0 24.8366 7.16344 32 16 32Z" fill="#2667BF"/>
<path fill-rule="evenodd" clip-rule="evenodd" d="M17.3895 10.0134C17.3895 7.66967 19.2961 5.7627 21.6394 5.7627C23.9835 5.7627 25.8905 7.66967 25.8909 10.0134C25.8909 10.4896 25.813 10.9563 25.6593 11.4014C24.9651 13.3994 23.7731 15.2061 22.2091 16.6257C21.8997 16.9351 21.3835 16.9371 21.0626 16.6185C19.5069 15.2057 18.3141 13.3994 17.6211 11.4018C17.4674 10.9559 17.3895 10.4888 17.3895 10.0134ZM19.0821 9.9986C19.0821 11.4082 20.2294 12.5555 21.6394 12.5555C23.0494 12.5555 24.1959 11.4082 24.1959 9.9986C24.1959 8.58902 23.0494 7.44213 21.6394 7.44213C20.2294 7.44213 19.0821 8.58902 19.0821 9.9986Z" fill="white"/>
<path fill-rule="evenodd" clip-rule="evenodd" d="M24.7547 22.9286V14.2864C24.7547 13.8253 25.4445 13.8253 25.4449 14.2864V23.1518C25.4449 23.2875 25.3646 23.4105 25.2409 23.4664L20.6425 25.5326C20.5435 25.5761 20.4613 25.5773 20.3595 25.5326L15.9024 23.5294L11.4458 25.5326C11.3536 25.5737 11.2709 25.5801 11.1631 25.5326L6.56476 23.4664C6.44141 23.4105 6.36157 23.2875 6.36157 23.1518V10.292C6.36157 10.0377 6.63702 9.88282 6.8478 9.97743L11.3049 11.9802L15.7615 9.97743C15.8549 9.93631 15.9527 9.93551 16.0441 9.97743L16.9112 10.367C17.3272 10.5543 17.0461 11.1834 16.6286 10.9962L16.2477 10.8249V22.9286L20.1563 24.6855V16.9766C20.1563 16.5227 20.8465 16.5227 20.8465 16.9766V24.6851L24.7547 22.9286ZM7.05099 22.929L10.9595 24.6855V12.5818L7.05099 10.8253V22.929ZM11.6494 24.6851L15.5579 22.9286V10.8253L11.6494 12.5814V24.6851Z" fill="white"/>
</svg>
