<svg width="32" height="32" viewBox="0 0 32 32" fill="none" xmlns="http://www.w3.org/2000/svg">
<path d="M16 32C24.8366 32 32 24.8366 32 16C32 7.16344 24.8366 0 16 0C7.16344 0 0 7.16344 0 16C0 24.8366 7.16344 32 16 32Z" fill="#2667BF"/>
<path d="M15.8877 7.3253C10.4092 7.3253 6.9397 10.6097 6.9397 14.636C6.99136 16.2772 7.42124 17.8857 8.19618 19.3334H10.4431C10.4431 19.3334 12.0373 19.3334 12.4375 24.0933H14.0842V23.4506C14.0842 23.1881 14.2974 22.9748 14.5603 22.9748C14.8233 22.9748 15.0361 23.1884 15.0361 23.4506V24.0933H16.8023V23.4506C16.8023 23.1881 17.0155 22.9748 17.278 22.9748C17.5406 22.9748 17.7542 23.1884 17.7542 23.4506V24.0933H19.3337C19.7339 19.3334 21.3285 19.3334 21.3285 19.3334H23.5751C24.35 17.8857 24.7799 16.2772 24.8316 14.636C24.8362 10.6047 21.3663 7.3253 15.8877 7.3253ZM12.0088 16.3682C10.9412 16.3682 10.0765 15.5038 10.0765 14.4362C10.0765 13.3687 10.9416 12.5039 12.0088 12.5039C13.076 12.5039 13.9411 13.3691 13.9411 14.4362C13.9411 15.5034 13.076 16.3682 12.0088 16.3682ZM17.0494 19.4764C16.8065 19.8624 15.0025 19.8381 14.7172 19.4764C14.4312 19.1148 15.4883 16.7919 15.8831 16.7919C16.2787 16.7923 17.3162 19.0955 17.0494 19.4764ZM19.8388 16.3682C18.7704 16.3682 17.9061 15.5038 17.9061 14.4362C17.9061 13.3687 18.7704 12.5039 19.8388 12.5039C20.9056 12.5039 21.7711 13.3691 21.7711 14.4362C21.7711 15.5034 20.9056 16.3682 19.8388 16.3682Z" fill="white"/>
</svg>
