<svg width="32" height="32" viewBox="0 0 32 32" fill="none" xmlns="http://www.w3.org/2000/svg">
<path d="M16 32C24.8366 32 32 24.8366 32 16C32 7.16344 24.8366 0 16 0C7.16344 0 0 7.16344 0 16C0 24.8366 7.16344 32 16 32Z" fill="#2667BF"/>
<path d="M26.23 17.7254L23.0924 14.5902L24.6139 13.0687C24.7506 12.9321 24.8177 12.7403 24.7958 12.548C24.4686 9.64838 22.2139 7.40284 19.3127 7.0875C19.1224 7.06764 18.9306 7.13396 18.7948 7.26979L17.3066 8.75795L14.1349 5.58385C14.0157 5.4647 13.8541 5.39758 13.6857 5.39758C13.5173 5.39758 13.3557 5.46431 13.2365 5.58385L9.84716 8.97281C9.72801 9.09196 9.66089 9.2536 9.66089 9.422C9.66089 9.59039 9.72761 9.75243 9.84716 9.87118L13.0205 13.0441L11.5204 14.5442C11.3838 14.6808 11.3166 14.8726 11.3385 15.0648C11.6654 17.9653 13.92 20.2108 16.8217 20.5258C16.8447 20.5282 16.8673 20.5294 16.8904 20.5294C17.058 20.5294 17.22 20.463 17.34 20.3435L18.8515 18.8315L21.9895 21.9671C22.1138 22.0914 22.2763 22.1529 22.4387 22.1529C22.6011 22.1529 22.764 22.091 22.8883 21.9671L26.2312 18.6242C26.3503 18.5046 26.417 18.343 26.417 18.1746C26.4162 18.0062 26.3495 17.8442 26.23 17.7254ZM11.1947 9.42239L13.6853 6.93221L16.4078 9.65712L13.9184 12.1461L11.1947 9.42239ZM16.6636 19.2215C14.5992 18.874 12.9998 17.2818 12.6432 15.2185L14.3513 13.5104C14.3573 13.5048 14.364 13.5012 14.37 13.4953C14.376 13.4893 14.3795 13.4826 14.3851 13.477L19.4699 8.39216C21.5344 8.73968 23.1333 10.3319 23.4904 12.3947L16.6636 19.2215ZM22.4379 20.6191L19.7495 17.9331L22.1936 15.489L24.8816 18.175L22.4379 20.6191Z" fill="white"/>
<path d="M15.6108 24.3949C16.232 24.3949 16.8634 24.323 17.4933 24.1729C17.8349 24.0915 18.0458 23.7491 17.9648 23.4076C17.8837 23.066 17.5414 22.8547 17.1994 22.9361C13.519 23.8111 9.81268 21.531 8.93694 17.8505C8.68435 16.7885 8.68991 15.6673 8.95283 14.6073C9.03742 14.267 8.82971 13.9222 8.48934 13.8376C8.15017 13.753 7.80424 13.9603 7.71965 14.3011C7.40788 15.5569 7.40153 16.8854 7.70059 18.144C8.58824 21.8769 11.9315 24.3949 15.6108 24.3949Z" fill="white"/>
<path d="M17.2323 25.0721C16.1361 25.2722 15.0265 25.2667 13.9339 25.0574C9.08575 24.1256 5.89934 19.4229 6.83068 14.5747C6.897 14.23 6.67102 13.8972 6.32629 13.8309C5.98274 13.7649 5.64873 13.9901 5.58241 14.3352C4.51881 19.8713 8.15759 25.2416 13.694 26.3056C14.3326 26.4283 14.9768 26.4895 15.6214 26.4895C16.2354 26.4895 16.8498 26.4339 17.4602 26.3227C17.8054 26.26 18.0341 25.9287 17.9714 25.5836C17.9086 25.2377 17.5738 25.0097 17.2323 25.0721Z" fill="white"/>
</svg>
