<svg width="32" height="32" viewBox="0 0 32 32" fill="none" xmlns="http://www.w3.org/2000/svg">
<path d="M16 32C24.8366 32 32 24.8366 32 16C32 7.16344 24.8366 0 16 0C7.16344 0 0 7.16344 0 16C0 24.8366 7.16344 32 16 32Z" fill="#2667BF"/>
<path d="M22.0728 14.6153H21.3273V12.8189C22.2788 12.478 22.9627 11.5693 22.9627 10.5013C22.9627 9.17348 21.9063 8.08752 20.5902 8.04007C20.2539 6.76972 19.1092 5.87273 17.7752 5.87273C17.4726 5.87273 17.1733 5.92185 16.8819 6.01966C16.0903 5.13142 14.9693 4.62653 13.7727 4.62653C11.7456 4.62653 10.0303 6.07627 9.67484 8.04215C8.36911 8.10126 7.3252 9.18222 7.3252 10.5025C7.3252 11.5697 8.00907 12.4784 8.96058 12.8193V23.7255C8.96058 25.4699 10.3799 26.8897 12.1244 26.8897H18.1648C19.9084 26.8897 21.3278 25.4707 21.3278 23.7259V22.0201H22.0732C23.2657 22.0201 24.236 21.0499 24.236 19.857V16.7798C24.236 15.586 23.2657 14.6153 22.0728 14.6153ZM22.0728 20.7394H21.3273V15.8953H22.0728C22.5598 15.8953 22.9556 16.2919 22.9556 16.7793V19.8566C22.9556 20.3436 22.5598 20.7394 22.0728 20.7394ZM18.1648 25.6093H12.1244C11.0859 25.6093 10.2409 24.7644 10.2409 23.7255V12.965H20.0491V23.7255C20.0487 24.7644 19.2037 25.6093 18.1648 25.6093ZM9.78806 9.31833H10.2497C10.5964 9.31833 10.8773 9.04694 10.8894 8.6998C10.941 7.13309 12.2072 5.90603 13.7727 5.90603C14.7254 5.90603 15.6166 6.37638 16.1565 7.16389C16.3363 7.42654 16.7175 7.5152 16.9923 7.36327C17.2466 7.22383 17.51 7.15266 17.7752 7.57389C18.6447 7.57389 19.3615 8.25859 19.4072 9.13185C19.4247 9.47233 19.7053 9.73914 20.0453 9.73914H20.5003C21.1525 9.73914 21.6832 10.2698 21.6832 10.9221C21.6832 11.5743 21.1529 12.105 20.5003 12.105H9.78806C9.13582 12.105 8.60512 11.5743 8.60512 10.9221C8.60512 9.84902 9.13582 9.31833 9.78806 9.31833Z" fill="white"/>
<path d="M12.4203 14.587C12.0673 14.587 11.7805 14.8742 11.7805 15.2272V23.2102C11.7805 23.5631 12.0673 23.8499 12.4203 23.8499C12.7732 23.8499 13.0604 23.5631 13.0604 23.2102V15.2272C13.0609 14.8742 12.7737 14.587 12.4203 14.587Z" fill="white"/>
<path d="M17.8677 14.587C17.5147 14.587 17.2275 14.8742 17.2275 15.2272V23.2102C17.2275 23.5631 17.5147 23.8499 17.8677 23.8499C18.2207 23.8499 18.5079 23.5631 18.5079 23.2102V15.2272C18.5079 14.8742 18.2207 14.587 17.8677 14.587Z" fill="white"/>
<path d="M15.1438 14.587C14.7909 14.587 14.5037 14.8742 14.5037 15.2272V23.2102C14.5037 23.5631 14.7909 23.8499 15.1438 23.8499C15.4968 23.8499 15.784 23.5631 15.784 23.2102V15.2272C15.784 14.8742 15.4968 14.587 15.1438 14.587Z" fill="white"/>
</svg>
