<svg width="32" height="32" viewBox="0 0 32 32" fill="none" xmlns="http://www.w3.org/2000/svg">
<path d="M16 32C24.8366 32 32 24.8366 32 16C32 7.16344 24.8366 0 16 0C7.16344 0 0 7.16344 0 16C0 24.8366 7.16344 32 16 32Z" fill="#2667BF"/>
<path d="M11.9656 21.177C12.6562 21.177 13.216 20.6172 13.216 19.9267C13.216 19.2362 12.6562 18.6764 11.9656 18.6764C11.2751 18.6764 10.7153 19.2362 10.7153 19.9267C10.7153 20.6172 11.2751 21.177 11.9656 21.177Z" fill="white"/>
<path d="M20.3116 21.177C21.0021 21.177 21.5619 20.6172 21.5619 19.9267C21.5619 19.2362 21.0021 18.6764 20.3116 18.6764C19.6211 18.6764 19.0613 19.2362 19.0613 19.9267C19.0613 20.6172 19.6211 21.177 20.3116 21.177Z" fill="white"/>
<path d="M6.45945 15.9811H7.34079V22.5608C7.34079 23.3781 7.85935 24.0698 8.5807 24.3416V25.2927C8.5807 26.0037 9.1594 26.5843 9.87265 26.5843H11.0852C11.7969 26.5843 12.3767 26.0044 12.3767 25.2927V24.4688H19.352V25.2927C19.352 26.0037 19.9307 26.5843 20.6435 26.5843H21.8561C22.5682 26.5843 23.148 26.0044 23.148 25.2927V24.3416C23.8705 24.0698 24.3879 23.3781 24.3879 22.5608V15.9811H25.27C25.6444 15.9811 25.9459 15.6785 25.9459 15.3045V10.5874C25.9459 10.2134 25.6444 9.91113 25.27 9.91113H24.3879V7.9198C24.3879 6.52876 23.256 5.39758 21.8661 5.39758H9.86378C8.47275 5.39758 7.34156 6.52953 7.34156 7.9198V9.91113H6.45945C6.08624 9.91113 5.7832 10.2134 5.7832 10.5874V15.3056C5.78282 15.6785 6.08624 15.9811 6.45945 15.9811ZM11.0243 25.2326H9.93356V24.4692H11.0243V25.2326ZM21.7932 25.2326H20.7025V24.4692H21.7932V25.2326ZM16.8147 6.74968H21.8634C22.5092 6.74968 23.0335 7.27479 23.0335 7.9198V10.5866V15.2443H16.8147V6.74968V6.74968ZM8.69251 10.5874V7.9198C8.69251 7.27479 9.21684 6.74968 9.86263 6.74968H15.4619V15.2443H8.69251V10.5874ZM8.69251 16.596H23.0324V22.5608C23.0324 22.8669 22.7833 23.1167 22.4783 23.1167H9.24846C8.94234 23.1167 8.69366 22.8669 8.69366 22.5608V16.596H8.69251Z" fill="white"/>
</svg>
