<svg width="32" height="32" viewBox="0 0 32 32" fill="none" xmlns="http://www.w3.org/2000/svg">
<path d="M16 32C24.8366 32 32 24.8366 32 16C32 7.16344 24.8366 0 16 0C7.16344 0 0 7.16344 0 16C0 24.8366 7.16344 32 16 32Z" fill="#2667BF"/>
<path d="M4.92969 7.24471L8.05643 13.1296C8.17557 13.354 8.39109 13.5113 8.6413 13.5549C8.89113 13.5984 9.1479 13.5263 9.33605 13.3575L10.9769 11.8855L14.7067 15.2301C14.9014 15.4043 15.1651 15.4787 15.4249 15.4236L19.1261 14.6602L23.3844 23.2559L22.1954 22.8461C21.7636 22.6984 21.294 22.9266 21.1456 23.3569C21.2944 23.7883 21.2262 24.2579 21.6564 24.4071L24.7481 25.4735C24.7489 25.4739 24.7496 25.4739 24.7504 25.4739C24.7789 25.4839 24.8075 25.4886 24.8364 25.4955C24.8607 25.5009 24.883 25.5078 24.9066 25.5113C24.9216 25.5136 24.9374 25.5121 24.9524 25.5136C24.9902 25.5167 25.0265 25.5194 25.0639 25.5175C25.0797 25.5167 25.0947 25.5128 25.1097 25.5105C25.1467 25.5067 25.1834 25.5024 25.2188 25.4932C25.2354 25.4889 25.2516 25.482 25.2682 25.4766C25.3033 25.4654 25.3372 25.4542 25.3696 25.4384C25.375 25.4357 25.3792 25.435 25.3839 25.4327C25.3981 25.4257 25.4093 25.4168 25.4216 25.4088C25.4502 25.3926 25.4799 25.376 25.5061 25.3563C25.5257 25.3421 25.5435 25.3266 25.5608 25.3108C25.5816 25.2931 25.6017 25.2734 25.6214 25.2534C25.6399 25.2333 25.6564 25.2133 25.6722 25.1925C25.6873 25.172 25.7015 25.1524 25.7147 25.1308C25.7305 25.1065 25.7432 25.0803 25.7559 25.0544C25.7628 25.0421 25.7709 25.0313 25.7763 25.0178L26.9661 22.2477C27.1469 21.829 26.9534 21.3436 26.5339 21.1635C26.4279 21.1181 26.3169 21.0965 26.2085 21.0965C25.8878 21.0965 25.5843 21.2831 25.4494 21.5957L24.9644 22.7254L20.3225 13.3555C20.1559 13.019 19.7827 12.8374 19.4149 12.9137L15.4982 13.723L11.5275 10.1629C11.2148 9.88181 10.739 9.88181 10.4264 10.1629L9.0199 11.424L6.51851 6.6394" fill="white"/>
</svg>
