<svg width="32" height="32" viewBox="0 0 32 32" fill="none" xmlns="http://www.w3.org/2000/svg">
<path d="M16 32C24.8366 32 32 24.8366 32 16C32 7.16344 24.8366 0 16 0C7.16344 0 0 7.16344 0 16C0 24.8366 7.16344 32 16 32Z" fill="#2667BF"/>
<path d="M24.3266 15.3554L21.2489 15.0068L20.9431 15.3777H20.7931C20.4354 14.5951 19.6454 14.0796 18.7756 14.0796C18.0273 14.0796 17.3406 14.4621 16.935 15.0678L16.6435 14.4833L2.5061 12.8794L2.79256 10.3611L18.1957 12.1083L18.2162 11.9202L17.6972 11.8612L17.8087 10.8773L18.3276 10.9367L18.3623 10.6302L17.4578 10.528L17.6016 9.25186L18.8176 9.39104L18.8554 9.06024L20.3675 9.23027L20.3297 9.56183L20.7449 9.61002L20.7153 9.86487L21.4277 9.9466L21.3691 10.4702L20.8209 10.4089L20.7207 11.2918L21.2685 11.3534L21.2095 11.8789L20.6601 11.8157L20.5969 12.3794L24.6142 12.8366L24.3266 15.3554Z" fill="white"/>
<path d="M10.9051 22.4424L16.6041 18.2685H16.5085V17.3725H17.1262C17.0448 17.2484 16.9777 17.1142 16.9257 16.9704H15.8658V15.6276H16.9253C17.2002 14.8719 17.9242 14.3298 18.7751 14.3298C19.6272 14.3298 20.3508 14.8719 20.625 15.6276H21.6852V16.9704H20.625C20.5729 17.1142 20.5066 17.2476 20.4249 17.3725H21.0425V18.2685L27.2802 22.9795H28.1157V23.4734H26.8029L19.8631 18.8704L17.2395 25.0841H16.2988V24.5922H16.7614L18.2072 18.4671L11.3827 22.9348H10.0696V22.4424H10.9051Z" fill="white"/>
</svg>
