<svg width="32" height="32" viewBox="0 0 32 32" fill="none" xmlns="http://www.w3.org/2000/svg">
<path d="M16 32C24.8366 32 32 24.8366 32 16C32 7.16344 24.8366 0 16 0C7.16344 0 0 7.16344 0 16C0 24.8366 7.16344 32 16 32Z" fill="#2667BF"/>
<path d="M25.8264 9.31201L23.5382 7.0242V5.98555C23.5382 5.7176 23.4352 5.499 23.2563 5.35789C23.1083 5.20945 22.9009 5.12463 22.6869 5.12463C22.6422 5.12463 22.5975 5.1281 22.5631 5.13427C18.8376 5.61389 15.7957 8.85514 15.3863 12.7302H12.2048C9.14819 12.7302 6.66183 15.217 6.66183 18.2732L6.66222 22.6907C6.65759 22.7659 6.65759 22.7659 6.71504 23.6195C6.71889 23.6738 6.73779 23.7259 6.77017 23.7702C7.66386 24.9974 9.02829 25.7376 11.064 26.1001C11.0809 26.1031 11.0979 26.1047 11.1145 26.1047C11.1175 26.1047 11.1199 26.1047 11.1222 26.1047C11.2818 26.1047 11.4113 25.9751 11.4113 25.8155C11.4113 25.7465 11.387 25.6837 11.3469 25.6339C11.1627 25.253 11.0562 24.8432 11.03 24.4152C11.0293 24.4021 11.0277 24.3894 11.025 24.3763L11.0196 24.2144C11.0196 22.4139 12.4843 20.9492 14.2848 20.9492C16.0849 20.9492 17.5495 22.4139 17.5495 24.2144C17.5495 24.6917 17.4454 25.1559 17.24 25.595C17.1929 25.6956 17.208 25.8144 17.2781 25.9003C17.3487 25.9867 17.4624 26.0256 17.5704 25.9983C18.4856 25.7766 19.8084 25.3324 20.9261 24.4777C20.9597 24.465 20.9913 24.4453 21.0187 24.4191C21.7107 23.7683 21.7658 23.6696 21.7601 23.0998L21.7589 16.1831C21.7589 14.9853 22.0272 13.8622 22.5574 12.8397C22.9903 13.2118 23.5405 13.4146 24.1246 13.4146C24.7711 13.4146 25.3753 13.1663 25.826 12.7156C26.2813 12.2602 26.5319 11.6561 26.5319 11.0142C26.5319 10.3722 26.2817 9.76733 25.8264 9.31201ZM20.0506 16.1831V23.3754C19.7818 23.5038 19.495 23.6264 19.1923 23.7429C18.9402 21.2122 16.8479 19.2841 14.2667 19.2841C11.7205 19.2841 9.63359 21.157 9.34752 23.6183C9.06145 23.4973 8.75803 23.3562 8.39793 23.1784V18.2732C8.39793 16.1589 10.1182 14.4382 12.2329 14.4382H16.216C16.4388 14.4382 16.652 14.348 16.8159 14.1841C16.9797 14.0202 17.0699 13.807 17.0699 13.5838C17.0699 10.5504 19.0512 7.85697 21.8306 7.03808V7.36926C21.8306 7.5921 21.9208 7.80531 22.0847 7.96916L24.6269 10.5118C24.7654 10.6498 24.8247 10.8002 24.8247 11.0134C24.8247 11.185 24.7472 11.3739 24.6269 11.515C24.3528 11.7887 23.8963 11.788 23.623 11.515L22.9734 10.8661C22.8118 10.7046 22.5728 10.6117 22.3175 10.6117C22.3017 10.6117 22.2859 10.6128 22.2701 10.6155C22.0523 10.6518 21.8564 10.7547 21.6891 10.922C21.6756 10.9355 21.6637 10.9502 21.6529 10.966C20.6046 12.5386 20.0506 14.3426 20.0506 16.1831Z" fill="white"/>
</svg>
