<svg width="32" height="32" viewBox="0 0 32 32" fill="none" xmlns="http://www.w3.org/2000/svg">
<path d="M16 32C24.8366 32 32 24.8366 32 16C32 7.16344 24.8366 0 16 0C7.16344 0 0 7.16344 0 16C0 24.8366 7.16344 32 16 32Z" fill="#2667BF"/>
<path d="M27.6551 11.4371L26.8416 10.7227C26.6176 10.2288 26.3057 9.84132 25.8638 9.50474L25.597 9.30272C25.4432 9.0498 25.3653 8.72286 25.3611 8.30532C25.3588 8.09482 25.2423 7.89857 25.0588 7.79409C24.8788 7.69115 24.6478 7.68961 24.4632 7.79409C23.8428 8.14956 23.3462 8.6126 22.9669 9.18282C22.8215 9.32547 21.6094 9.63043 20.0421 9.78503C18.9788 9.88874 18.0034 9.93925 17.0619 9.93925C15.7939 9.93925 14.7047 9.8498 13.5461 9.75457C12.2021 9.64431 10.8119 9.53057 8.91308 9.5298C8.05024 9.5298 7.20822 9.88527 6.60215 10.506C6.01574 11.1086 5.69959 11.8939 5.71386 12.6955C5.68841 12.9341 5.66489 13.2553 5.63906 13.6065L5.63405 13.6748C5.58162 14.3672 5.4941 15.5258 5.36494 15.8485L4.60889 17.7338C4.54913 17.883 4.55106 18.0457 4.61429 18.1926C4.67713 18.3398 4.79357 18.4536 4.9393 18.5114C5.23656 18.6348 5.60012 18.4809 5.72157 18.1794L6.47646 16.2941C6.51925 16.1881 6.55742 16.0559 6.59251 15.8924C6.64494 16.1981 6.61988 16.5926 6.44022 17.1678C6.41323 17.2553 6.40629 17.3447 6.4194 17.433L7.22441 22.9208C7.26836 23.2123 7.52321 23.4321 7.81776 23.4321H9.6248C9.80176 23.4321 9.9687 23.3546 10.0832 23.2192C10.1969 23.0839 10.2455 22.9073 10.2162 22.7354L9.66142 19.4143C10.03 19.6206 10.4502 19.7316 10.8817 19.7316C12.066 19.7316 13.0715 18.89 13.2921 17.7453C14.7899 17.8988 15.9928 17.856 17.929 17.5803L18.532 18.5519L18.5324 22.8333C18.5324 23.1637 18.8015 23.4332 19.1327 23.4332H20.9381C21.2689 23.4332 21.5384 23.1641 21.5384 22.8333V18.6035C22.6931 17.2838 23.0625 16.3265 23.3609 15.5543C23.5768 14.9949 23.7476 14.5511 24.1755 14.0665C24.1948 14.0711 24.2222 14.08 24.2538 14.0908C24.7041 14.2373 25.1028 14.2774 25.5589 14.2265L26.7344 14.1004C27.1581 14.0557 27.5178 13.8166 27.7214 13.4458L27.9481 13.0394C28.2492 12.4908 28.1281 11.8311 27.6551 11.4371ZM12.1281 17.1605L12.1389 17.2765C12.1389 17.9701 11.5749 18.5341 10.8817 18.5341C10.4121 18.5341 9.97063 18.2716 9.75627 17.8656C9.65217 17.6701 9.44822 17.5483 9.18836 17.5483C9.18759 17.5483 9.18605 17.5483 9.18528 17.5483C8.94817 17.5657 8.74345 17.7195 8.66402 17.94L8.39839 18.6606C8.36369 18.7562 8.35366 18.8611 8.36986 18.9652L8.91617 22.2342H8.334L7.62422 17.3899C8.08455 15.7945 7.60031 15.0111 7.24446 14.4351C7.06827 14.149 6.94104 13.9423 6.93448 13.664L6.91675 12.9627C6.91135 12.766 6.90595 12.5428 6.93448 12.3659C6.99733 11.9842 7.17892 11.6306 7.45921 11.3434C7.84166 10.9525 8.3714 10.7285 8.9127 10.7285C10.7406 10.7285 12.1069 10.8403 13.4478 10.9494C14.6257 11.0458 15.7383 11.1367 17.0719 11.1367C18.0624 11.1367 19.0725 11.0843 20.1597 10.9771C22.3188 10.7647 23.5872 10.398 23.9303 9.88836C24.0526 9.70715 24.184 9.54445 24.329 9.39679C24.4103 9.642 24.5225 9.8633 24.6667 10.0665C24.7037 10.1174 24.7442 10.1598 24.7924 10.1968L25.139 10.459C25.4444 10.6911 25.6452 10.9532 25.7894 11.3087C25.8241 11.3947 25.8789 11.4729 25.949 11.5342L26.8759 12.3473C26.9121 12.3778 26.9198 12.4191 26.8982 12.4592L26.6723 12.8644C26.6553 12.8956 26.6403 12.9052 26.6048 12.9091L25.4293 13.0355C25.1475 13.0664 24.9031 13.0429 24.6208 12.9519L24.514 12.9172C24.0865 12.7803 23.6034 12.9102 23.3042 13.2426C22.7147 13.8984 22.4853 14.4913 22.2405 15.1256C21.9498 15.8774 21.6206 16.7298 20.4936 17.9743C20.3934 18.085 20.3386 18.2276 20.3386 18.3761V22.2353H19.7306L19.7299 18.3807C19.7299 18.2704 19.699 18.1617 19.64 18.0646L18.7382 16.6165C18.6153 16.4179 18.3909 16.3042 18.1399 16.3396C16.7924 16.5444 15.7865 16.6353 14.8805 16.6353C14.2127 16.6353 13.5531 16.586 12.8055 16.48C12.6224 16.4538 12.4443 16.5185 12.302 16.6569C12.1717 16.7846 12.1054 16.9808 12.1281 17.1605Z" fill="white"/>
</svg>
