<svg width="32" height="32" viewBox="0 0 32 32" fill="none" xmlns="http://www.w3.org/2000/svg">
<path d="M16 32C24.8366 32 32 24.8366 32 16C32 7.16344 24.8366 0 16 0C7.16344 0 0 7.16344 0 16C0 24.8366 7.16344 32 16 32Z" fill="#2667BF"/>
<path d="M19.1835 10.9062C18.5312 10.6568 17.5018 10.5134 16.3598 10.5134C15.2093 10.5134 14.0874 10.6591 13.2824 10.9136C12.5159 11.1565 11.8505 12.652 11.5563 13.9385C11.443 14.4297 11.5883 14.9344 11.9453 15.2887L12.6004 15.9422C12.9204 15.5162 13.272 15.1133 13.649 14.7405C13.7404 14.6483 13.762 14.5041 13.6999 14.385C13.4617 13.9401 13.235 13.7812 12.8355 13.7812L12.7553 13.7793C12.4997 13.7504 12.3004 13.5514 12.2707 13.2954C12.2356 12.9939 12.4527 12.7202 12.7542 12.6851L12.7951 12.6824H12.7954C13.9139 12.6824 14.402 13.3591 14.6746 13.8684C14.9614 14.417 14.8631 15.0778 14.4313 15.5158C13.4378 16.519 12.4608 17.8795 12.6956 18.6896C12.8209 19.148 13.3926 19.4132 13.9124 19.5624C14.4479 19.1649 15.0636 18.902 15.7179 18.789V18.5315L14.9919 17.9455C14.8612 17.8387 14.7764 17.6902 14.7505 17.5252C14.7224 17.3475 14.7652 17.169 14.8716 17.0221C14.978 16.876 15.1349 16.7804 15.3134 16.7518C15.9993 16.6616 16.6748 16.6632 17.3418 16.7511C17.5272 16.7773 17.6922 16.8775 17.799 17.0267C18.0153 17.3309 17.944 17.7527 17.6417 17.9678L16.8255 18.5612V18.784C17.4694 18.8893 18.0805 19.1618 18.5894 19.5717C19.2822 19.3735 19.6882 19.0817 19.7977 18.7027C20.0305 17.8888 19.054 16.5294 18.0631 15.5289C17.6305 15.0898 17.5318 14.4289 17.8164 13.8838C18.0905 13.3706 18.5809 12.6928 19.6943 12.6928L19.7387 12.6955C19.9931 12.7248 20.1925 12.9234 20.2225 13.1786C20.2395 13.3255 20.1982 13.4697 20.1065 13.5854C20.0155 13.7003 19.8848 13.7727 19.7387 13.7897L19.6943 13.7924C19.2433 13.7924 19.0289 13.9397 18.7856 14.3981C18.7251 14.5145 18.7467 14.6587 18.8415 14.7543C19.217 15.1245 19.5687 15.527 19.889 15.953L20.5522 15.2895C20.9088 14.9344 21.0545 14.4301 20.9423 13.9405C20.6482 12.6516 19.9908 11.2135 19.1835 10.9062Z" fill="white"/>
<path d="M14.6028 20.4284V20.6447C14.6028 20.6612 14.6043 20.6786 14.6063 20.6959C14.6305 20.9014 14.8256 21.0576 15.0411 21.0325L15.9568 20.9172L16.5509 20.9203L17.4654 21.0356C17.4758 21.0364 17.4917 21.0379 17.5071 21.0379C17.7241 21.0379 17.9003 20.8625 17.9007 20.6462L17.9042 20.4249C17.3872 20.0305 16.8451 19.83 16.2895 19.83C15.5157 19.83 14.8842 20.2206 14.6028 20.4284Z" fill="white"/>
<path d="M21.2542 7.82576C21.8039 7.66768 22.3695 7.57168 22.9401 7.53891L23.3291 7.51077L23.0381 7.25207C20.4572 4.95154 16.5617 6.32446 16.0011 6.53959C15.4425 6.32253 11.5474 4.95154 8.96423 7.25438L8.67314 7.5127L9.06215 7.53891C9.63276 7.5713 10.1983 7.6673 10.7481 7.82576C9.64008 8.24484 6.32018 9.97438 6.60047 15.5948L6.61589 15.9314L6.87651 15.7143C7.04153 15.5667 7.5088 15.2343 7.89126 15.2343C7.75863 16.1747 7.28904 20.8247 10.3699 23.232L10.774 23.5354L10.6348 23.0512C10.6348 23.0512 10.3892 22.1695 10.7801 21.6972C11.291 22.432 13.4743 25.3409 16.0011 25.4909C18.5168 25.3409 20.7005 22.4343 21.2152 21.6995C21.6038 22.1718 21.3629 23.045 21.3609 23.0535L21.2302 23.5354L21.6254 23.2274C24.7086 20.8224 24.2329 16.1708 24.1045 15.2297C24.4738 15.2297 24.9631 15.562 25.1254 15.7143L25.3818 15.9314L25.3991 15.5902C25.6821 9.9767 22.3622 8.24523 21.2542 7.82576ZM21.3193 16.0686L20.4881 16.8999C20.9064 17.6956 21.0232 18.3858 20.8451 18.9999C20.6311 19.7371 20.0089 20.2703 18.9937 20.5857V20.6458C18.9891 21.4612 18.324 22.1263 17.5105 22.1309C17.4978 22.134 17.4064 22.1348 17.3417 22.1294L16.4507 22.0179H16.0258L15.1815 22.1271C15.1179 22.1367 15.0496 22.1406 14.981 22.1406H14.9802C14.5816 22.1398 14.2076 21.9833 13.9265 21.7006C13.6455 21.418 13.4916 21.0433 13.4928 20.645V20.5857C12.2375 20.192 11.7914 19.5158 11.6418 18.9999C11.4668 18.3973 11.5867 17.6926 11.9992 16.9006L11.1661 16.0675C10.5403 15.4429 10.2855 14.5558 10.4852 13.6941C10.6595 12.9253 11.3542 10.3734 12.9519 9.86797C13.8818 9.57226 15.0943 9.40956 16.3662 9.40956C17.6462 9.40956 18.7863 9.57496 19.5751 9.8753C20.8486 10.3595 21.6663 12.1662 22.0067 13.6953C22.2049 14.5562 21.9485 15.4445 21.3193 16.0686Z" fill="white"/>
</svg>
