<svg width="32" height="32" viewBox="0 0 32 32" fill="none" xmlns="http://www.w3.org/2000/svg">
<path d="M16 32C24.8366 32 32 24.8366 32 16C32 7.16344 24.8366 0 16 0C7.16344 0 0 7.16344 0 16C0 24.8366 7.16344 32 16 32Z" fill="#2667BF"/>
<path fill-rule="evenodd" clip-rule="evenodd" d="M27.1932 17.2576C27.8039 16.7888 28.5638 16.2062 29.9884 16.2062C30.4017 16.2062 30.7355 16.5409 30.7355 16.9534C30.7355 17.3659 30.4017 17.7006 29.9884 17.7006C29.0716 17.7006 28.6436 18.0286 28.102 18.4438L28.1017 18.4441C27.4906 18.9125 26.7303 19.4953 25.3071 19.4953C23.8833 19.4953 23.1222 18.9123 22.5115 18.4439C21.9699 18.0287 21.5418 17.7006 20.6251 17.7006C19.7086 17.7006 19.2803 18.0287 18.7398 18.4439C18.1287 18.9123 17.3676 19.4953 15.9446 19.4953C14.5212 19.4953 13.7601 18.9123 13.149 18.4439C12.6081 18.0287 12.1802 17.7006 11.2637 17.7006C10.3478 17.7006 9.92061 18.0283 9.37976 18.4432L9.37881 18.4439C8.76811 18.9123 8.00782 19.4953 6.5844 19.4953C5.16098 19.4953 4.4003 18.9123 3.78961 18.4439L3.78866 18.4432C3.24781 18.0283 2.82059 17.7006 1.9043 17.7006C1.49139 17.7006 1.15674 17.3659 1.15674 16.9534C1.15674 16.5409 1.49139 16.2062 1.9043 16.2062C3.32811 16.2062 4.08879 16.7888 4.69949 17.2576L4.70167 17.2593C5.24232 17.6733 5.66958 18.0005 6.58479 18.0005C7.50029 18.0005 7.9279 17.6728 8.46874 17.2583L8.4697 17.2576C9.03298 16.825 9.73042 16.3014 10.9518 16.2224C11.3509 15.3572 12.5044 11.9645 7.98238 8.68929C7.72676 8.505 7.61534 8.17961 7.70209 7.87696C7.78961 7.57508 8.05717 7.35917 8.37139 7.33874C8.50633 7.3291 21.8816 6.57961 24.4416 17.8347C24.4434 17.8428 24.444 17.8507 24.4446 17.8584C24.445 17.8637 24.4454 17.8689 24.4462 17.8741C24.6852 17.9539 24.9613 18.0005 25.3067 18.0005C26.2231 18.0005 26.6515 17.6724 27.1932 17.2576ZM17.8311 17.2576C18.4418 16.7888 19.202 16.2062 20.6255 16.2062C21.459 16.2062 22.0624 16.4075 22.5428 16.6677C20.2661 10.3652 13.8025 9.08679 10.4795 8.85816C13.4868 11.907 12.9721 14.9655 12.484 16.3797C13.1741 16.5875 13.6522 16.9457 14.0589 17.2576C14.6001 17.6723 15.0283 18.0005 15.9446 18.0005C16.861 18.0005 17.2889 17.6728 17.8302 17.2582L17.8311 17.2576Z" fill="white"/>
<path d="M19.0861 23.7958C19.4169 24.1339 19.9166 24.6446 20.8444 24.6446C21.7719 24.6446 22.2716 24.1339 22.602 23.7961C22.8885 23.5035 22.9919 23.4109 23.2583 23.4109C23.684 23.4109 24.0294 23.0658 24.0294 22.6398C24.0294 22.2138 23.684 21.8687 23.2583 21.8687C22.3299 21.8687 21.8307 22.3792 21.5002 22.7173C21.2138 23.0099 21.1105 23.1024 20.8444 23.1024C20.578 23.1024 20.4747 23.0099 20.1886 22.7173L20.1883 22.7169C19.8571 22.3788 19.3575 21.8687 18.4298 21.8687C17.5027 21.8687 17.0034 22.379 16.6726 22.7172C16.3865 23.0098 16.2831 23.1024 16.0175 23.1024C15.751 23.1024 15.6477 23.0099 15.3616 22.7173C15.0308 22.3792 14.5314 21.8687 13.604 21.8687C12.6763 21.8687 12.1771 22.3792 11.8467 22.7173C11.5606 23.0099 11.4573 23.1024 11.1916 23.1024C10.926 23.1024 10.8227 23.0099 10.537 22.7173C10.2066 22.3792 9.70728 21.8687 8.77967 21.8687C8.35364 21.8687 8.00858 22.2138 8.00858 22.6398C8.00858 23.0658 8.35364 23.4109 8.77967 23.4109C9.04531 23.4109 9.14825 23.5034 9.43355 23.7956C9.76435 24.1338 10.2641 24.6446 11.1912 24.6446C12.1192 24.6446 12.6185 24.1338 12.9489 23.7956C13.235 23.5034 13.3383 23.4109 13.604 23.4109C13.8704 23.4109 13.9729 23.5034 14.259 23.7956L14.2602 23.7968C14.5913 24.135 15.0905 24.6446 16.0175 24.6446C16.945 24.6446 17.4442 24.1343 17.775 23.7962L17.7755 23.7956C18.0612 23.5034 18.1645 23.4109 18.4298 23.4109C18.6962 23.4109 18.8 23.5035 19.0861 23.7958Z" fill="white"/>
</svg>
