<svg width="32" height="32" viewBox="0 0 32 32" fill="none" xmlns="http://www.w3.org/2000/svg">
<path d="M16 32C24.8366 32 32 24.8366 32 16C32 7.16344 24.8366 0 16 0C7.16344 0 0 7.16344 0 16C0 24.8366 7.16344 32 16 32Z" fill="#2667BF"/>
<path d="M25.1158 15.2983L24.6608 14.8433L22.9433 5.24297C22.9182 5.14195 22.8673 5.066 22.7663 5.04094C22.6649 5.01588 22.5889 5.04094 22.5138 5.11689L18.7493 8.93183L18.6479 8.83043C18.5978 8.77993 18.5469 8.75487 18.4713 8.75487H15.9194H13.2669C13.191 8.75487 13.1405 8.77993 13.0903 8.83043L12.9893 8.93183L9.22489 5.11689C9.14894 5.04094 9.04793 5.01588 8.97236 5.04094C8.87096 5.066 8.82084 5.14195 8.7954 5.24297L7.07703 14.8433L6.62209 15.2983C6.57159 15.3488 6.54614 15.3993 6.54614 15.4749V18.5064C6.54614 18.5823 6.59665 18.6583 6.64715 18.7088L12.0787 22.3626L13.6127 19.1965L13.3641 18.1794L11.6029 17.1524C11.4209 17.0433 10.9529 16.8555 10.9895 16.6361C11.0315 16.426 11.2239 15.5057 11.4483 15.5057H13.4003C13.6046 15.5057 13.7685 16.409 13.8082 16.606L14.4351 19.1383C14.4787 19.2493 14.4332 19.3712 14.4008 19.4359L13.0167 24.1542L13.2658 26.2874C13.2658 26.3125 13.2908 26.3125 13.3163 26.3379C13.3163 26.3379 13.3163 26.3633 13.3417 26.3633C13.3668 26.3884 13.3922 26.3884 13.4177 26.4139L15.6658 27.1714C15.7166 27.2223 15.7675 27.2474 15.8431 27.2474C15.8682 27.2474 15.8682 27.2474 15.8936 27.2474C15.9191 27.2474 15.9187 27.2474 15.9445 27.2474C16.0201 27.2474 16.071 27.2223 16.1211 27.1714L18.3696 26.4139C18.3946 26.4139 18.4205 26.3888 18.4451 26.3633L18.4706 26.3379C18.4956 26.3128 18.4956 26.3128 18.5211 26.2874L18.7867 24.1187L17.4169 19.4305C17.3868 19.3708 17.3417 19.2489 17.3853 19.1379L18.0133 16.5987C18.0519 16.4087 18.215 15.5053 18.4201 15.5053H20.3721C20.5961 15.5053 20.7888 16.4256 20.8301 16.6307C20.8679 16.8551 20.3994 17.0425 20.219 17.1508L18.4567 18.1791L18.208 19.1961L19.7344 22.3452L25.1401 18.7084C25.2156 18.6575 25.2415 18.582 25.2415 18.506V15.4745C25.1913 15.4244 25.1659 15.3488 25.1158 15.2983Z" fill="white"/>
</svg>
