<svg width="32" height="32" viewBox="0 0 32 32" fill="none" xmlns="http://www.w3.org/2000/svg">
<path d="M16 32C24.8366 32 32 24.8366 32 16C32 7.16344 24.8366 0 16 0C7.16344 0 0 7.16344 0 16C0 24.8366 7.16344 32 16 32Z" fill="#2667BF"/>
<path d="M27.7761 12.6037C27.7525 12.5737 27.1997 11.8747 26.9144 11.5516C26.7868 11.4039 26.7019 11.2239 26.668 11.0315C26.6329 10.8923 26.5905 10.7551 26.5408 10.6205C26.3873 10.2115 25.6791 9.58225 25.3633 9.31314C25.5091 9.02669 25.5569 8.70052 25.5002 8.38437C25.4516 8.21589 25.3356 8.07555 25.1798 7.99652C24.7149 7.75247 24.2622 8.03816 24.0182 8.29146C21.7959 7.95334 19.5243 8.35353 17.5515 9.43189C17.2423 9.43189 15.6939 9.48047 12.7472 9.29695C10.5994 9.1624 8.40488 9.90996 7.0258 11.2428C5.94936 12.2664 5.36912 13.7064 5.43544 15.1903C5.54686 18.9798 5.159 21.1998 5.15438 21.2272L5.13818 21.3205L5.7165 22.1637L9.08845 22.1378V21.9057C9.11621 21.0278 8.60536 20.6307 8.26647 20.369C8.13423 20.266 7.99968 20.1596 7.98541 20.1037C8.01356 19.9198 8.70291 19.3839 9.46242 18.9559L9.50175 18.9286L9.56922 18.8684L10.3122 20.313C10.2308 20.6261 10.0454 21.5595 10.5446 22.0615L10.6117 22.1286H14.2435L14.2948 21.9663C14.3839 21.6262 14.3372 21.2661 14.1645 20.9604C13.9324 20.5401 13.4678 20.241 12.8109 20.0759C12.8413 19.8442 12.9111 19.6198 13.0175 19.4117C13.2897 18.8044 13.5179 18.1779 13.7003 17.5379C14.4537 17.5194 15.2043 17.4496 15.948 17.329L15.4441 21.3135L15.795 22.1378H19.51L19.5239 21.9223C19.5775 21.1211 18.9973 20.5286 18.5369 20.2969C18.717 19.6117 18.8353 18.9124 18.8901 18.2064L19.0593 18.0599L20.3898 20.401C20.3247 20.6863 20.1894 21.5175 20.6219 22.0657L20.6917 22.1536H24.3397V21.9219C24.3085 21.0039 23.6431 20.2309 22.7401 20.064C22.3268 19.1051 21.5927 15.2108 21.6926 14.7975C21.846 14.4694 21.979 14.1324 22.0897 13.7877C22.4236 13.7584 22.7428 13.6432 23.0185 13.4531L24.2191 13.9639H24.2603C24.8575 13.9963 26.838 14.0707 27.2791 13.6551C27.5386 13.4265 27.7263 13.1285 27.8208 12.7957L27.8435 12.689L27.7761 12.6037ZM25.5264 11.5273C25.1629 11.5273 24.8679 11.2324 24.8679 10.8688C24.8679 10.5052 25.1629 10.2103 25.5264 10.2103C25.89 10.2103 26.1849 10.5052 26.1849 10.8688C26.1849 11.2324 25.89 11.5273 25.5264 11.5273Z" fill="white"/>
</svg>
