<svg width="32" height="32" viewBox="0 0 32 32" fill="none" xmlns="http://www.w3.org/2000/svg">
<path d="M16 32C24.8366 32 32 24.8366 32 16C32 7.16344 24.8366 0 16 0C7.16344 0 0 7.16344 0 16C0 24.8366 7.16344 32 16 32Z" fill="#2667BF"/>
<path d="M27.3466 12.0802C27.7056 12.0802 27.9963 11.7895 27.9963 11.4305C27.9963 11.072 27.7056 10.7809 27.3466 10.7809H19.4931V10.2496H27.3463C27.7052 10.2496 27.9959 9.9589 27.9959 9.59996C27.9959 9.24102 27.7052 8.95032 27.3463 8.95032H19.4931V8.71399C19.4931 8.19235 19.0698 7.76941 18.5486 7.76941H16.4821C15.96 7.76941 15.5375 8.19235 15.5375 8.71399V9.59996H8.80592C8.6756 9.59996 8.56958 9.7056 8.56958 9.8363V12.4341C8.56958 12.5648 8.67522 12.6704 8.80592 12.6704H15.5371V14.0873C15.5371 14.6093 15.96 15.0323 16.4817 15.0323H18.5482C19.0698 15.0323 19.4928 14.6089 19.4928 14.0873V13.9693H27.3459C27.7048 13.9693 27.9955 13.6782 27.9955 13.3197C27.9955 12.9607 27.7048 12.67 27.3459 12.67H19.4931V12.0794H27.3466V12.0802Z" fill="white"/>
<path d="M5.82667 12.3751H7.50686C7.63718 12.3751 7.7432 12.2695 7.7432 12.1392V9.83631C7.7432 9.706 7.63756 9.59998 7.50686 9.59998H5.82667C5.69636 9.59998 5.59033 9.70561 5.59033 9.83631V12.1392C5.59033 12.2695 5.69597 12.3751 5.82667 12.3751Z" fill="white"/>
<path d="M9.60301 8.95035C9.97815 8.95035 10.282 8.64616 10.282 8.27141V7.9171C10.282 7.54197 9.97776 7.23816 9.60301 7.23816C9.22827 7.23816 8.92407 7.54235 8.92407 7.9171V8.27141C8.92369 8.64654 9.22788 8.95035 9.60301 8.95035Z" fill="white"/>
<path d="M13.7803 8.95035H13.8097C14.1439 8.95035 14.415 8.67931 14.415 8.34505C14.415 8.01078 14.1439 7.73975 13.8097 7.73975H13.7803C13.4461 7.73975 13.175 8.01078 13.175 8.34505C13.175 8.67931 13.4461 8.95035 13.7803 8.95035Z" fill="white"/>
<path d="M18.0661 24.1257L13.5884 15.8589H14.2966C14.688 15.8589 15.0053 15.5419 15.0053 15.1502V14.0287C15.0053 13.637 14.688 13.3201 14.2966 13.3201H9.78002C9.38869 13.3201 9.07139 13.637 9.07139 14.0287V15.1502C9.07139 15.5419 9.38869 15.8589 9.78002 15.8589H11.0037L6.52643 24.1253H6.26927C5.89414 24.1253 5.59033 24.4291 5.59033 24.8042C5.59033 25.1797 5.89452 25.4835 6.26927 25.4835H8.12913C8.50426 25.4835 8.80807 25.1797 8.80807 24.8042C8.80807 24.4322 8.5085 24.1311 8.13722 24.126L11.4328 18.0414V25.1292H11.2559C10.8807 25.1292 10.5769 25.433 10.5769 25.8082C10.5769 26.1837 10.8811 26.4875 11.2559 26.4875H13.1157C13.4909 26.4875 13.7947 26.1837 13.7947 25.8082C13.7947 25.433 13.4909 25.1292 13.1157 25.1292H12.8501V17.4716L16.4538 24.1253H16.2012C15.8261 24.1253 15.5219 24.4291 15.5219 24.8042C15.5219 25.1797 15.8261 25.4835 16.2012 25.4835H18.0611C18.4362 25.4835 18.74 25.1797 18.74 24.8042C18.74 24.431 18.4389 24.1287 18.0661 24.1257Z" fill="white"/>
</svg>
