<svg width="24" height="24" viewBox="0 0 24 24" fill="none" xmlns="http://www.w3.org/2000/svg">
<circle cx="12" cy="12" r="12" fill="#32A562"/>
<path fill-rule="evenodd" clip-rule="evenodd" d="M19 12H20V14H19V17H17V14H7V17H5V14H4V12H5C5 8.13401 8.13401 5 12 5C15.866 5 19 8.13401 19 12ZM10.2002 7.33371C10.7587 7.11817 11.3655 7 12 7C12.6345 7 13.2413 7.11817 13.7998 7.33371L12 10.3333L10.2002 7.33371ZM8.7303 8.21716C7.67052 9.13399 7 10.4887 7 12H11L8.7303 8.21716ZM15.2697 8.21716L13 12H17C17 10.4887 16.3295 9.13399 15.2697 8.21716Z" fill="white"/>
</svg>
