<svg width="24" height="24" viewBox="0 0 24 24" fill="none" xmlns="http://www.w3.org/2000/svg">
<circle cx="12" cy="12" r="12" fill="#A87300"/>
<path fill-rule="evenodd" clip-rule="evenodd" d="M19 5H5V17L12 20L19 17V5ZM13.5 7.5C13.5 8.32843 12.8284 9 12 9C11.1716 9 10.5 8.32843 10.5 7.5C10.5 6.67157 11.1716 6 12 6C12.8284 6 13.5 6.67157 13.5 7.5ZM12 9H7C6.44775 9 6 9.44769 6 10C6 10.5523 6.44775 11 7 11H9.5V17C9.5 17.5523 9.94775 18 10.5 18C11.0522 18 11.5 17.5523 11.5 17V14H12.5V17C12.5 17.5523 12.9478 18 13.5 18C14.0522 18 14.5 17.5523 14.5 17V11H17C17.5522 11 18 10.5523 18 10C18 9.44769 17.5522 9 17 9H12Z" fill="white"/>
</svg>
