<svg width="24" height="24" viewBox="0 0 24 24" fill="none" xmlns="http://www.w3.org/2000/svg">
<circle cx="12" cy="12" r="12" fill="#0088CC"/>
<path fill-rule="evenodd" clip-rule="evenodd" d="M8 6C8 6.74028 7.5978 7.38663 7 7.73244V13.4648L11 16.1315V7.73244C10.4022 7.38663 10 6.74028 10 6C10 4.89543 10.8954 4 12 4C13.1046 4 14 4.89543 14 6C14 6.74028 13.5978 7.38663 13 7.73244V13.1315L17 10.4648V7.73244C16.4022 7.38664 16 6.74029 16 6C16 4.89543 16.8954 4 18 4C19.1046 4 20 4.89543 20 6C20 6.74028 19.5978 7.38662 19 7.73243V11.5352L13 15.5352V20H11V18.5352L5 14.5352V7.73244C4.4022 7.38663 4 6.74028 4 6C4 4.89543 4.89543 4 6 4C7.10457 4 8 4.89543 8 6Z" fill="white"/>
</svg>
