<svg width="24" height="24" viewBox="0 0 24 24" fill="none" xmlns="http://www.w3.org/2000/svg">
<circle cx="12" cy="12" r="12" fill="#864C22"/>
<path fill-rule="evenodd" clip-rule="evenodd" d="M6 19C6 19 6.12679 12.0625 7.01435 9C7.90191 5.9375 9.04305 4 9.04305 4L10.5646 7.5H13.4734C14.186 7.5 14.8463 7.8686 15.213 8.47101L16.1435 10H18.9842C19.7576 10 20.2465 10.8191 19.8709 11.4856L18.4222 14.0563C18.2651 14.3352 17.9824 14.5234 17.6614 14.563L14.1148 15L15.213 19H6ZM13.1005 11C13.6607 11 14.1148 10.5523 14.1148 10C14.1148 9.44772 13.6607 9 13.1005 9C12.5402 9 12.0861 9.44772 12.0861 10C12.0861 10.5523 12.5402 11 13.1005 11Z" fill="white"/>
</svg>
