<svg width="24" height="24" viewBox="0 0 24 24" fill="none" xmlns="http://www.w3.org/2000/svg">
<circle cx="12" cy="12" r="12" fill="#738E46"/>
<path fill-rule="evenodd" clip-rule="evenodd" d="M4 7C4 6.44771 4.44772 6 5 6H14C14.5523 6 15 6.44772 15 7V8H19C19.5523 8 20 8.44772 20 9V16C20 16.5523 19.5523 17 19 17H18C18 18.1046 17.1046 19 16 19C14.8954 19 14 18.1046 14 17H10C10 18.1046 9.10457 19 8 19C6.89543 19 6 18.1046 6 17H5C4.44772 17 4 16.5523 4 16V7ZM8 8H10V10H12V12H10V14H8V12H6V10H8V8ZM18 10H15V13H18V10Z" fill="white"/>
</svg>
