<svg width="24" height="24" viewBox="0 0 24 24" fill="none" xmlns="http://www.w3.org/2000/svg">
<circle cx="12" cy="12" r="12" fill="#26A2A2"/>
<path fill-rule="evenodd" clip-rule="evenodd" d="M17 4V10H19C19.5523 10 20 10.4477 20 11V17C20 17.5523 19.5523 18 19 18H18C18 19.1046 17.1045 20 16 20C14.8955 20 14 19.1046 14 18H10C10 19.1046 9.10449 20 8 20C6.89551 20 6 19.1046 6 18H5C4.44772 18 4 17.5523 4 17V11C4 10.4477 4.44771 10 5 10H15V8H10V4H17ZM14 15V12H18V15H14ZM12 12H6V15H12V12Z" fill="white"/>
</svg>
