<svg width="24" height="24" viewBox="0 0 24 24" fill="none" xmlns="http://www.w3.org/2000/svg">
<circle cx="12" cy="12" r="12" fill="#597980"/>
<path fill-rule="evenodd" clip-rule="evenodd" d="M7.15128 18.465L5.53503 16.8487L7.02648 15.3573C6.58207 14.7002 6.26445 13.9504 6.10872 13.1429H4L4 10.8572L6.10871 10.8572C6.26443 10.0497 6.58206 9.2998 7.02648 8.64272L5.535 7.15124L7.15125 5.535L8.64272 7.02648C9.2998 6.58206 10.0496 6.26444 10.8571 6.10871V4H13.1429V6.10871C13.9504 6.26444 14.7002 6.58206 15.3573 7.02646L16.8487 5.53501L18.465 7.15126L16.9735 8.6427C17.4179 9.29978 17.7356 10.0496 17.8913 10.8572L20 10.8572V13.1429H17.8913C17.7356 13.9504 17.4179 14.7002 16.9735 15.3573L18.465 16.8487L16.8487 18.465L15.3573 16.9735C14.7002 17.4179 13.9504 17.7356 13.1429 17.8913V20H10.8571L10.8571 17.8913C10.0496 17.7356 9.29979 17.4179 8.64272 16.9735L7.15128 18.465ZM12 15C13.6569 15 15 13.6569 15 12C15 10.3431 13.6569 9 12 9C10.3431 9 9 10.3431 9 12C9 13.6569 10.3431 15 12 15Z" fill="white"/>
</svg>
