<svg width="24" height="24" viewBox="0 0 24 24" fill="none" xmlns="http://www.w3.org/2000/svg">
<circle cx="12" cy="12" r="12" fill="#BA3800"/>
<path d="M11.9216 5.07247L13.7771 4L15.9196 7.71512L14.0642 8.78753L13.4702 7.75736C12.8111 8.53785 11.9592 9.38507 11.0131 9.93191C10.0169 10.5078 8.94583 10.637 8.3541 9.61112C7.76257 8.58522 8.38016 7.66973 9.3765 7.0939C10.3226 6.54705 11.4869 6.24203 12.498 6.0719L11.9216 5.07247Z" fill="white"/>
<path d="M18.9998 19H14.0642V15H9.99979V19H4.99979C4.99979 15 7.49979 12 11.9998 12C16.4998 12 18.9998 15 18.9998 19Z" fill="white"/>
</svg>
