<svg width="24" height="24" viewBox="0 0 24 24" fill="none" xmlns="http://www.w3.org/2000/svg">
<circle cx="12" cy="12" r="12" fill="#D92626"/>
<path fill-rule="evenodd" clip-rule="evenodd" d="M12 20C16.4183 20 20 16.4183 20 12C20 7.58172 16.4183 4 12 4C7.58172 4 4 7.58172 4 12C4 16.4183 7.58172 20 12 20ZM16.8908 15.4765C17.5892 14.4957 18 13.2958 18 12C18 8.68629 15.3137 6 12 6C10.7042 6 9.50433 6.41078 8.52352 7.10921L11.2932 9.87891L13.6165 9.37386L12.6568 8.41421L14.071 7L16.8995 9.82843L15.4853 11.2426L14.5256 10.283L14.0206 12.6063L16.8908 15.4765ZM15.4766 16.8907C14.4958 17.5892 13.2959 18 12 18C8.68629 18 6 15.3137 6 12C6 10.7041 6.41081 9.50424 7.10929 8.52341L9.82846 11.2426L8.41419 12.6569C7.63314 13.4379 7.63314 14.7042 8.41419 15.4853C9.19524 16.2663 10.4616 16.2663 11.2426 15.4853L12.6569 14.071L15.4766 16.8907Z" fill="white"/>
</svg>
