<svg width="24" height="24" viewBox="0 0 24 24" fill="none" xmlns="http://www.w3.org/2000/svg">
<circle cx="12" cy="12" r="12" fill="#006E8C"/>
<path fill-rule="evenodd" clip-rule="evenodd" d="M12 7L18.3626 5.1821C18.682 5.09084 19 5.33068 19 5.66286V16.6228C19 16.8461 18.852 17.0423 18.6374 17.1036L12.1374 18.9608C12.0476 18.9864 11.9524 18.9864 11.8626 18.9608L5.36264 17.1036C5.14799 17.0423 5 16.8461 5 16.6228V5.66286C5 5.33068 5.31795 5.09084 5.63736 5.1821L12 7ZM13 8.79432L17 7.65146V15.4914L13 16.6343V8.79432ZM11 8.79432L7 7.65146V15.4914L11 16.6343V8.79432Z" fill="white"/>
</svg>
