<svg width="24" height="24" viewBox="0 0 24 24" fill="none" xmlns="http://www.w3.org/2000/svg">
<circle cx="12" cy="12" r="12" fill="#A32F8E"/>
<path d="M11.7896 7.98907L12.5 6L12.3022 7.97729C13.2634 7.8316 14 7.00177 14 6C14 4.89545 13.1045 4 12 4C10.8955 4 10 4.89545 10 6C10 7.03351 10.7839 7.88391 11.7896 7.98907Z" fill="white"/>
<path d="M11.7856 8H7C6.44775 8 6 8.44769 6 9C6 9.55231 6.44775 10 7 10H9.6001L6 16H9L8.5 19C8.5 19.5523 8.94775 20 9.5 20C10.0522 20 10.5 19.5523 10.5 19L11 16L11.5 13H10L11.7856 8Z" fill="white"/>
<path d="M18 16H15L15.5 19C15.5 19.5523 15.0522 20 14.5 20C13.9478 20 13.5 19.5523 13.5 19L13 16L13.5 11H12L12.3 8H17C17.5522 8 18 8.44769 18 9C18 9.55231 17.5522 10 17 10H14.3999L18 16Z" fill="white"/>
</svg>
