<svg width="24" height="24" viewBox="0 0 24 24" fill="none" xmlns="http://www.w3.org/2000/svg">
<circle cx="12" cy="12" r="12" fill="#CC6900"/>
<path d="M7 10V5C7 4.44772 6.55228 4 6 4C5.44772 4 5 4.44772 5 5V10.6754C5 10.8904 5.03466 11.104 5.10263 11.3079L7 17H11V10C11 9.44772 10.5523 9 10 9C9.44772 9 9 9.44772 9 10V13L7 10Z" fill="white"/>
<path d="M17 10V5C17 4.44772 17.4477 4 18 4C18.5523 4 19 4.44772 19 5V10.6754C19 10.8904 18.9653 11.104 18.8974 11.3079L17 17H13V10C13 9.44772 13.4477 9 14 9C14.5523 9 15 9.44772 15 10V13L17 10Z" fill="white"/>
<path d="M7 18C6.44772 18 6 18.4477 6 19C6 19.5523 6.44772 20 7 20H17C17.5523 20 18 19.5523 18 19C18 18.4477 17.5523 18 17 18H7Z" fill="white"/>
</svg>
