<svg width="32" height="32" viewBox="0 0 32 32" fill="none" xmlns="http://www.w3.org/2000/svg">
<path d="M16 32C24.8366 32 32 24.8366 32 16C32 7.16344 24.8366 0 16 0C7.16344 0 0 7.16344 0 16C0 24.8366 7.16344 32 16 32Z" fill="#BF3939"/>
<path d="M25.1434 15.7756C25.0648 15.0084 25.0648 15.119 24.7756 14.2886C24.4807 13.4469 23.8584 11.7999 23.4135 10.826C22.9574 9.84094 22.4747 8.99968 22.1227 8.48074C21.7734 7.96257 21.6805 7.91824 21.3504 7.77482C21.0089 7.62831 20.572 7.65337 20.1356 7.62561C19.7023 7.58667 19.2485 7.56778 18.7654 7.56778H13.2637C12.7698 7.56778 12.3056 7.58667 11.8715 7.62561C11.4324 7.65298 10.9848 7.62831 10.6543 7.77443C10.3189 7.91747 10.2233 7.96219 9.88211 8.48074C9.52163 8.99968 9.04702 9.84094 8.59363 10.826C8.14331 11.8003 7.52105 13.4473 7.23189 14.2886C6.94004 15.1194 6.92924 15.0091 6.861 15.776C6.78736 16.5482 6.64779 18.0137 6.78967 18.8302C6.92384 19.6194 7.25657 20.155 7.67141 20.5409C8.08317 20.9245 8.6075 21.1234 9.25406 21.1373C9.21859 21.9512 9.21859 22.58 9.25406 23.035C9.27295 23.4853 9.24018 23.6842 9.43951 23.8546C9.64114 24.0181 10.1574 24.0258 10.4712 24.0393C10.7796 24.059 11.1128 24.0501 11.2816 23.929C11.4401 23.7914 11.3938 23.6861 11.4262 23.2196C11.4536 22.7396 11.4698 22.0445 11.4644 21.1011H20.4841C20.5065 22.0445 20.5339 22.7396 20.5774 23.2196C20.6129 23.6861 20.5636 23.791 20.7243 23.929C20.8913 24.0501 21.214 24.059 21.5324 24.0393C21.8382 24.0258 22.354 24.0177 22.5641 23.8546C22.7554 23.6842 22.7226 23.4853 22.7496 23.035C22.7797 22.58 22.7797 21.9504 22.7496 21.1373C23.3938 21.1234 23.9178 20.9245 24.3326 20.5409C24.7444 20.155 25.0752 19.6194 25.217 18.8302C25.3431 18.0133 25.2201 16.5478 25.1434 15.7756ZM9.46187 19.1256C8.50649 19.1256 7.73155 18.3421 7.73155 17.3767C7.73155 16.4106 8.50649 15.6272 9.46187 15.6272C10.4169 15.6272 11.1922 16.4106 11.1922 17.3767C11.1922 18.3421 10.4169 19.1256 9.46187 19.1256ZM18.4612 18.7905H13.5459C13.0324 18.7905 12.6164 18.5072 12.6164 18.1575C12.6164 17.8078 13.0328 17.5244 13.5459 17.5244H18.4612C18.9747 17.5244 19.3907 17.8078 19.3907 18.1575C19.3907 18.5072 18.9747 18.7905 18.4612 18.7905ZM18.4612 17.0776H13.5459C13.0324 17.0776 12.6164 16.7946 12.6164 16.4457C12.6164 16.0967 13.0328 15.8141 13.5459 15.8141H18.4612C18.9747 15.8141 19.3907 16.0967 19.3907 16.4457C19.3907 16.7946 18.9747 17.0776 18.4612 17.0776ZM19.2485 13.7669C17.8154 13.7723 14.1123 13.7723 12.6958 13.7669C11.2901 13.7557 11.4131 13.7781 10.8537 13.7284C10.2885 13.6782 9.62842 13.6316 9.34428 13.4689C9.06052 13.2923 9.0929 13.0934 9.15883 12.7236C9.22707 12.3454 9.46418 11.7856 9.71286 11.2339C9.95305 10.671 10.305 9.84325 10.5591 9.4099C10.7993 8.97424 10.9165 8.82503 11.1837 8.66503C11.4486 8.50272 11.779 8.47804 12.1422 8.44142C12.4969 8.39477 12.8897 8.38629 13.3211 8.40518H18.6844C19.1128 8.38629 19.506 8.39477 19.8634 8.44142C20.2181 8.47727 20.5481 8.50195 20.8211 8.66503C21.0863 8.82542 21.1924 8.97424 21.4464 9.4099C21.7001 9.84325 22.0467 10.671 22.2946 11.2339C22.5271 11.786 22.7808 12.3454 22.846 12.7236C22.9061 13.093 22.9389 13.2919 22.6609 13.4689C22.369 13.6316 21.7217 13.6786 21.1519 13.7284C20.5778 13.7781 20.6596 13.7557 19.2485 13.7669ZM22.5437 19.1256C21.5887 19.1256 20.8134 18.3421 20.8134 17.3767C20.8134 16.4106 21.5891 15.6272 22.5437 15.6272C23.4983 15.6272 24.274 16.4106 24.274 17.3767C24.274 18.3421 23.4987 19.1256 22.5437 19.1256Z" fill="white"/>
</svg>
