<svg width="32" height="32" viewBox="0 0 32 32" fill="none" xmlns="http://www.w3.org/2000/svg">
<path d="M16 32C24.8366 32 32 24.8366 32 16C32 7.16344 24.8366 0 16 0C7.16344 0 0 7.16344 0 16C0 24.8366 7.16344 32 16 32Z" fill="#BF3939"/>
<path d="M25.4628 10.9309C25.3121 9.27304 25.0939 7.41665 23.9866 6.6768C22.8793 5.93694 21.8156 6.63323 21.4031 7.04653C21.2839 7.16528 21.1972 7.28403 21.1293 7.40008C21.0349 7.35034 20.9574 7.32065 20.9119 7.32451C20.5988 7.34841 20.5048 7.818 20.5048 7.818C20.5048 7.818 20.3101 7.69771 20.1659 7.87005C20.0213 8.042 20.2418 8.12914 20.049 8.3593C19.8567 8.5887 19.0135 9.24567 18.4356 9.93463C18.1468 10.2789 18.0207 10.4297 17.4424 11.1186C16.8645 11.808 16.4296 11.8627 15.5856 11.936C14.7421 12.0088 14.1225 12.6334 13.9297 12.8628C13.737 13.0926 8.10302 19.8153 7.71478 20.2726C7.17464 20.9083 7.22283 21.3255 7.68085 21.7114C7.79922 21.8113 10.9911 24.5012 11.1095 24.601C11.5679 24.9874 11.8898 25.0086 12.5183 24.3207C12.9227 23.8781 18.5404 17.1412 18.7332 16.911C18.9263 16.6812 19.433 15.9622 19.3601 15.1163C19.2872 14.2704 19.2664 13.8313 19.8447 13.1423C20.4226 12.453 20.5491 12.3022 20.8379 11.9583C21.4154 11.2694 21.9162 10.324 22.109 10.0946C22.3018 9.86523 22.4251 10.0676 22.5693 9.89569C22.7139 9.72374 22.562 9.55217 22.562 9.55217C22.562 9.55217 23.0073 9.37868 22.9776 9.06562C22.9715 9.00663 22.9078 8.9087 22.8064 8.7888C22.961 8.64807 23.1045 8.56711 23.2483 8.71092C23.6176 9.08065 22.695 11.1155 22.5104 13.7052C22.3689 15.6923 21.5874 17.9601 22.3257 17.9601C23.0867 17.9601 23.0636 18.1447 23.0636 18.5145C23.0636 18.8842 23.9866 19.2543 24.5398 18.8842C25.0939 18.5145 25.8318 18.5446 25.8318 17.9597C25.8314 16.8501 25.6467 12.9654 25.4628 10.9309Z" fill="white"/>
</svg>
