<svg width="32" height="32" viewBox="0 0 32 32" fill="none" xmlns="http://www.w3.org/2000/svg">
<path d="M16 32C24.8366 32 32 24.8366 32 16C32 7.16344 24.8366 0 16 0C7.16344 0 0 7.16344 0 16C0 24.8366 7.16344 32 16 32Z" fill="#BF3939"/>
<path d="M25.7255 13.8409C25.0616 9.6474 23.2022 6.44895 21.5844 6.70919C20.8685 6.81907 20.316 7.57974 19.9775 8.75025C19.2758 9.37405 18.2028 10.0241 16.9814 10.6417L17.65 12.0069L19.7304 10.9864C19.6718 11.2728 19.6263 11.5975 19.6004 11.9495C19.607 12.8397 19.6849 13.7889 19.8406 14.7705C20.0099 15.8496 20.257 16.864 20.5627 17.7611C20.6672 17.9755 20.7779 18.1644 20.8939 18.3267L18.0864 18.0607L17.9692 19.3083C19.3795 19.4714 20.6857 19.7633 21.6939 20.2448C22.4087 21.3891 23.2222 22.0337 23.9879 21.9092C25.6083 21.6555 26.3879 18.0407 25.7255 13.8409ZM22.2587 18.2485C21.8235 18.3202 21.2124 16.7267 20.887 14.6984C20.5685 12.6762 20.6595 10.9729 21.0944 10.9016C21.5305 10.8368 22.1477 12.4229 22.4673 14.4516C22.7858 16.48 22.6944 18.1768 22.2587 18.2485Z" fill="white"/>
<path d="M16.4472 10.9024L15.8488 11.1884C12.8131 12.5926 9.32816 13.7565 8.35929 14.0815C8.34657 14.0881 8.34002 14.0881 8.32691 14.0881C6.98792 14.2963 6.03833 15.4467 6.03833 16.7599C6.03833 16.8964 6.05144 17.0398 6.07072 17.1828C6.30513 18.639 7.66339 19.6465 9.12614 19.4387L9.74416 23.0088C9.85443 23.3203 10.1405 23.756 10.7905 23.6453L12.0778 23.5347C12.7279 23.4174 12.8254 23.1379 12.7151 22.4875L12.1754 19.1788C13.716 19.1063 15.5886 19.0801 17.3636 19.2432C17.5645 19.2628 17.7735 19.2829 17.9678 19.3083L18.085 18.0607L17.4808 18.0021L13.4824 17.6243C13.4824 17.6243 13.4824 17.6243 13.4754 17.6247C13.0529 17.6574 12.6365 17.4165 12.3574 17.014C12.1885 16.773 12.0651 16.4742 12.0127 16.1423C11.9934 16.0254 11.9872 15.9156 11.9872 15.8049C11.9872 15.6291 12.0065 15.4602 12.0516 15.3041C12.1885 14.7647 12.5459 14.3614 13.0143 14.2832L16.5251 12.5598L17.6497 12.0073L16.9804 10.6421C16.805 10.7269 16.6288 10.8183 16.4472 10.9024Z" fill="white"/>
</svg>
