<svg width="32" height="32" viewBox="0 0 32 32" fill="none" xmlns="http://www.w3.org/2000/svg">
<path d="M16 32C24.8366 32 32 24.8366 32 16C32 7.16344 24.8366 0 16 0C7.16344 0 0 7.16344 0 16C0 24.8366 7.16344 32 16 32Z" fill="#BF3939"/>
<path d="M16.068 5.39758C10.1746 5.39758 5.39771 10.1745 5.39771 16.0678C5.39771 21.9609 10.175 26.7385 16.068 26.7385C21.961 26.7385 26.7386 21.9609 26.7386 16.0678C26.7386 10.1741 21.961 5.39758 16.068 5.39758ZM23.0779 17.332C23.0779 17.7388 22.7483 18.0684 22.3415 18.0684H9.69033C9.28359 18.0684 8.95433 17.7388 8.95433 17.332V14.5808C8.95433 14.1737 9.28359 13.8444 9.69033 13.8444H22.3415C22.7483 13.8444 23.0779 14.1737 23.0779 14.5808V17.332V17.332Z" fill="white"/>
</svg>
