<svg width="32" height="32" viewBox="0 0 32 32" fill="none" xmlns="http://www.w3.org/2000/svg">
<path d="M16 32C24.8366 32 32 24.8366 32 16C32 7.16344 24.8366 0 16 0C7.16344 0 0 7.16344 0 16C0 24.8366 7.16344 32 16 32Z" fill="#BF3939"/>
<path d="M12.6017 15.2158C12.7159 14.2161 13.2587 13.3309 14.0298 12.7885C14.201 12.6743 14.258 12.4743 14.1439 12.3031L10.5171 6.2489C10.403 6.07772 10.2033 6.02028 10.0317 6.1344C7.00445 8.04784 4.94835 11.389 4.83423 15.2162C4.83423 15.4159 4.97726 15.5586 5.17698 15.5586H12.2305C12.4302 15.5582 12.5728 15.4152 12.6017 15.2158Z" fill="white"/>
<path d="M17.7989 18.8712C17.6847 18.6996 17.485 18.6422 17.2849 18.7282C16.8851 18.8997 16.4568 18.9849 15.9999 18.9849C15.486 18.9849 14.9717 18.8712 14.5434 18.6711C14.3722 18.5851 14.1435 18.6426 14.058 18.8141L10.5164 24.8683C10.4308 25.0391 10.4878 25.2681 10.6594 25.3541C12.2586 26.2389 14.0865 26.7247 16.0285 26.7247C17.9419 26.7247 19.7408 26.2389 21.3115 25.383C21.4827 25.297 21.5402 25.0684 21.4257 24.8972L17.7989 18.8712Z" fill="white"/>
<path d="M21.9114 6.1055C21.7398 5.99138 21.5116 6.04844 21.4256 6.22L17.7132 12.2171C17.5987 12.3883 17.6847 12.5884 17.8277 12.7025C18.6844 13.2454 19.2839 14.1591 19.398 15.2444C19.4265 15.4445 19.5692 15.5871 19.7693 15.5871H26.8232C27.0233 15.5871 27.1659 15.4156 27.1659 15.2444C27.0518 11.3604 24.9672 8.01894 21.9114 6.1055Z" fill="white"/>
<path d="M16 17.6148C17.1138 17.6148 18.0275 16.7006 18.0275 15.5872C18.0275 14.4734 17.1138 13.5592 16 13.5592C14.8861 13.5592 13.9724 14.4734 13.9724 15.5872C13.9724 16.7002 14.8861 17.6148 16 17.6148ZM16 14.4448C16.6284 14.4448 17.1138 14.9302 17.1138 15.5583C17.1138 16.1867 16.6284 16.6717 16 16.6717C15.3715 16.6717 14.8861 16.1867 14.8861 15.5583C14.8861 14.9302 15.3715 14.4448 16 14.4448Z" fill="white"/>
</svg>
