<svg width="32" height="32" viewBox="0 0 32 32" fill="none" xmlns="http://www.w3.org/2000/svg">
<path d="M16 32C24.8366 32 32 24.8366 32 16C32 7.16344 24.8366 0 16 0C7.16344 0 0 7.16344 0 16C0 24.8366 7.16344 32 16 32Z" fill="#BF3939"/>
<path d="M26.4097 7.75562C26.4097 7.75562 25.0626 7.52352 23.2051 9.38106L23.9943 10.1707L24.7835 10.9602C26.6418 9.10232 26.4097 7.75562 26.4097 7.75562Z" fill="white"/>
<path d="M22.6659 9.91978L24.2446 11.4985L24.5579 11.1853L22.9791 9.60654L22.6659 9.91978Z" fill="white"/>
<path d="M14.4769 18.1103L16.0562 19.6896L24.0427 11.703L22.4635 10.1237L14.4769 18.1103Z" fill="white"/>
<path d="M16.2696 15.9449L13.8233 16.3162L12.8579 17.2816L13.8954 18.3195L16.2696 15.9449Z" fill="white"/>
<path d="M16.8683 21.292L17.8337 20.3262L18.205 17.8807L15.8308 20.2541L16.8683 21.292Z" fill="white"/>
<path d="M13.344 25.3834C13.1489 25.3834 12.9585 25.4038 12.7746 25.4401C12.6211 24.9624 12.2684 24.5753 11.8138 24.3748C11.845 24.3262 11.8736 24.2746 11.9052 24.2264C13.531 21.7323 15.8304 19.9634 15.8304 19.9634L15.0481 19.1812L14.9683 19.1014L14.186 18.3191C14.186 18.3191 12.5745 20.4141 10.2589 22.0188C9.41574 22.6032 8.47964 23.1226 7.49342 23.4522C7.49342 23.4522 5.40957 21.9239 3.91174 24.1608C3.91174 24.1608 3.45101 23.7807 2.87231 23.6646C5.34325 28.2518 10.1876 31.372 15.7618 31.3789C16.0621 31.2247 16.2603 30.9649 16.2603 30.6672C16.2603 30.37 16.0636 30.1078 15.7629 29.9524C16.0818 29.4844 16.2687 28.918 16.2687 28.3089C16.2695 26.6931 14.9594 25.3834 13.344 25.3834Z" fill="white"/>
</svg>
