<svg width="32" height="32" viewBox="0 0 32 32" fill="none" xmlns="http://www.w3.org/2000/svg">
<path d="M16 32C24.8366 32 32 24.8366 32 16C32 7.16344 24.8366 0 16 0C7.16344 0 0 7.16344 0 16C0 24.8366 7.16344 32 16 32Z" fill="#BF3939"/>
<path d="M16.0044 7.59052C14.4418 7.59052 13.0091 8.37856 12.1713 9.69866C11.9593 10.0325 12.0588 10.4755 12.3923 10.6872C12.5114 10.7628 12.644 10.7986 12.7755 10.7986C13.0126 10.7986 13.2447 10.681 13.3808 10.4663C13.9541 9.56256 14.9349 9.0228 16.0044 9.0228C17.0693 9.0228 18.0478 9.55909 18.6222 10.457C18.8354 10.7905 19.2777 10.8877 19.6115 10.6745C19.945 10.4616 20.0422 10.0183 19.829 9.68478C18.99 8.37394 17.5604 7.59052 16.0044 7.59052Z" fill="white"/>
<path d="M10.2191 9.36557C10.3432 9.4446 10.4817 9.48161 10.6185 9.48161C10.8672 9.48161 11.1101 9.35824 11.2527 9.13231C12.2895 7.49067 14.0672 6.51024 16.0073 6.51024C17.9384 6.51024 19.7119 7.48373 20.751 9.11496C20.973 9.46388 21.4365 9.56643 21.7858 9.34436C22.1347 9.1219 22.2376 8.65925 22.0152 8.30995C20.6997 6.24499 18.4539 5.01202 16.0076 5.01202C13.5506 5.01202 11.3002 6.25347 9.98624 8.33231C9.76494 8.68239 9.86942 9.14504 10.2191 9.36557Z" fill="white"/>
<path d="M19.0581 23.8623H17.0094V19.2771H26.1899C26.1899 18.0094 25.1794 16.9847 23.8975 16.9847H17.0094V14.9448C17.0094 14.1806 18.0283 13.6713 18.0391 12.1295C18.0472 11.0037 17.1269 10.0916 16.0012 10.0916C14.8758 10.0916 13.9728 11.0037 13.9632 12.1295C13.9524 13.4161 14.9714 14.1806 14.9714 14.9448V16.9847H8.10371C6.82179 16.9847 5.81128 18.0094 5.81128 19.2771H14.9714V23.8623H12.9446C12.3366 23.8623 11.67 24.4526 11.67 25.1381L16.0012 26.4096L20.3304 25.1377C20.3308 24.4526 19.6657 23.8623 19.0581 23.8623Z" fill="white"/>
</svg>
