<svg width="32" height="32" viewBox="0 0 32 32" fill="none" xmlns="http://www.w3.org/2000/svg">
<path d="M16 32C24.8366 32 32 24.8366 32 16C32 7.16344 24.8366 0 16 0C7.16344 0 0 7.16344 0 16C0 24.8366 7.16344 32 16 32Z" fill="#BF3939"/>
<path d="M24.7597 12.7938C25.1876 12.2969 25.4486 11.6518 25.4486 10.9463C25.4486 10.9197 25.4432 10.8946 25.4405 10.8684C25.4436 10.8422 25.4486 10.8156 25.4486 10.7882C25.4486 9.22448 24.1771 7.95219 22.6126 7.95219C22.589 7.95219 22.5675 7.95758 22.5436 7.95913C22.52 7.95758 22.4988 7.95219 22.4745 7.95219C20.9108 7.95219 19.6385 9.22448 19.6385 10.7882C19.6385 10.8152 19.6443 10.8411 19.6466 10.8669C19.6435 10.8935 19.6385 10.9185 19.6385 10.9463C19.6385 11.7004 19.9357 12.384 20.4169 12.8921C20.2214 12.9854 20.0337 13.0934 19.8536 13.211C19.3929 11.5932 17.9055 10.4046 16.1424 10.4046C16.1104 10.4046 16.0796 10.4116 16.0483 10.4139C16.0167 10.4116 15.987 10.4046 15.9546 10.4046C14.1977 10.4046 12.7142 11.5855 12.2484 13.1944C12.0094 13.0406 11.7584 12.9049 11.4939 12.7934C11.9219 12.2965 12.1829 11.6515 12.1829 10.9459C12.1829 10.9193 12.1771 10.8943 12.1748 10.8677C12.1775 10.8414 12.1829 10.8148 12.1829 10.7875C12.1829 9.2237 10.9102 7.95142 9.34683 7.95142C9.32254 7.95142 9.30095 7.9572 9.27782 7.95836C9.2543 7.95681 9.23233 7.95142 9.20919 7.95142C7.64543 7.95142 6.37314 9.22409 6.37314 10.7875C6.37314 10.8145 6.37893 10.8403 6.38085 10.8661C6.37816 10.8927 6.37314 10.9178 6.37314 10.9455C6.37314 11.6993 6.6704 12.3832 7.15117 12.8914C5.48331 13.6902 4.32861 15.3951 4.32861 17.3633C4.32861 17.8679 4.73806 18.277 5.24273 18.277C5.74741 18.277 6.15647 17.8679 6.15647 17.3633C6.15647 15.638 7.56061 14.2342 9.2863 14.2342C9.33603 14.2342 9.38384 14.2277 9.43088 14.2196C9.47869 14.2273 9.53305 14.2342 9.58278 14.2342C11.3089 14.2342 12.7192 15.638 12.7192 17.3633C12.7192 17.364 12.7192 17.3648 12.7192 17.3656C10.921 18.5311 9.3183 20.7171 9.3183 23.2177C9.3183 23.9044 9.87271 24.4615 10.559 24.4615C11.246 24.4615 11.8016 23.9048 11.8016 23.2177C11.8016 20.8686 13.7123 18.9575 16.0614 18.9575C16.1293 18.9575 16.1937 18.9478 16.2581 18.9371C16.3228 18.9475 16.3884 18.9575 16.4558 18.9575C18.805 18.9575 20.7165 20.8686 20.7165 23.2177C20.7165 23.9044 21.2728 24.4615 21.9598 24.4615C22.6473 24.4615 23.2036 23.9048 23.2036 23.2177C23.2036 20.566 21.6637 18.2685 19.4334 17.167C19.5359 15.5335 20.8946 14.2346 22.5536 14.2346C22.6033 14.2346 22.6507 14.2288 22.6982 14.2199C22.746 14.228 22.7938 14.2346 22.8431 14.2346C24.57 14.2346 25.9733 15.6391 25.9733 17.3637C25.9733 17.8687 26.3824 18.2774 26.8871 18.2774C27.3914 18.2774 27.8004 17.8683 27.8004 17.3637C27.7993 15.3106 26.5436 13.5445 24.7597 12.7938ZM10.3543 10.9459C10.3543 11.5023 9.90163 11.9557 9.34567 11.9557C9.32177 11.9557 9.29979 11.9607 9.27666 11.9618C9.25314 11.9607 9.23117 11.9557 9.20804 11.9557C8.6517 11.9557 8.19907 11.5023 8.19907 10.9459C8.19907 10.9193 8.1929 10.8939 8.19098 10.8673C8.19329 10.8411 8.19907 10.8148 8.19907 10.7875C8.19907 10.2311 8.65131 9.7785 9.20804 9.7785C9.23155 9.7785 9.25353 9.7731 9.27666 9.77195C9.29979 9.77349 9.32177 9.7785 9.34567 9.7785C9.90201 9.7785 10.3546 10.2311 10.3546 10.7875C10.3546 10.8145 10.3608 10.8399 10.3627 10.8653C10.3608 10.8927 10.3543 10.9182 10.3543 10.9459ZM17.5149 14.481C17.5149 15.2385 16.8992 15.855 16.1416 15.855C16.1096 15.855 16.0792 15.862 16.0476 15.8639C16.0159 15.862 15.9859 15.855 15.9531 15.855C15.1963 15.855 14.5798 15.2382 14.5798 14.481C14.5798 14.4447 14.5725 14.4104 14.5694 14.3745C14.5725 14.3379 14.5806 14.3028 14.5806 14.2662C14.5806 13.509 15.1963 12.8925 15.9539 12.8925C15.9859 12.8925 16.0159 12.886 16.0476 12.8833C16.0792 12.886 16.1096 12.8925 16.1416 12.8925C16.8992 12.8925 17.5153 13.509 17.5153 14.2662C17.5153 14.3028 17.5234 14.336 17.5257 14.3726C17.523 14.4085 17.5149 14.4432 17.5149 14.481ZM23.6215 10.9459C23.6215 11.5023 23.1689 11.9557 22.6126 11.9557C22.589 11.9557 22.5671 11.9607 22.5432 11.9618C22.52 11.9607 22.4984 11.9557 22.4745 11.9557C21.9186 11.9557 21.4656 11.5023 21.4656 10.9459C21.4656 10.9193 21.4602 10.8939 21.4579 10.8673C21.4602 10.8411 21.466 10.8148 21.466 10.7875C21.466 10.2311 21.9186 9.7785 22.4745 9.7785C22.4984 9.7785 22.52 9.7731 22.5432 9.77195C22.5671 9.77349 22.589 9.7785 22.6126 9.7785C23.1689 9.7785 23.6215 10.2311 23.6215 10.7875C23.6215 10.8145 23.6277 10.8399 23.6296 10.8653C23.6269 10.8927 23.6215 10.9182 23.6215 10.9459Z" fill="white"/>
</svg>
