<svg width="32" height="32" viewBox="0 0 32 32" fill="none" xmlns="http://www.w3.org/2000/svg">
<path d="M16 32C24.8366 32 32 24.8366 32 16C32 7.16344 24.8366 0 16 0C7.16344 0 0 7.16344 0 16C0 24.8366 7.16344 32 16 32Z" fill="#BF3939"/>
<path d="M16.0001 25.425C14.7903 25.425 13.8064 24.4407 13.8064 23.2312C13.8064 22.0203 14.7903 21.0367 16.0001 21.0367C17.21 21.0367 18.1939 22.0206 18.1939 23.2312C18.1939 24.4399 17.2103 25.425 16.0001 25.425Z" fill="white"/>
<path d="M14.0345 16.9072C13.0267 17.1451 12.0586 17.5669 11.1938 18.1772C10.7983 18.4586 10.7038 19.0057 10.9829 19.4013C11.2632 19.7984 11.8103 19.8933 12.2066 19.6133C12.7915 19.2004 13.4365 18.8978 14.1093 18.7L14.0345 16.9072Z" fill="white"/>
<path d="M20.8039 18.1767C19.9514 17.5749 18.9976 17.1573 18.0052 16.9175L17.9304 18.7099C18.5882 18.9077 19.2185 19.2077 19.7918 19.6125C19.946 19.7212 20.1222 19.7736 20.298 19.7736C20.5733 19.7736 20.8451 19.6445 21.0159 19.4004C21.2931 19.0049 21.1994 18.457 20.8039 18.1767Z" fill="white"/>
<path d="M26.8735 11.3376C24.3251 9.53485 21.4231 8.41138 18.3774 8.02545L18.3037 9.78738C21.0106 10.1548 23.5891 11.1657 25.8619 12.7711C26.0153 12.8798 26.1915 12.9315 26.3669 12.9315C26.6426 12.9315 26.9133 12.8023 27.086 12.5602C27.3636 12.165 27.2707 11.6168 26.8735 11.3376Z" fill="white"/>
<path d="M13.6629 8.01971C10.6025 8.40102 7.68703 9.52757 5.1251 11.3377C4.72954 11.6168 4.63585 12.1651 4.91537 12.5602C5.1945 12.9558 5.74197 13.0514 6.13831 12.7711C8.42149 11.1573 11.0143 10.1441 13.7366 9.78164L13.6629 8.01971Z" fill="white"/>
<path d="M13.8475 12.433C11.8114 12.7588 9.8756 13.5457 8.16032 14.7586C7.76399 15.0381 7.6703 15.5859 7.95059 15.9815C8.22972 16.3767 8.77719 16.4715 9.17353 16.1916C10.6097 15.1773 12.2239 14.5053 13.9215 14.2022L13.8475 12.433Z" fill="white"/>
<path d="M23.84 14.7585C22.1351 13.5537 20.2143 12.7691 18.1929 12.4399L18.1189 14.2087C19.8026 14.5149 21.4029 15.1842 22.8275 16.1916C22.9821 16.3011 23.1572 16.3527 23.3337 16.3527C23.6094 16.3527 23.8801 16.2232 24.0512 15.9815C24.3284 15.5863 24.2355 15.038 23.84 14.7585Z" fill="white"/>
<path d="M16.9653 19.36L17.5005 6.57501H14.5403L15.0754 19.36H16.9653Z" fill="white"/>
</svg>
