<svg width="32" height="32" viewBox="0 0 32 32" fill="none" xmlns="http://www.w3.org/2000/svg">
<path d="M16 32C24.8366 32 32 24.8366 32 16C32 7.16344 24.8366 0 16 0C7.16344 0 0 7.16344 0 16C0 24.8366 7.16344 32 16 32Z" fill="#BF3939"/>
<path d="M20.4908 5.36901C20.4043 5.28121 20.2849 5.22678 20.1523 5.22678C20.0544 5.22678 19.9649 5.25663 19.8889 5.30624L16.4399 7.6477L16.4404 5.64512C16.4399 5.40149 16.2428 5.20483 16.0001 5.20483C15.7573 5.20483 15.5607 5.40149 15.5602 5.64512V9.45056C15.5602 9.602 15.4382 9.72447 15.2863 9.72447C15.1353 9.72447 15.0133 9.60244 15.0133 9.45056V7.5406C15.0133 7.35052 14.9049 7.20522 14.753 7.10119L12.1104 5.30624C12.0349 5.25707 11.9453 5.22722 11.8479 5.22722C11.7149 5.22722 11.595 5.28209 11.5085 5.36945C11.4238 5.45461 11.3716 5.57357 11.3716 5.70394V10.3746C11.3716 11.1151 11.7504 11.7666 12.3233 12.1458L14.3443 13.5189L12.818 15.0992C12.8154 15.1023 12.8123 15.1041 12.8096 15.1067C12.7258 15.1927 12.6731 15.3099 12.6723 15.4399C12.6723 15.4399 12.6714 18.4591 12.6714 18.46C12.6714 18.6114 12.793 18.7335 12.9435 18.7361H19.054C19.2046 18.7335 19.3262 18.6114 19.3262 18.46C19.3262 18.4591 19.3253 15.4399 19.3253 15.4399C19.3249 15.3099 19.2722 15.1927 19.1879 15.1067C19.1853 15.1045 19.1822 15.1023 19.1796 15.0992L17.6533 13.5189L19.6743 12.1458C20.2476 11.767 20.626 11.1151 20.626 10.3746L20.6264 5.70394C20.6282 5.57357 20.5759 5.45505 20.4908 5.36901Z" fill="white"/>
<path d="M19.0124 19.3677H12.9875C12.836 19.3677 12.7131 19.4902 12.7131 19.6421C12.7131 19.6434 12.714 19.6452 12.714 19.6469L12.7131 19.6482C12.9287 22.2171 14.0274 24.5335 15.7043 26.2921C15.7767 26.3737 15.8825 26.4255 15.9997 26.4255C16.1169 26.4255 16.2227 26.3737 16.2951 26.2921C17.972 24.5335 19.0703 22.2175 19.2863 19.6482L19.2854 19.6474C19.2854 19.6456 19.2863 19.6438 19.2863 19.6421C19.2867 19.4902 19.1642 19.3677 19.0124 19.3677Z" fill="white"/>
</svg>
