<svg width="32" height="32" viewBox="0 0 32 32" fill="none" xmlns="http://www.w3.org/2000/svg">
<path d="M16 32C24.8366 32 32 24.8366 32 16C32 7.16344 24.8366 0 16 0C7.16344 0 0 7.16344 0 16C0 24.8366 7.16344 32 16 32Z" fill="#BF3939"/>
<path d="M16.3739 4.02814H16.3924V4.07132H16.392C16.6149 4.61917 17.0104 5.83556 17.0104 6.92741C17.0104 8.0185 17.0775 8.19084 17.0775 8.42949C17.0775 8.66814 17.871 13.2094 17.871 13.2094L18.4678 14.7447V15.0026L23.9799 20.049H23.9857C23.9845 19.4784 24.1283 22.0885 24.1283 22.0885C24.0909 22.1132 24.0223 22.0927 23.9872 22.0808L23.9799 22.085C23.9799 22.0869 23.9799 22.0889 23.9799 22.0889L23.9726 22.0831L18.6147 20.7117V21.5256L21.5097 24.4434C21.5097 24.4434 21.2668 24.8775 21.1377 25.0417C21.0089 25.206 20.8524 25.472 20.7938 25.4762C20.7352 25.4801 11.9406 25.4805 11.8816 25.4762C11.8226 25.472 11.6661 25.2067 11.5377 25.0421C11.4085 24.8779 11.166 24.4438 11.166 24.4438L14.0603 21.5256V20.7121L8.70162 22.0838L8.69506 22.0892C8.69506 22.0892 8.69506 22.0877 8.69506 22.0858L8.68774 22.0819C8.65266 22.0927 8.58403 22.1139 8.54663 22.0892C8.54663 22.0892 8.69005 19.4787 8.68928 20.0497H8.69506L14.2072 15.0034V14.7451L14.8036 13.2098C14.8036 13.2098 15.5978 8.66814 15.5978 8.42987C15.5978 8.19161 15.6641 8.01888 15.6641 6.9278C15.6641 5.83594 16.0593 4.61956 16.2825 4.0717V4.02814H16.3014" fill="white"/>
</svg>
