<svg width="32" height="32" viewBox="0 0 32 32" fill="none" xmlns="http://www.w3.org/2000/svg">
<path d="M16 32C24.8366 32 32 24.8366 32 16C32 7.16344 24.8366 0 16 0C7.16344 0 0 7.16344 0 16C0 24.8366 7.16344 32 16 32Z" fill="#BF3939"/>
<path d="M21.3204 22.9691H10.6802C8.70814 22.9691 7.10352 21.3649 7.10352 19.3928V12.2221C7.10352 10.2501 8.70776 8.64545 10.6802 8.64545H21.3204C23.292 8.64545 24.8967 10.2497 24.8967 12.2221V19.3928C24.8967 21.3649 23.292 22.9691 21.3204 22.9691ZM10.6802 9.72998C9.30612 9.72998 8.18805 10.848 8.18805 12.2221V19.3932C8.18805 20.7669 9.30612 21.885 10.6802 21.885H21.3204C22.6945 21.885 23.8125 20.7673 23.8125 19.3932V12.2221C23.8125 10.848 22.6948 9.72998 21.3204 9.72998H10.6802V9.72998Z" fill="white"/>
<path d="M18.4576 18.4479C18.3458 18.4479 18.2348 18.4051 18.1507 18.3207L13.0484 13.2184L8.13818 16.3556C7.93577 16.4851 7.66821 16.4257 7.53905 16.2237C7.4099 16.0217 7.46927 15.7537 7.67091 15.6246L12.8753 12.3C13.0473 12.1905 13.2717 12.2148 13.4155 12.3586L18.5077 17.4509L21.5354 15.3454C21.6989 15.2325 21.9178 15.244 22.0686 15.3747L24.3815 17.3984C24.5615 17.5565 24.58 17.8306 24.4219 18.0107C24.2646 18.1915 23.9905 18.2096 23.8097 18.0512L21.7521 16.2515L18.7051 18.3704C18.6303 18.4224 18.544 18.4479 18.4576 18.4479Z" fill="white"/>
<path d="M19.1806 15.4125C17.9851 15.4125 17.012 14.4394 17.012 13.2439C17.012 12.0483 17.9851 11.0756 19.1806 11.0756C20.3762 11.0756 21.3489 12.0483 21.3489 13.2439C21.3489 14.4394 20.3766 15.4125 19.1806 15.4125ZM19.1806 11.9426C18.4631 11.9426 17.8794 12.5264 17.8794 13.2435C17.8794 13.961 18.4631 14.5447 19.1806 14.5447C19.8977 14.5447 20.4815 13.961 20.4815 13.2435C20.4815 12.5264 19.8977 11.9426 19.1806 11.9426Z" fill="white"/>
</svg>
