<svg width="32" height="32" viewBox="0 0 32 32" fill="none" xmlns="http://www.w3.org/2000/svg">
<path d="M16 32C24.8366 32 32 24.8366 32 16C32 7.16344 24.8366 0 16 0C7.16344 0 0 7.16344 0 16C0 24.8366 7.16344 32 16 32Z" fill="#BF3939"/>
<path d="M21.984 18.9274V14.1413C21.984 13.1038 21.5849 12.1261 20.8466 11.3878C20.288 10.8291 19.9888 10.0908 19.9888 9.31277V9.1732C20.2876 9.07373 20.4873 8.79422 20.4873 8.4746V7.9761C20.4873 7.51692 20.2282 7.11788 19.8488 6.89851C19.7694 6.79865 19.6299 6.73889 19.4899 6.73889H19.2304H15.759H15.4995C15.36 6.73889 15.2204 6.79865 15.1406 6.89851C14.7612 7.11788 14.5021 7.51692 14.5021 7.99576V8.49426C14.5021 8.81349 14.7019 9.09301 15.001 9.19248V9.33243C15.001 10.1105 14.7019 10.8488 14.1432 11.3874C13.4049 12.1257 13.0059 13.1034 13.0059 14.1409V18.9201H11.2216C12.2255 20.0062 12.9006 21.036 13.0059 21.6104V21.8695C12.9927 21.9192 12.9735 21.9636 12.9407 21.9963C12.5609 22.3761 10.9694 21.4014 9.38638 19.8184C9.14619 19.5778 8.92026 19.3376 8.71053 19.1009C7.1352 19.493 6.01636 20.4804 6.01636 21.6378V21.9774C6.01636 23.4787 7.89665 24.6955 10.2165 24.6955H14.5025H20.4877H21.7673C24.0867 24.6955 25.9678 23.4787 25.9678 21.9774V21.6378C25.9674 20.1847 24.202 19.0007 21.984 18.9274ZM15.0006 7.99653C15.0006 7.57745 15.3399 7.23855 15.7586 7.23855H19.2501C19.6692 7.23855 20.0081 7.57745 20.0081 7.99653V8.49504C20.0081 8.6346 19.8885 8.75451 19.7486 8.75451H15.2601C15.1206 8.75451 15.001 8.6346 15.001 8.49504V7.99653H15.0006ZM14.8611 12.0663C15.5994 11.348 15.9984 10.3707 15.9984 9.31277V9.23296H18.991V9.31277C18.991 10.3503 19.39 11.328 20.1284 12.0663C20.3678 12.3057 20.5671 12.5849 20.7067 12.8844C20.4472 12.8443 20.2675 12.7846 20.0682 12.7248C19.749 12.6254 19.4101 12.5054 18.7516 12.5054C18.0931 12.5054 17.7538 12.6053 17.435 12.7248C17.1358 12.8247 16.8563 12.9045 16.2579 12.9045C15.6792 12.9045 15.3796 12.8046 15.0805 12.7248C14.9012 12.6651 14.7015 12.6049 14.462 12.5652C14.5816 12.3855 14.7015 12.2259 14.8611 12.0663ZM14.2226 13.0641C14.5218 13.1042 14.7211 13.164 14.9409 13.2237C15.2601 13.3236 15.5994 13.4431 16.2579 13.4431C16.9156 13.4431 17.2549 13.3432 17.5741 13.2237C17.8733 13.1242 18.1528 13.0444 18.7516 13.0444C19.3503 13.0444 19.6295 13.1443 19.9286 13.2237C20.1885 13.3039 20.4672 13.3833 20.906 13.4234C20.9661 13.6628 21.0062 13.9023 21.0062 14.1417V18.9209H20.9561C20.9746 18.9401 20.9885 18.9563 21.0062 18.9752V20.7942C20.6693 20.9546 20.1569 20.854 19.1213 19.8184C18.8187 19.5173 18.5392 19.215 18.2866 18.9213H16.0883C17.3949 20.3343 18.149 21.6555 17.8078 21.9967C17.428 22.3769 15.8365 21.4026 14.2535 19.8188C14.1667 19.732 14.0861 19.6457 14.0032 19.5593V14.1425C14.0032 13.7623 14.0827 13.4034 14.2226 13.0641Z" fill="white"/>
</svg>
