<svg width="32" height="32" viewBox="0 0 32 32" fill="none" xmlns="http://www.w3.org/2000/svg">
<path d="M16 32C24.8366 32 32 24.8366 32 16C32 7.16344 24.8366 0 16 0C7.16344 0 0 7.16344 0 16C0 24.8366 7.16344 32 16 32Z" fill="#BF3939"/>
<path d="M13.7956 10.8577H18.276L18.6858 10.2732C19.0201 9.76892 19.3887 9.28584 19.7075 8.77153C19.859 8.52709 20.1424 8.12728 20.0306 7.81769C19.9508 7.59639 19.7468 7.52121 19.5282 7.48266C19.3698 7.4549 18.5613 7.25056 18.2351 7.31726C17.9456 7.37663 17.678 7.51389 17.3996 7.61066C17.0083 7.74675 16.5754 7.86087 16.1459 7.83736C15.7754 7.81731 15.3536 7.76989 15.0043 7.64343C14.7147 7.53856 14.4344 7.38396 14.1279 7.33153C13.8631 7.28603 12.8988 7.41981 12.7049 7.45297C11.3389 7.68777 12.3321 8.72719 13.3862 10.2728L13.7956 10.8577ZM23.6663 19.0516C22.5181 16.4053 20.4381 13.5191 18.2598 12.1269H13.7393C11.561 13.5195 9.48177 16.4053 8.33362 19.0516C7.18239 21.7042 8.5634 24.3108 11.1951 24.3108H20.8055C23.4369 24.3108 24.8179 21.7042 23.6663 19.0516ZM16.42 21.4539V22.5281H15.5645V21.5172C14.9079 21.4963 14.2505 21.3086 13.875 21.058L14.1569 20.0779C14.5636 20.3177 15.1477 20.5363 15.7838 20.5363C16.4412 20.5363 16.8896 20.2133 16.8896 19.7128C16.8896 19.2432 16.5245 18.9406 15.7526 18.6595C14.6573 18.2632 13.9483 17.7628 13.9483 16.7923C13.9483 15.8952 14.574 15.2074 15.6273 15.0196V13.9975H16.4824V14.9676C17.1394 14.9884 17.5874 15.1445 17.9217 15.3119L17.6402 16.2711C17.39 16.1562 16.9308 15.9168 16.2218 15.9168C15.4916 15.9168 15.231 16.2923 15.231 16.647C15.231 17.0746 15.6065 17.314 16.4929 17.6687C17.6607 18.1074 18.1823 18.6707 18.1823 19.5979C18.1823 20.4843 17.567 21.2666 16.42 21.4539Z" fill="white"/>
</svg>
