<svg width="32" height="32" viewBox="0 0 32 32" fill="none" xmlns="http://www.w3.org/2000/svg">
<path d="M16 32C24.8366 32 32 24.8366 32 16C32 7.16344 24.8366 0 16 0C7.16344 0 0 7.16344 0 16C0 24.8366 7.16344 32 16 32Z" fill="#BF3939"/>
<path d="M18.6508 17.2542C18.3636 17.2542 18.1304 17.0214 18.1304 16.733C18.1304 15.3408 16.998 14.2088 15.6058 14.2088C15.3182 14.2088 15.085 13.976 15.085 13.688C15.085 13.4008 15.3178 13.1671 15.6058 13.1671C17.5713 13.1671 19.1713 14.7671 19.1713 16.733C19.1713 17.021 18.9385 17.2542 18.6508 17.2542Z" fill="white"/>
<path d="M21.5038 17.2966C21.2166 17.2966 20.9833 17.0637 20.9833 16.7753C20.9833 13.787 18.5521 11.3558 15.563 11.3558C15.2753 11.3558 15.0425 11.1225 15.0425 10.8349C15.0425 10.5473 15.2753 10.314 15.563 10.314C19.1261 10.314 22.0243 13.2125 22.0243 16.7753C22.025 17.0633 21.7914 17.2966 21.5038 17.2966Z" fill="white"/>
<path d="M24.3005 17.226C24.0129 17.226 23.7796 16.9931 23.7796 16.7051C23.7796 12.2136 20.1251 8.55942 15.6339 8.55942C15.3463 8.55942 15.113 8.32693 15.113 8.03893C15.113 7.75093 15.3459 7.51807 15.6339 7.51807C20.6992 7.51807 24.821 11.6395 24.821 16.7048C24.8206 16.9928 24.5873 17.226 24.3005 17.226Z" fill="white"/>
<path d="M19.4443 24.6377C16.811 24.6377 14.054 23.2729 11.4716 20.6905C7.50325 16.7214 6.46344 12.4164 8.61939 8.87865C9.02499 8.21243 9.7313 7.81494 10.5074 7.81494C11.088 7.81494 11.6339 8.04164 12.0457 8.45417L12.86 9.26805C13.5601 9.96781 13.7008 11.055 13.2016 11.9109C12.0893 13.8167 12.4767 16.394 14.1226 18.0391C15.1042 19.0211 16.4652 19.584 17.8566 19.584C18.7241 19.584 19.5522 19.3681 20.2508 18.9606C20.5843 18.7659 20.9652 18.6633 21.3515 18.6633C21.9341 18.6633 22.4827 18.8904 22.8945 19.3018L23.7087 20.116C24.1845 20.5914 24.4116 21.2488 24.331 21.9165C24.2504 22.5932 23.8684 23.1865 23.2831 23.5427C22.0899 24.2691 20.7987 24.6377 19.4443 24.6377Z" fill="white"/>
</svg>
