<svg width="32" height="32" viewBox="0 0 32 32" fill="none" xmlns="http://www.w3.org/2000/svg">
<path d="M16 32C24.8366 32 32 24.8366 32 16C32 7.16344 24.8366 0 16 0C7.16344 0 0 7.16344 0 16C0 24.8366 7.16344 32 16 32Z" fill="#BF3939"/>
<path d="M16.1927 6.74701L13.148 15.2729L5.84009 10.4012L8.27594 18.3179C8.83421 20.1319 9.49387 20.1446 10.7118 20.1446H13.1477V18.9267H19.2373V20.1446H21.6735C22.8911 20.1446 23.5083 19.6206 24.1094 18.3179L26.5449 10.4012L19.2373 15.2729L16.1927 6.74701Z" fill="white"/>
<path d="M14.3661 20.1447V21.363C11.6673 21.363 9.49438 22.1776 9.49438 23.1901C9.49438 24.2021 11.6673 25.0164 14.3661 25.0164H18.0203C20.7191 25.0164 22.892 24.2017 22.892 23.1901C22.892 22.1772 20.7191 21.363 18.0203 21.363V20.1447H14.3661Z" fill="white"/>
</svg>
