<svg width="32" height="32" viewBox="0 0 32 32" fill="none" xmlns="http://www.w3.org/2000/svg">
<path d="M16 32C24.8366 32 32 24.8366 32 16C32 7.16344 24.8366 0 16 0C7.16344 0 0 7.16344 0 16C0 24.8366 7.16344 32 16 32Z" fill="#BF3939"/>
<path d="M27.8316 14.7011H25.4355V8.91914H26.3935C26.6573 8.91914 26.8728 8.70439 26.8728 8.43991C26.8728 8.17543 26.6569 7.96068 26.3935 7.96068H25.4625L12.0163 4.76531V4.12608C12.0163 3.8616 11.8015 3.64685 11.5371 3.64685C11.2722 3.64685 11.0574 3.8616 11.0574 4.12608V4.94034L7.98313 7.9603H7.22361C6.95875 7.9603 6.74438 8.17504 6.74438 8.43953C6.74438 8.70401 6.95913 8.91875 7.22361 8.91875H11.0574V30.6344C11.0574 30.8981 11.2722 31.114 11.5371 31.114C11.8015 31.114 12.0163 30.8977 12.0163 30.6344V8.91914H24.4774V14.7015H22.0805C21.8172 14.7015 21.6016 14.9174 21.6016 15.1807V18.0565C21.6016 18.3202 21.8175 18.5353 22.0805 18.5353H27.832C28.0957 18.5353 28.3112 18.3198 28.3112 18.0565V15.1807C28.3112 14.917 28.0953 14.7011 27.8316 14.7011ZM9.35296 7.96068L11.0574 6.28627V7.96068H9.35296ZM12.0163 5.75075L21.3179 7.96068H12.0163V5.75075ZM27.3524 17.5769H22.5597V15.66H27.3528V17.5769H27.3524Z" fill="white"/>
</svg>
