<svg width="32" height="32" viewBox="0 0 32 32" fill="none" xmlns="http://www.w3.org/2000/svg">
<path d="M16 32C24.8366 32 32 24.8366 32 16C32 7.16344 24.8366 0 16 0C7.16344 0 0 7.16344 0 16C0 24.8366 7.16344 32 16 32Z" fill="#BF3939"/>
<path d="M16.6929 11.1194V8.26102H15.3897V11.1194C13.2693 11.2945 11.5073 12.3559 10.7825 14.7447C10.552 15.503 10.4263 16.3242 10.4263 17.1821C10.4263 17.6721 10.4675 18.1509 10.5458 18.6121C10.8762 20.5617 11.8697 22.0461 13.2203 22.8943V24.9689H11.4507C11.1291 24.9689 10.8681 25.2303 10.8681 25.5514C10.8681 25.8734 11.1291 26.134 11.4507 26.134H20.6327C20.9547 26.134 21.2157 25.8734 21.2157 25.5514C21.2157 25.2303 20.9547 24.9689 20.6327 24.9689H19.1183V22.7188C20.344 21.8433 21.238 20.4175 21.5422 18.5801C21.6166 18.1286 21.6563 17.6605 21.6563 17.1821C21.6563 16.3242 21.5307 15.503 21.3005 14.7447C20.5753 12.3555 18.8137 11.2945 16.6929 11.1194ZM11.697 18.0819C10.1078 16.7052 11.697 13.6856 11.697 13.6856H15.5301V18.0819H11.697ZM18.4679 24.9693H13.8692V23.2374C14.5381 23.535 15.2702 23.6974 16.0409 23.6974C16.9107 23.6974 17.7331 23.4946 18.4679 23.1175V24.9693ZM20.3848 18.0819H16.5514V13.6856H20.3848C20.3848 13.6856 21.9744 16.7052 20.3848 18.0819Z" fill="white"/>
<path d="M15.0941 8.26102H2.74707V9.41109H15.0941V8.26102Z" fill="white"/>
<path d="M29.3013 8.26102H16.9883V9.41109H29.3013V8.26102Z" fill="white"/>
</svg>
