<svg width="32" height="32" viewBox="0 0 32 32" fill="none" xmlns="http://www.w3.org/2000/svg">
<path d="M16 32C24.8366 32 32 24.8366 32 16C32 7.16344 24.8366 0 16 0C7.16344 0 0 7.16344 0 16C0 24.8366 7.16344 32 16 32Z" fill="#BF3939"/>
<path d="M10.3588 20.4399C10.7613 20.4399 11.0883 20.1133 11.0883 19.7104V18.0472C11.0883 17.6447 10.7613 17.3174 10.3588 17.3174C9.95633 17.3174 9.62939 17.6447 9.62939 18.0472V19.7104C9.62939 20.1129 9.95595 20.4399 10.3588 20.4399Z" fill="white"/>
<path d="M13.5168 13.905C13.9197 13.905 14.2462 13.5784 14.2462 13.1755V11.5131C14.2462 11.1102 13.9193 10.7836 13.5168 10.7836C13.1143 10.7836 12.7874 11.1102 12.7874 11.5131V13.1755C12.7874 13.578 13.1139 13.905 13.5168 13.905Z" fill="white"/>
<path d="M10.3588 13.905C10.7617 13.905 11.0883 13.5784 11.0883 13.1755V11.5131C11.0883 11.1102 10.7613 10.7836 10.3588 10.7836C9.95633 10.7836 9.62939 11.1102 9.62939 11.5131V13.1755C9.62939 13.578 9.95595 13.905 10.3588 13.905Z" fill="white"/>
<path d="M17.7272 13.905C18.1301 13.905 18.4567 13.5784 18.4567 13.1755V11.5131C18.4567 11.1102 18.1301 10.7836 17.7272 10.7836C17.3244 10.7836 16.9978 11.1102 16.9978 11.5131V13.1755C16.9982 13.578 17.3247 13.905 17.7272 13.905Z" fill="white"/>
<path d="M21.0983 20.4399C21.5012 20.4399 21.8282 20.1133 21.8282 19.7104V18.0472C21.8282 17.6447 21.5012 17.3174 21.0983 17.3174C20.6955 17.3174 20.3689 17.6447 20.3689 18.0472V19.7104C20.3689 20.1129 20.6955 20.4399 21.0983 20.4399Z" fill="white"/>
<path d="M21.0983 13.905C21.5012 13.905 21.8282 13.5784 21.8282 13.1755V11.5131C21.8282 11.1102 21.5012 10.7836 21.0983 10.7836C20.6955 10.7836 20.3689 11.1102 20.3689 11.5131V13.1755C20.3689 13.578 20.6955 13.905 21.0983 13.905Z" fill="white"/>
<path d="M24.31 7.29407H7.30489C6.90199 7.29407 6.57544 7.62062 6.57544 8.02351V23.7529C6.57544 24.1558 6.90199 24.4827 7.30489 24.4827H24.31C24.7129 24.4827 25.0394 24.1558 25.0394 23.7529V8.0239C25.0391 7.62101 24.7129 7.29407 24.31 7.29407ZM17.8267 22.8576H13.6925V17.8363H17.8271V22.8576H17.8267ZM23.5802 23.0238H19.2856V17.1065C19.2856 16.704 18.9587 16.3771 18.5558 16.3771H12.9631C12.5606 16.3771 12.2337 16.704 12.2337 17.1065V23.0238H8.03433V8.75296H23.5802V23.0238Z" fill="white"/>
</svg>
