<svg width="32" height="32" viewBox="0 0 32 32" fill="none" xmlns="http://www.w3.org/2000/svg">
<path d="M16 32C24.8366 32 32 24.8366 32 16C32 7.16344 24.8366 0 16 0C7.16344 0 0 7.16344 0 16C0 24.8366 7.16344 32 16 32Z" fill="#BF3939"/>
<path d="M20.4241 7.86012C20.8436 7.61414 20.9835 7.07439 20.7375 6.65492C20.4916 6.23545 19.9518 6.09511 19.5323 6.34108L3.29639 14.131C2.87692 14.3773 2.7362 14.9171 2.98295 15.3362C3.22892 15.756 3.76907 15.8967 4.18815 15.6504L20.4241 7.86012Z" fill="white"/>
<path d="M29.1212 18.3558L28.3374 16.1617H25.6332V15.3505H24.549V14.5042H19.6931V18.1788H12.5321V18.1202L8.25218 16.1559L21.4431 9.82643C21.8622 9.58045 22.0022 9.04069 21.7566 8.62122C21.5106 8.20175 20.9704 8.06142 20.5514 8.30739L4.31502 16.0973C3.89555 16.3432 3.75521 16.883 4.00157 17.3021C4.24793 17.7216 4.78731 17.8623 5.20678 17.6159L6.22114 17.129L6.17333 18.178H5.8861C5.40109 18.178 5.00784 18.5717 5.00784 19.0563C5.00784 19.5417 5.40109 19.9346 5.8861 19.9346H7.36312C7.3423 20.0364 7.33112 20.1416 7.33112 20.2496C7.33112 21.1298 8.04553 21.8438 8.92572 21.8438C9.8063 21.8438 10.5203 21.1298 10.5203 20.2496C10.5203 20.1416 10.5091 20.036 10.4883 19.9346H10.7597C10.7389 20.0364 10.7281 20.1416 10.7281 20.2496C10.7281 21.1298 11.4418 21.8438 12.3223 21.8438C13.2029 21.8438 13.9169 21.1298 13.9169 20.2496C13.9169 20.1416 13.9058 20.036 13.8853 19.9346H18.6757C18.6549 20.0364 18.6445 20.1416 18.6445 20.2496C18.6445 21.1298 19.3581 21.8438 20.2391 21.8438C21.1193 21.8438 21.8333 21.1298 21.8333 20.2496C21.8333 20.1416 21.8225 20.036 21.8021 19.9346H22.9868C22.9656 20.0364 22.9548 20.1416 22.9548 20.2496C22.9548 21.1298 23.6689 21.8438 24.5494 21.8438C25.43 21.8438 26.144 21.1298 26.144 20.2496C26.144 20.1416 26.1332 20.036 26.1124 19.9346H26.6236C27.1083 19.9346 27.5015 19.5413 27.5015 19.0563C27.5015 18.9021 27.4614 18.7579 27.392 18.6314L29.1212 18.3558Z" fill="white"/>
</svg>
