<svg width="32" height="32" viewBox="0 0 32 32" fill="none" xmlns="http://www.w3.org/2000/svg">
<path d="M16 32C24.8366 32 32 24.8366 32 16C32 7.16344 24.8366 0 16 0C7.16344 0 0 7.16344 0 16C0 24.8366 7.16344 32 16 32Z" fill="#BF3939"/>
<path d="M15.9922 24.7738C19.5496 24.7738 22.4331 21.8896 22.4331 18.3376C22.4331 14.7767 15.9922 5.20483 15.9922 5.20483C15.9922 5.20483 9.5498 14.7763 9.5498 18.3376C9.55019 21.8896 12.4325 24.7738 15.9922 24.7738ZM17.6446 14.2897C17.6446 14.2897 19.6221 17.3109 19.6221 18.3804C19.6221 19.4471 18.7342 20.3162 17.6446 20.3162C16.5497 20.3162 15.6614 19.4471 15.6614 18.3804C15.6614 17.3109 17.6446 14.2897 17.6446 14.2897Z" fill="white"/>
</svg>
