<svg width="32" height="32" viewBox="0 0 32 32" fill="none" xmlns="http://www.w3.org/2000/svg">
<path d="M16 32C24.8366 32 32 24.8366 32 16C32 7.16344 24.8366 0 16 0C7.16344 0 0 7.16344 0 16C0 24.8366 7.16344 32 16 32Z" fill="#BF3939"/>
<path d="M15.7628 4.17383C15.7628 4.17383 13.655 5.66164 13.655 10.6209H15.7628H17.8709C17.8713 5.66164 15.7628 4.17383 15.7628 4.17383Z" fill="white"/>
<path d="M17.8714 11.2205H13.6555V12.0571H17.8714V11.2205Z" fill="white"/>
<path d="M17.8714 12.6045H13.6555V25.5178H17.8714V12.6045Z" fill="white"/>
<path d="M13.1601 20.2321L10.3904 23.9927V26.57H13.1601V20.2321Z" fill="white"/>
<path d="M18.3257 20.2321L21.0954 23.9927V26.57H18.3257V20.2321Z" fill="white"/>
</svg>
