<svg width="32" height="32" viewBox="0 0 32 32" fill="none" xmlns="http://www.w3.org/2000/svg">
<path d="M16 32C24.8366 32 32 24.8366 32 16C32 7.16344 24.8366 0 16 0C7.16344 0 0 7.16344 0 16C0 24.8366 7.16344 32 16 32Z" fill="#BF3939"/>
<path d="M21.5125 24.1156H21.5117C21.509 24.1156 21.2206 24.357 20.8362 24.377C20.5764 24.3947 20.2968 24.1916 20.0015 23.8959C19.4479 23.3426 18.8491 23.0561 18.2334 23.0932C17.3297 23.1494 16.7695 23.8133 16.6974 23.9043C16.6967 23.9051 16.6967 23.8982 16.6967 23.8982C16.6932 23.902 16.4048 24.2479 16.0204 24.2679C15.7598 24.2864 15.4814 24.136 15.1853 23.8419C14.6325 23.2886 14.0333 23.1417 13.4176 23.178C12.5147 23.2343 11.9533 23.8137 11.8812 24.1152H11.8805C11.8774 24.1152 11.589 24.3566 11.205 24.3766C10.9474 24.3947 10.6652 24.1912 10.3699 23.8955C9.81704 23.3426 9.21791 23.0565 8.60181 23.0932C8.15651 23.1209 7.79718 23.272 7.5354 23.4567V24.8616C7.71198 24.8616 7.88779 24.7872 8.00692 24.6403C8.01 24.6361 8.29839 24.2868 8.68277 24.2667C8.94648 24.2552 9.22253 24.3963 9.51786 24.6916C10.0353 25.2086 10.5885 25.4704 11.1661 25.4704C11.2061 25.4704 11.2462 25.5078 11.286 25.5051C12.1889 25.4488 12.7502 25.0185 12.8223 24.7178H12.8227C12.8258 24.7178 13.1142 24.3257 13.4986 24.3057C13.7592 24.2949 14.0383 24.4159 14.3337 24.7117C14.8507 25.2291 15.4047 25.4804 15.9822 25.4804C16.0223 25.4804 16.0624 25.5128 16.1018 25.5109C17.0051 25.4542 17.5661 25.0193 17.6381 24.7182H17.6385C17.6416 24.7182 17.93 24.3261 18.3148 24.3065C18.5762 24.2957 18.8538 24.4163 19.1499 24.7124C19.6665 25.2298 20.2197 25.4808 20.7973 25.4808C20.8374 25.4808 20.8779 25.5136 20.9172 25.5113C21.8205 25.4546 22.3811 25.0201 22.4536 24.719C22.4543 24.719 22.4543 24.719 22.4543 24.719C22.4578 24.719 22.7458 24.3265 23.1302 24.3068C23.392 24.296 23.6696 24.4171 23.9649 24.7124C24.1041 24.852 24.2463 24.9522 24.3905 25.0536V23.481C23.9599 23.178 23.5088 23.1518 23.0485 23.1795C22.1463 23.2335 21.5846 23.8141 21.5125 24.1156Z" fill="white"/>
<path d="M20.1772 9.21562C21.0085 9.21562 21.6824 9.9682 21.6824 10.8711H22.5853C22.5853 9.36637 21.5078 8.31268 20.1776 8.31268L20.1772 9.21562Z" fill="white"/>
<path d="M11.2042 23.0604C11.5886 23.0407 11.877 22.6906 11.8801 22.6872C11.8801 22.6868 11.8801 22.6868 11.8801 22.6868C11.9526 22.595 12.5139 21.9172 13.4165 21.861C13.5638 21.8521 13.711 21.8613 13.856 21.8868V16.7398C13.856 15.7428 14.6649 15.0847 15.6619 15.0847H20.1774C22.5041 15.0847 24.3913 13.1978 24.3913 10.8703C24.3913 8.54279 22.5053 6.65594 20.1774 6.65594H13.5553C11.2278 6.65594 9.34131 8.5424 9.34131 10.8699C9.34131 10.9717 9.34941 10.8699 9.35673 11.1706H9.34131V21.9639C9.69601 22.0846 10.0407 22.3066 10.3692 22.6344C10.6649 22.9312 10.9463 23.0785 11.2042 23.0604ZM23.1873 10.7207C23.1873 12.3832 21.8402 13.731 20.1774 13.731C18.5145 13.731 17.167 12.3832 17.167 10.7207C17.167 9.05787 18.5145 7.7104 20.1774 7.7104C21.8402 7.7104 23.1873 9.05787 23.1873 10.7207Z" fill="white"/>
</svg>
