<svg width="32" height="32" viewBox="0 0 32 32" fill="none" xmlns="http://www.w3.org/2000/svg">
<path d="M16 32C24.8366 32 32 24.8366 32 16C32 7.16344 24.8366 0 16 0C7.16344 0 0 7.16344 0 16C0 24.8366 7.16344 32 16 32Z" fill="#BF3939"/>
<path d="M24.6515 23.7182L16.8713 9.67443C16.7024 9.37024 16.3812 9.18055 16.0316 9.17978C15.6838 9.17978 15.3626 9.36831 15.1938 9.67173L7.34953 23.7151C7.18414 24.0112 7.18838 24.3767 7.35956 24.6685C7.53074 24.9612 7.84804 25.1428 8.18732 25.1428H11.3673C11.8966 25.1428 12.3269 24.7121 12.3269 24.1828C12.3269 23.6538 11.8962 23.2232 11.3673 23.2232H9.82356L16.0285 12.1145L22.1837 23.2232H20.7066C20.1777 23.2232 19.747 23.6538 19.747 24.1832C19.747 24.7125 20.1777 25.1428 20.7066 25.1428H23.813C24.1503 25.1428 24.4672 24.9619 24.6403 24.6697C24.8111 24.3775 24.8158 24.0131 24.6515 23.7182Z" fill="white"/>
<path d="M14.1513 8.58796C14.3201 8.89524 14.6424 9.08608 14.9933 9.08608C15.1537 9.08608 15.3137 9.04522 15.4552 8.96734C15.919 8.71249 16.0894 8.12801 15.8345 7.66382L15.0943 6.31674C14.9254 6.00984 14.6031 5.819 14.2527 5.819C14.0923 5.819 13.9327 5.85987 13.7908 5.93775C13.566 6.06151 13.4025 6.26507 13.3312 6.51105C13.2595 6.75741 13.288 7.01649 13.4114 7.24126L14.1513 8.58796Z" fill="white"/>
<path d="M16.0004 20.8281C14.1721 20.8281 12.6843 22.3155 12.6843 24.1442C12.6843 24.6735 13.115 25.1038 13.6443 25.1038C14.1737 25.1038 14.6039 24.6735 14.6039 24.1442C14.6039 23.3742 15.2301 22.7481 16 22.7481C16.7695 22.7481 17.396 23.3742 17.396 24.1442C17.396 24.6735 17.8263 25.1038 18.3557 25.1038C18.8846 25.1038 19.3153 24.6735 19.3157 24.1442C19.3164 22.3159 17.8286 20.8281 16.0004 20.8281Z" fill="white"/>
<path d="M16.8861 8.96736C17.0272 9.04524 17.1868 9.08649 17.3476 9.08649C17.6977 9.08649 18.0204 8.89565 18.19 8.58837L18.9298 7.24167C19.1847 6.77748 19.0143 6.193 18.5509 5.93815C18.4098 5.86027 18.2498 5.81863 18.0886 5.81863C17.7385 5.81863 17.4162 6.00986 17.247 6.31676L16.5071 7.66345C16.3837 7.88823 16.3552 8.14769 16.4269 8.39406C16.4982 8.64042 16.6617 8.84398 16.8861 8.96736Z" fill="white"/>
</svg>
