<svg width="32" height="32" viewBox="0 0 32 32" fill="none" xmlns="http://www.w3.org/2000/svg">
<path d="M16 32C24.8366 32 32 24.8366 32 16C32 7.16344 24.8366 0 16 0C7.16344 0 0 7.16344 0 16C0 24.8366 7.16344 32 16 32Z" fill="#BF3939"/>
<path d="M12.5356 15.5695L12.447 15.5317C12.4109 15.5161 12.3732 15.5038 12.3359 15.4915L12.276 15.4718C12.0233 15.3795 11.7919 15.3192 11.5683 15.2885L11.4231 15.2679L11.4116 15.4144C11.3997 15.5633 11.3911 15.7135 11.3911 15.8648C11.3911 17.0742 11.7829 18.2482 12.4946 19.1696C13.0382 19.8736 13.7425 20.4028 14.5318 20.6989L14.6746 20.7531L14.7144 20.6058C14.7972 20.2977 14.8477 19.9691 14.8637 19.6287L14.8678 19.5318L14.7788 19.4937C14.5351 19.3911 14.3009 19.2578 14.0834 19.0966C13.1063 18.3738 12.5233 17.1661 12.5233 15.8652C12.5233 15.8238 12.5258 15.782 12.5279 15.7405L12.5356 15.5695Z" fill="white"/>
<path d="M12.9823 12.1749C13.162 12.4436 13.3646 12.684 13.5841 12.8891L13.6785 12.9773L13.7728 12.8891C14.4009 12.3037 15.1975 11.9813 16.0155 11.9813C16.8347 11.9813 17.6306 12.3037 18.2578 12.8891L18.3522 12.9773L18.4461 12.8891C18.6648 12.6848 18.8678 12.4448 19.0479 12.1749L19.1136 12.0777L19.0291 11.9973C18.1877 11.1973 17.1174 10.7571 16.0151 10.7571C14.9137 10.7571 13.8434 11.1977 13.0012 11.9973L12.9163 12.0777L12.9823 12.1749Z" fill="white"/>
<path d="M20.9306 13.3608C20.7423 13.3608 20.5512 13.3715 20.3616 13.394C21.0689 12.366 21.4549 11.073 21.4549 9.71306C21.4549 7.31118 19.7524 5.41675 19.0206 4.71362L18.7864 4.4884V6.06942L18.8225 6.10962C19.7762 7.15324 20.3227 8.46679 20.3227 9.71306C20.3227 10.8293 20.0043 11.8655 19.4013 12.7106C19.2085 12.9801 19.0272 13.193 18.8311 13.3801C18.043 14.1304 17.0413 14.5435 16.0108 14.5435C14.9786 14.5435 13.9764 14.1304 13.1888 13.3801C12.9792 13.1807 12.7843 12.9555 12.6092 12.7106C12.1345 12.0452 11.5688 10.9848 11.5688 9.71306C11.5688 8.36997 12.0648 7.05643 12.93 6.10962L12.9661 6.06942V4.4884L12.7314 4.71362C12.1932 5.2305 10.4374 7.11878 10.4374 9.71306C10.4374 11.0106 10.8546 12.3045 11.6185 13.3928C11.4363 13.3711 11.2595 13.3608 11.0774 13.3608C8.06261 13.3608 5.60986 16.0769 5.60986 19.4149C5.60986 19.7993 5.64884 20.2046 5.72473 20.6189L5.76698 20.8474L6.7868 20.0266L6.77901 19.9519C6.76096 19.7731 6.75194 19.593 6.75194 19.4149C6.75194 16.7509 8.70298 14.5837 11.1012 14.5837C11.2792 14.5837 11.4646 14.5993 11.6861 14.6333C11.9589 14.6735 12.2289 14.7433 12.4886 14.8401C14.2599 15.5034 15.4504 17.3416 15.4504 19.4149C15.4504 19.5597 15.4418 19.7021 15.4307 19.8436C15.4069 20.1455 15.3556 20.4508 15.2785 20.7506C14.7464 22.8087 13.0288 24.2462 11.102 24.2462C10.9822 24.2462 10.8567 24.2384 10.7086 24.2236L10.652 24.2175L9.44508 25.1926L9.69901 25.2672C10.1572 25.4014 10.6294 25.4695 11.102 25.4695C13.1982 25.4695 15.0947 24.1555 16.0161 22.0933C16.9375 24.1555 18.8339 25.4695 20.9298 25.4695C21.4984 25.4695 22.06 25.3727 22.6002 25.1811L22.8337 25.0982L21.6822 24.1682L21.6194 24.1793C21.3605 24.2244 21.1419 24.2458 20.9294 24.2458C19.0038 24.2458 17.2866 22.8083 16.7537 20.7502C16.6762 20.4512 16.6253 20.1455 16.6015 19.8436C16.59 19.7017 16.5818 19.5593 16.5818 19.4145C16.5818 17.3408 17.771 15.5026 19.5424 14.8397C19.8025 14.7433 20.0724 14.6731 20.3465 14.6329C20.5688 14.5993 20.7542 14.5837 20.9302 14.5837C23.328 14.5837 25.2786 16.7509 25.2786 19.4149C25.2786 19.4752 25.2749 19.5347 25.2712 19.5946L25.2626 19.7493L26.3099 20.5956L26.344 20.3535C26.387 20.0438 26.4096 19.7283 26.4096 19.4149C26.41 16.0769 23.9519 13.3608 20.9306 13.3608Z" fill="white"/>
<path d="M17.2538 19.4929L17.1693 19.5286V19.5639L17.166 19.5668L17.1689 19.6279C17.1853 19.968 17.2353 20.2966 17.3178 20.6046L17.3576 20.7523L17.5008 20.6982C18.8237 20.2014 19.8957 19.0372 20.3687 17.5833C20.4007 17.4849 20.4298 17.3848 20.4564 17.2834C20.5451 16.945 20.6025 16.6078 20.6271 16.2804C20.6361 16.1434 20.6419 16.0048 20.6419 15.8645C20.6419 15.7127 20.6333 15.5629 20.6209 15.414L20.6099 15.2676L20.4642 15.2881C20.3297 15.307 20.1996 15.3377 20.0901 15.3652C19.8994 15.414 19.7349 15.4682 19.5855 15.5318L19.4973 15.5691L19.5051 15.7369C19.5084 15.7795 19.5105 15.8222 19.5105 15.8645C19.5105 16.9643 19.0867 18.0169 18.3487 18.752C18.025 19.0745 17.6566 19.3239 17.2538 19.4929Z" fill="white"/>
</svg>
