<svg width="32" height="32" viewBox="0 0 32 32" fill="none" xmlns="http://www.w3.org/2000/svg">
<path d="M16 32C24.8366 32 32 24.8366 32 16C32 7.16344 24.8366 0 16 0C7.16344 0 0 7.16344 0 16C0 24.8366 7.16344 32 16 32Z" fill="#BF3939"/>
<path d="M15.9918 4.86749C9.87865 4.86749 4.90747 9.8406 4.90747 15.9518C4.90747 22.065 9.87865 27.0362 15.9918 27.0362C22.1034 27.0362 27.0761 22.065 27.0761 15.9518C27.0761 9.8406 22.103 4.86749 15.9918 4.86749ZM15.9918 6.39771C18.4188 6.39771 20.638 7.30797 22.3251 8.80619L19.9667 11.1665C19.8939 11.2409 19.8441 11.3288 19.8191 11.4244C18.7843 10.5485 17.4495 10.0203 15.9918 10.0203C14.5341 10.0203 13.1993 10.5481 12.1645 11.4244C12.1399 11.3288 12.0901 11.2405 12.0153 11.1665L9.65696 8.80619C11.3437 7.30836 13.5644 6.39771 15.9918 6.39771ZM15.9918 20.5444C13.4596 20.5444 11.3992 18.4845 11.3992 15.9518C11.3992 13.4192 13.4596 11.3593 15.9918 11.3593C18.524 11.3593 20.5844 13.4192 20.5844 15.9518C20.5844 18.4845 18.524 20.5444 15.9918 20.5444ZM6.4373 15.9518C6.4373 13.5248 7.34757 11.3057 8.8454 9.61891L11.2041 11.9773C11.2789 12.0517 11.3688 12.1018 11.4644 12.1246C10.5884 13.1593 10.0602 14.4945 10.0602 15.9518C10.0602 17.4092 10.588 18.7443 11.4644 19.7791C11.3688 19.8038 11.2789 19.8535 11.2041 19.9287L8.8454 22.2871C7.34834 20.5999 6.4373 18.3788 6.4373 15.9518ZM15.9918 25.5059C13.5648 25.5059 11.3437 24.5957 9.65658 23.0975L12.0149 20.7391C12.0897 20.6647 12.1414 20.5745 12.1641 20.4793C13.1989 21.3552 14.5341 21.8834 15.9914 21.8834C17.4488 21.8834 18.7839 21.3556 19.8187 20.4793C19.8418 20.5745 19.8912 20.6643 19.9664 20.7391L22.3267 23.0975C20.6395 24.5953 18.4184 25.5059 15.9918 25.5059ZM23.1378 22.2871L20.7775 19.9268C20.7051 19.8524 20.6148 19.8026 20.5212 19.7776C21.3956 18.7443 21.9234 17.4076 21.9234 15.9518C21.9234 14.4945 21.3956 13.1593 20.5192 12.1246C20.6145 12.1018 20.7043 12.0521 20.7772 11.9773L23.1374 9.61891C24.6353 11.3057 25.5455 13.5248 25.5455 15.9518C25.5459 18.3788 24.6349 20.5999 23.1378 22.2871Z" fill="white"/>
</svg>
