<svg width="32" height="32" viewBox="0 0 32 32" fill="none" xmlns="http://www.w3.org/2000/svg">
<path d="M16 32C24.8366 32 32 24.8366 32 16C32 7.16344 24.8366 0 16 0C7.16344 0 0 7.16344 0 16C0 24.8366 7.16344 32 16 32Z" fill="#BF3939"/>
<path d="M23.7772 15.9519C23.7772 15.3631 23.2405 14.8712 22.4625 14.6672V10.3391C23.2409 10.1352 23.7772 9.64363 23.7772 9.05452C23.7772 8.27766 22.8438 7.66888 21.6517 7.66888H10.3484C9.15668 7.66888 8.2229 8.27727 8.2229 9.05452C8.2229 9.64325 8.75996 10.1352 9.53837 10.3391V14.6672C8.75958 14.8708 8.2229 15.3628 8.2229 15.9519C8.2229 16.5406 8.75996 17.0329 9.53837 17.2361V21.5638C8.75958 21.7678 8.2229 22.2597 8.2229 22.8488C8.2229 23.6265 9.1563 24.2352 10.3484 24.2352H14.6052C14.9113 24.6698 15.414 24.9566 15.9854 24.9566C16.556 24.9566 17.0591 24.6698 17.3653 24.2352H21.6521C22.8442 24.2352 23.7776 23.6265 23.7776 22.8488C23.7776 22.2601 23.2409 21.7682 22.4629 21.5638V17.2361C23.2405 17.0325 23.7772 16.5406 23.7772 15.9519ZM16.3347 20.3401C14.6032 20.3401 13.1945 18.9313 13.1945 17.2003C13.1945 15.586 15.7522 12.4138 16.044 12.0571C16.1153 11.97 16.2217 11.9199 16.3347 11.9199C16.4473 11.9199 16.5537 11.9704 16.625 12.0571C16.9165 12.4138 19.4746 15.586 19.4746 17.2003C19.4746 18.9313 18.0654 20.3401 16.3347 20.3401Z" fill="white"/>
</svg>
