<svg width="32" height="32" viewBox="0 0 32 32" fill="none" xmlns="http://www.w3.org/2000/svg">
<path d="M16 32C24.8366 32 32 24.8366 32 16C32 7.16344 24.8366 0 16 0C7.16344 0 0 7.16344 0 16C0 24.8366 7.16344 32 16 32Z" fill="#BF3939"/>
<path fill-rule="evenodd" clip-rule="evenodd" d="M17.6487 22.3847C17.6487 23.2752 16.9234 24.0034 16.0304 24.0034C15.1374 24.0034 14.4126 23.2752 14.4126 22.3847C14.4126 21.4908 15.137 20.7651 16.0304 20.7651C16.9234 20.7651 17.6487 21.4908 17.6487 22.3847ZM16.8744 22.3843C16.8744 21.9187 16.4956 21.5386 16.0304 21.5386C15.5652 21.5386 15.1877 21.9187 15.1873 22.3843C15.1873 22.8494 15.5652 23.2274 16.0304 23.2274C16.4956 23.2274 16.8744 22.849 16.8744 22.3843Z" fill="white"/>
<path fill-rule="evenodd" clip-rule="evenodd" d="M12.7046 5.09576H19.452C21.5896 5.09576 23.3253 6.83443 23.3253 8.97242V22.2588C23.3253 24.3935 21.5892 26.1325 19.4516 26.1325H12.7046C10.5724 26.1325 8.82959 24.3939 8.82959 22.2588V8.972C8.82959 6.83443 10.5724 5.09576 12.7046 5.09576ZM19.452 24.583C20.7335 24.583 21.7754 23.5411 21.7754 22.2592H21.7758V20.0869H10.3808V22.2592C10.3808 23.5411 11.4214 24.583 12.7046 24.583H19.452ZM10.3808 19.3104H21.7758V9.93969H10.3808V19.3104ZM10.3808 9.16621H21.7754V8.97242C21.7754 7.68929 20.733 6.64735 19.4516 6.64735H12.7046C11.4214 6.64735 10.3808 7.68971 10.3808 8.97242V9.16621Z" fill="white"/>
</svg>
