<svg width="32" height="32" viewBox="0 0 32 32" fill="none" xmlns="http://www.w3.org/2000/svg">
<path d="M16 32C24.8366 32 32 24.8366 32 16C32 7.16344 24.8366 0 16 0C7.16344 0 0 7.16344 0 16C0 24.8366 7.16344 32 16 32Z" fill="#BF3939"/>
<path d="M17.5468 19.3303C19.9295 19.2868 24.2286 18.816 27.584 16.4295C24.31 15.5485 19.8423 17.0063 17.5021 18.1182C17.4955 18.1047 17.484 18.0954 17.4782 18.0839C19.8223 16.4496 24.0316 13.0919 25.3286 7.8751C20.5656 9.98749 17.932 14.663 16.7514 17.3459C16.7279 17.3317 16.7106 17.3143 16.6886 17.3031C17.5129 13.9408 18.4397 7.49264 16.0023 2.50604C13.5599 7.49264 14.4883 13.9412 15.3153 17.3031C15.2891 17.3136 15.2721 17.3309 15.2505 17.3459C14.0684 14.6633 11.4348 9.98749 6.67606 7.87549C7.9711 13.0926 12.1781 16.4499 14.5245 18.0843C14.5176 18.0958 14.5068 18.1051 14.4983 18.1186C12.1585 17.0063 7.69274 15.5497 4.41602 16.4299C7.771 18.8156 12.0694 19.2871 14.4548 19.3307C14.4632 19.3535 14.4594 19.3828 14.4675 19.4059C12.4515 19.6511 9.19635 20.3135 7.59712 22.1378C10.3002 22.6209 13.1644 21.1088 14.7397 20.1095C13.8564 20.9207 12.6554 23.5509 12.6554 25.1416C14.1984 24.5941 15.0674 21.6154 15.5343 20.3566C15.5482 20.3617 15.5632 20.3617 15.5759 20.3674L15.367 29.5079H16.6342L16.4257 20.3674C16.438 20.3609 16.4538 20.3609 16.4665 20.3566C16.9315 21.6154 17.8024 24.5934 19.3431 25.1416C19.3431 23.5509 18.1448 20.9211 17.2619 20.1095C18.8357 21.1081 21.703 22.6209 24.4029 22.1378C22.806 20.3135 19.5485 19.6511 17.5329 19.4059C17.5391 19.3824 17.5391 19.3523 17.5468 19.3303Z" fill="white"/>
</svg>
