<svg width="32" height="32" viewBox="0 0 32 32" fill="none" xmlns="http://www.w3.org/2000/svg">
<path d="M16 32C24.8366 32 32 24.8366 32 16C32 7.16344 24.8366 0 16 0C7.16344 0 0 7.16344 0 16C0 24.8366 7.16344 32 16 32Z" fill="#BF3939"/>
<path d="M17.0191 8.97271C14.2065 7.14447 12.4423 7.35961 11.7256 7.58746V7.11556C11.7256 6.91238 11.5606 6.74698 11.3566 6.74698C11.1527 6.74698 10.988 6.91199 10.988 7.11556V26.5681C10.988 26.7717 11.1527 26.9367 11.3566 26.9367C11.5606 26.9367 11.7256 26.7717 11.7256 26.5681V16.3123C12.4423 16.0837 14.2065 15.8685 17.0191 17.6971C20.7943 20.1504 23.6253 17.6971 23.6253 17.6971V8.97271C23.6246 8.97271 20.7943 11.4263 17.0191 8.97271Z" fill="white"/>
</svg>
