<svg width="32" height="32" viewBox="0 0 32 32" fill="none" xmlns="http://www.w3.org/2000/svg">
<path d="M16 32C24.8366 32 32 24.8366 32 16C32 7.16344 24.8366 0 16 0C7.16344 0 0 7.16344 0 16C0 24.8366 7.16344 32 16 32Z" fill="#BF3939"/>
<path fill-rule="evenodd" clip-rule="evenodd" d="M14.8965 12.4384C15.0955 12.1194 15.4941 12.0402 15.7723 12.2397C16.0908 12.4379 16.1712 12.8365 15.9717 13.1138L14.9365 14.7875L15.7327 15.6636C15.8522 15.8231 15.9322 16.0209 15.8922 16.22L15.4941 18.49C15.4941 18.7494 15.3071 18.9227 15.0668 18.9814C14.9931 19.0293 14.9094 19.0659 14.817 19.0871L10.3174 19.8838C10.2778 19.8438 10.2383 19.8438 10.1983 19.8438C9.8797 19.8438 9.64067 19.6456 9.56113 19.3266L8.28726 12.1194C8.27352 12.0652 8.27268 12.0065 8.27768 11.9474C8.19731 11.7308 8.23937 11.4789 8.40678 11.2836L13.5826 5.51097C13.7817 5.27194 14.1003 5.23238 14.3789 5.39145L21.2667 9.0948C21.3812 9.15186 21.4591 9.24555 21.5186 9.34966C21.6286 9.44378 21.7098 9.57537 21.7448 9.73153L23.0195 16.9379C23.0594 17.0962 23.0195 17.2961 22.8995 17.4156C22.8204 17.5751 22.6609 17.6542 22.5014 17.6938L18.1222 18.4504C17.7636 18.5308 17.4447 18.2909 17.3647 17.9328C17.2843 17.5751 17.5246 17.2553 17.8832 17.1765L21.6252 16.5402L20.5904 10.6073L9.68065 12.5183L10.7155 18.4904L14.3318 17.8574L14.6175 16.3004L13.7017 15.3051C13.5027 15.106 13.4631 14.7879 13.6222 14.5488L14.8965 12.4384ZM19.2974 9.51166L14.2198 6.78443L10.324 11.0949L19.2974 9.51166Z" fill="white"/>
<path d="M27.0406 22.4316L22.6205 20.0029C22.3819 19.8834 22.1433 19.9238 21.9443 20.0433L19.5548 21.6757L17.5246 20.76C17.2061 20.6009 16.8479 20.76 16.6884 21.0786C16.5289 21.3976 16.6884 21.7561 17.0074 21.9152L19.3565 22.99C19.556 23.1087 19.795 23.0695 19.9941 22.95L22.3424 21.3576L26.4039 23.548C26.4281 23.5561 26.4507 23.5642 26.4724 23.572C26.5574 23.6024 26.6277 23.6276 26.7233 23.6276C26.9623 23.6276 27.1618 23.508 27.3204 23.3077C27.4783 22.9896 27.3587 22.5915 27.0406 22.4316Z" fill="white"/>
<path d="M14.7771 20.7204L10.1984 21.7161L8.84455 20.1632C8.64507 19.9246 8.28736 19.8846 8.00835 20.0837L4.70352 22.4332C4.42493 22.6722 4.34539 23.0699 4.54444 23.3489C4.66354 23.5484 4.86302 23.6279 5.06207 23.6279C5.18159 23.6279 5.34067 23.588 5.38064 23.468L8.24738 21.4379L9.48169 22.8317C9.64077 22.9912 9.8798 23.0699 10.1188 23.0308L15.0557 21.956C15.3742 21.8773 15.6129 21.5579 15.5333 21.1997C15.4542 20.8795 15.1356 20.6409 14.7771 20.7204Z" fill="white"/>
</svg>
