<svg width="32" height="32" viewBox="0 0 32 32" fill="none" xmlns="http://www.w3.org/2000/svg">
<path d="M16 32C24.8366 32 32 24.8366 32 16C32 7.16344 24.8366 0 16 0C7.16344 0 0 7.16344 0 16C0 24.8366 7.16344 32 16 32Z" fill="#BF3939"/>
<path fill-rule="evenodd" clip-rule="evenodd" d="M25.631 16.3918L24.4721 17.1649C24.2723 17.2971 24.0118 17.3629 23.75 17.3629C23.4882 17.3629 23.2264 17.2971 23.0279 17.1649L21.869 16.3918C21.78 16.332 21.6773 16.2862 21.5691 16.2537L21.5841 10.7411L22.3798 11.5363C22.5492 11.7057 22.823 11.7057 22.9924 11.5363C23.1622 11.3669 23.1622 11.0923 22.9924 10.9229L16.2456 4.17521C16.0761 4.0058 15.8019 4.0058 15.6325 4.17521L8.88572 10.9224H8.88486C8.71545 11.0919 8.71545 11.3665 8.88486 11.5359C9.0547 11.7053 9.32934 11.7053 9.49832 11.5359H9.49875L10.2974 10.7364L10.282 16.2635C10.1862 16.2952 10.096 16.3384 10.016 16.3914L8.85705 17.1645C8.65813 17.2966 8.39674 17.3625 8.13536 17.3625C7.87397 17.3625 7.61216 17.2966 7.41323 17.1645L6.25433 16.3914C6.0554 16.2584 5.79445 16.1925 5.53263 16.1925H5.52964V17.0596H5.53263C5.66012 17.0596 5.74568 17.0939 5.77348 17.1131L6.93239 17.8857C7.26522 18.1077 7.69216 18.2297 8.13536 18.2297C8.57813 18.2297 9.00507 18.1077 9.33833 17.8857L10.4972 17.1131C10.525 17.0939 10.6102 17.0596 10.7381 17.0596C10.8656 17.0596 10.9507 17.0939 10.9789 17.1131L12.1378 17.8857C12.4707 18.1077 12.8976 18.2297 13.3404 18.2297C13.7832 18.2297 14.2101 18.1077 14.5433 17.8857L15.7023 17.1131C15.7301 17.0939 15.8152 17.0596 15.9431 17.0596C16.0706 17.0596 16.1557 17.0939 16.184 17.1131L17.3433 17.8857C17.6757 18.1077 18.1026 18.2297 18.5463 18.2297C18.9882 18.2297 19.4147 18.1077 19.7484 17.8857L20.9073 17.1131C20.9351 17.0939 21.0202 17.0596 21.1481 17.0596C21.2756 17.0596 21.3603 17.0939 21.389 17.1131L22.5475 17.8857C22.8807 18.1077 23.3076 18.2297 23.7508 18.2297C24.1932 18.2297 24.6201 18.1077 24.9534 17.8857L26.1123 17.1131C26.1401 17.0943 26.224 17.0609 26.3497 17.0596V16.1925C26.0879 16.1938 25.8278 16.2597 25.631 16.3918ZM15.9427 16.1929C15.6817 16.1929 15.4199 16.2588 15.221 16.3918L15.0717 16.4911V13.5906H16.8068V16.486L16.6644 16.3918C16.465 16.2588 16.2041 16.1929 15.9427 16.1929ZM19.2667 17.1645C19.0673 17.2966 18.8072 17.3625 18.5445 17.3625C18.284 17.3625 18.0218 17.2966 17.8224 17.1645L17.6735 17.0648V13.1568C17.6735 12.9173 17.4789 12.723 17.2402 12.723H14.6375C14.397 12.723 14.2032 12.9177 14.2032 13.1568C14.2032 13.1671 14.2037 13.1778 14.205 13.1881H14.2032V17.0686L14.0608 17.1645C13.8619 17.2966 13.6005 17.3625 13.3391 17.3625C13.0777 17.3625 12.8159 17.2966 12.617 17.1645L11.4581 16.3914C11.3661 16.3298 11.2613 16.2836 11.1488 16.2502L11.1667 9.86664L15.938 5.09541L20.7182 9.8752L20.7002 16.2601C20.6001 16.2922 20.5069 16.3358 20.4239 16.3914L19.2667 17.1645Z" fill="white"/>
<path d="M24.4723 20.4829C24.2725 20.6155 24.012 20.6818 23.7501 20.6818C23.4883 20.6818 23.2265 20.6155 23.028 20.4829L21.8691 19.7103C21.6698 19.5772 21.4092 19.5114 21.147 19.5114C20.8856 19.5114 20.6234 19.5772 20.4249 19.7103L19.266 20.4829C19.0666 20.6155 18.8065 20.6818 18.5438 20.6818C18.2833 20.6818 18.0211 20.6155 17.8217 20.4829L16.6628 19.7103C16.4639 19.5772 16.2029 19.5114 15.9411 19.5114C15.6802 19.5114 15.4183 19.5772 15.2194 19.7103L14.0605 20.4829C13.8616 20.6155 13.6002 20.6818 13.3388 20.6818C13.0774 20.6818 12.8156 20.6155 12.6167 20.4829L11.4578 19.7103C11.2589 19.5772 10.9979 19.5114 10.7361 19.5114C10.4751 19.5114 10.2133 19.5772 10.0144 19.7103L8.85549 20.4829C8.65656 20.6155 8.39518 20.6818 8.13379 20.6818C7.87241 20.6818 7.6106 20.6155 7.41167 20.4829L6.25277 19.7103C6.05384 19.5772 5.79288 19.5114 5.53107 19.5114H5.52808V20.3789H5.53107C5.65855 20.3789 5.74411 20.4132 5.77192 20.432L6.93083 21.2046C7.26365 21.4262 7.6906 21.5481 8.13337 21.5481C8.57614 21.5481 9.00308 21.4262 9.33634 21.2046L10.4952 20.432C10.523 20.4132 10.6082 20.3789 10.7361 20.3789C10.8636 20.3789 10.9487 20.4132 10.9769 20.432L12.1358 21.2046C12.4687 21.4262 12.8956 21.5481 13.3384 21.5481C13.7812 21.5481 14.2081 21.4262 14.5414 21.2046L15.7003 20.432C15.7281 20.4132 15.8132 20.3789 15.9411 20.3789C16.0686 20.3789 16.1537 20.4132 16.182 20.432L17.3409 21.2046C17.6737 21.4262 18.1006 21.5481 18.5438 21.5481C18.9858 21.5481 19.4131 21.4262 19.7459 21.2046L20.9049 20.432C20.9331 20.4132 21.0178 20.3789 21.1461 20.3789C21.2736 20.3789 21.3579 20.4132 21.3866 20.432L22.545 21.2046C22.8783 21.4262 23.3052 21.5481 23.7484 21.5481C24.1908 21.5481 24.6177 21.4262 24.951 21.2046L26.1099 20.432C26.1377 20.4132 26.2215 20.3794 26.3473 20.3789V19.5114C26.0872 19.5122 25.8262 19.5785 25.6299 19.7103L24.4723 20.4829Z" fill="white"/>
<path d="M23.7501 24.0003C24.012 24.0003 24.2725 23.9344 24.4723 23.8013L25.6299 23.0292C25.8262 22.8974 26.0872 22.8315 26.3473 22.8311V23.6982C26.2215 23.6982 26.1377 23.7329 26.1099 23.7504L24.951 24.5235C24.6177 24.7459 24.1908 24.8678 23.7484 24.8678C23.3052 24.8678 22.8783 24.7459 22.545 24.5235L21.3866 23.7504C21.3579 23.7329 21.2736 23.6982 21.1461 23.6982C21.0178 23.6982 20.9331 23.7329 20.9049 23.7504L19.7459 24.5235C19.4131 24.7459 18.9858 24.8678 18.5438 24.8678C18.1006 24.8678 17.6737 24.7459 17.3409 24.5235L16.182 23.7504C16.1537 23.7329 16.0686 23.6982 15.9411 23.6982C15.8132 23.6982 15.7281 23.7329 15.7003 23.7504L14.5414 24.5235C14.2081 24.7459 13.7812 24.8678 13.3384 24.8678C12.8956 24.8678 12.4687 24.7459 12.1358 24.5235L10.9769 23.7504C10.9487 23.7329 10.8636 23.6982 10.7361 23.6982C10.6082 23.6982 10.523 23.7329 10.4952 23.7504L9.33634 24.5235C9.00308 24.7459 8.57614 24.8678 8.13337 24.8678C7.6906 24.8678 7.26365 24.7459 6.93083 24.5235L5.77192 23.7504C5.74411 23.7329 5.65855 23.6982 5.53107 23.6982H5.52808V22.8307H5.53107C5.79288 22.8307 6.05384 22.8961 6.25277 23.0287L7.41167 23.8013C7.6106 23.9344 7.87241 24.0003 8.13379 24.0003C8.39518 24.0003 8.65656 23.9344 8.85549 23.8013L10.0144 23.0287C10.2133 22.8961 10.4751 22.8307 10.7361 22.8307C10.9979 22.8307 11.2589 22.8961 11.4578 23.0287L12.6167 23.8013C12.8156 23.9344 13.0774 24.0003 13.3388 24.0003C13.6002 24.0003 13.8616 23.9344 14.0605 23.8013L15.2194 23.0287C15.4183 22.8961 15.6793 22.8307 15.9411 22.8307C16.2029 22.8307 16.4639 22.8961 16.6628 23.0287L17.8217 23.8013C18.0211 23.9344 18.282 24.0003 18.5438 24.0003C18.8065 24.0003 19.0666 23.9344 19.266 23.8013L20.4249 23.0287C20.6234 22.8961 20.8856 22.8307 21.147 22.8307C21.4092 22.8307 21.6698 22.8961 21.8691 23.0287L23.028 23.8013C23.2265 23.9344 23.4883 24.0003 23.7501 24.0003Z" fill="white"/>
</svg>
