<svg width="32" height="32" viewBox="0 0 32 32" fill="none" xmlns="http://www.w3.org/2000/svg">
<path d="M16 32C24.8366 32 32 24.8366 32 16C32 7.16344 24.8366 0 16 0C7.16344 0 0 7.16344 0 16C0 24.8366 7.16344 32 16 32Z" fill="#BF3939"/>
<path d="M25.9596 21.1696C25.529 21.1696 25.0989 21.3422 24.643 21.525C24.1442 21.7248 23.6287 21.9319 23.0596 21.9319C22.4898 21.9319 21.975 21.7248 21.4754 21.525C21.0204 21.3422 20.5898 21.1696 20.1596 21.1696C19.7283 21.1696 19.2989 21.3422 18.843 21.525C18.3438 21.7248 17.8287 21.9319 17.2589 21.9319C16.6902 21.9319 16.1739 21.7248 15.6755 21.525C15.22 21.3422 14.7899 21.1696 14.3593 21.1696C13.9287 21.1696 13.4982 21.3422 13.0427 21.525C12.5439 21.7248 12.0284 21.9319 11.4589 21.9319C10.8899 21.9319 10.3739 21.7248 9.87555 21.525C9.42007 21.3422 8.9895 21.1696 8.55894 21.1696C7.96456 21.1696 7.36202 21.3897 6.72312 21.6224C6.5107 21.7 6.29337 21.7755 6.07482 21.8462C6.21821 22.0525 6.36813 22.2544 6.52336 22.4513C7.17043 22.2215 7.83997 21.9875 8.55894 21.9875C9.12839 21.9875 9.64393 22.1943 10.1427 22.3945C10.5986 22.5776 11.0288 22.7498 11.4589 22.7498C11.8895 22.7498 12.3196 22.5776 12.7755 22.3945C13.2739 22.1943 13.7898 21.9875 14.3589 21.9875C14.9283 21.9875 15.4439 22.1943 15.9427 22.3945C16.3981 22.5776 16.8283 22.7498 17.2589 22.7498C17.6894 22.7498 18.1196 22.5776 18.5755 22.3945C19.0738 22.1943 19.5898 21.9875 20.1592 21.9875C20.7287 21.9875 21.2442 22.1943 21.743 22.3945C22.1985 22.5776 22.6282 22.7498 23.0588 22.7498C23.4894 22.7498 23.9195 22.5776 24.3754 22.3945C24.8742 22.1943 25.3897 21.9875 25.9592 21.9875C26.087 21.9875 26.212 21.9965 26.3366 22.0103C26.5045 21.7763 26.6671 21.5375 26.8183 21.291C26.5315 21.2175 26.2472 21.1696 25.9596 21.1696Z" fill="white"/>
<path d="M23.0596 23.5126C22.4898 23.5126 21.975 23.3054 21.4754 23.1056C21.0204 22.9229 20.5898 22.7502 20.1596 22.7502C19.7283 22.7502 19.2989 22.9229 18.843 23.1056C18.3438 23.3054 17.8287 23.5126 17.2589 23.5126C16.6902 23.5126 16.1739 23.3054 15.6755 23.1056C15.22 22.9229 14.7899 22.7502 14.3593 22.7502C13.9287 22.7502 13.4982 22.9229 13.0427 23.1056C12.5439 23.3054 12.0284 23.5126 11.4589 23.5126C10.8899 23.5126 10.3739 23.3054 9.87555 23.1056C9.42007 22.9229 8.9895 22.7502 8.55894 22.7502C8.06833 22.7502 7.57158 22.9009 7.05401 23.0841C7.24029 23.292 7.43433 23.4914 7.63449 23.6856C7.93474 23.6153 8.24153 23.5682 8.55853 23.5682C9.12799 23.5682 9.64352 23.7753 10.1423 23.9751C10.5982 24.1583 11.0283 24.3305 11.4585 24.3305C11.8891 24.3305 12.3192 24.1583 12.7751 23.9751C13.2735 23.7753 13.7894 23.5682 14.3585 23.5682C14.9279 23.5682 15.4435 23.7753 15.9422 23.9751C16.3977 24.1583 16.8279 24.3305 17.2584 24.3305C17.689 24.3305 18.1192 24.1583 18.5751 23.9751C19.0734 23.7753 19.5894 23.5682 20.1588 23.5682C20.7283 23.5682 21.2438 23.7753 21.7426 23.9751C22.1981 24.1583 22.6278 24.3305 23.0584 24.3305C23.489 24.3305 23.9191 24.1583 24.375 23.9751C24.4951 23.9272 24.6168 23.8789 24.7398 23.8322C25.0964 23.4975 25.4347 23.1434 25.7496 22.7689C25.3885 22.8124 25.0249 22.9521 24.643 23.1052C24.1442 23.3054 23.6287 23.5126 23.0596 23.5126Z" fill="white"/>
<path d="M21.4754 24.6863C21.0204 24.5035 20.5898 24.3309 20.1596 24.3309C19.7283 24.3309 19.2989 24.5035 18.843 24.6863C18.3438 24.8861 17.8287 25.0936 17.2589 25.0936C16.6902 25.0936 16.1739 24.8861 15.6755 24.6863C15.22 24.5035 14.7899 24.3309 14.3593 24.3309C13.9287 24.3309 13.4982 24.5035 13.0427 24.6863C12.5439 24.8861 12.0284 25.0936 11.4589 25.0936C10.8899 25.0936 10.3739 24.8861 9.87555 24.6863C9.42007 24.5035 8.9895 24.3309 8.55894 24.3309C8.49317 24.3309 8.4274 24.3346 8.36163 24.3394C8.89922 24.7846 9.47685 25.183 10.0859 25.5335C10.1047 25.5412 10.1239 25.5481 10.1427 25.5562C10.5986 25.739 11.0288 25.9112 11.4589 25.9112C11.8895 25.9112 12.3196 25.739 12.7755 25.5562C13.2739 25.356 13.7898 25.1489 14.3589 25.1489C14.9283 25.1489 15.4439 25.356 15.9427 25.5562C16.3981 25.739 16.8283 25.9112 17.2589 25.9112C17.6894 25.9112 18.1196 25.739 18.5755 25.5562C19.0738 25.356 19.5898 25.1489 20.1592 25.1489C20.7287 25.1489 21.2442 25.356 21.743 25.5562C21.8758 25.6098 22.0065 25.6602 22.136 25.7081C22.4898 25.5172 22.8333 25.3109 23.1654 25.0887C23.1299 25.09 23.0952 25.0936 23.0596 25.0936C22.4898 25.0932 21.975 24.8861 21.4754 24.6863Z" fill="white"/>
<path d="M18.8434 26.2665C18.3443 26.4663 17.8291 26.6739 17.2593 26.6739C16.6906 26.6739 16.1743 26.4663 15.6759 26.2665C15.2204 26.0838 14.7903 25.9112 14.3597 25.9112C13.9291 25.9112 13.4986 26.0838 13.0431 26.2665C12.8045 26.362 12.5615 26.4594 12.311 26.5346C12.7012 26.6653 13.0995 26.7774 13.5051 26.8696C13.7788 26.7868 14.0615 26.7295 14.3593 26.7295C14.9287 26.7295 15.4443 26.9362 15.9431 27.1365C15.9757 27.1499 16.008 27.162 16.0403 27.1746C16.1155 27.1763 16.1894 27.1807 16.2641 27.1807C18.0195 27.1807 19.6886 26.8144 21.2005 26.1585C20.8451 26.0216 20.5016 25.9112 20.1592 25.9112C19.7287 25.9112 19.2989 26.0838 18.8434 26.2665Z" fill="white"/>
<path d="M8.61817 18.823C9.18763 18.823 9.70316 19.0301 10.2015 19.2303C10.6574 19.4127 11.0876 19.5853 11.5181 19.5853C11.9487 19.5853 12.3789 19.4127 12.8348 19.2303C13.3331 19.0301 13.8491 18.823 14.4181 18.823C14.9876 18.823 15.5035 19.0301 16.0019 19.2303C16.4574 19.4127 16.8875 19.5853 17.3181 19.5853C17.7487 19.5853 18.1788 19.4127 18.6347 19.2303C19.1339 19.0301 19.649 18.823 20.2185 18.823C20.7875 18.823 21.3035 19.0301 21.8018 19.2303C22.2573 19.4127 22.6879 19.5853 23.1184 19.5853C23.5486 19.5853 23.9796 19.4127 24.4351 19.2303C24.7876 19.0886 25.1499 18.9448 25.5331 18.8717C21.1401 18.4562 15.2666 17.0591 15.2666 13.144C15.2666 11.1308 16.5256 10.4835 17.6874 10.7929C18.0023 10.877 18.7711 11.3948 18.2838 12.2347C17.9333 12.8386 17.0452 12.7359 17.0824 12.9255C17.111 13.0717 17.2217 13.1928 17.3671 13.2947C20.015 15.1479 23.9739 11.3079 19.977 8.03369C15.2837 4.18804 6.21167 7.15848 5.6557 15.0622C5.56297 16.3825 5.58135 17.9969 5.63405 19.5946C5.89222 19.5195 6.15816 19.4301 6.4388 19.3314C7.15042 19.0813 7.88695 18.823 8.61817 18.823Z" fill="white"/>
<path d="M24.7026 19.8891C24.2034 20.0889 23.6875 20.2964 23.1184 20.2964C22.549 20.2964 22.0339 20.0889 21.5355 19.8891C21.08 19.7063 20.6494 19.5333 20.2189 19.5333C19.7879 19.5333 19.3578 19.7063 18.9019 19.8891C18.4035 20.0889 17.8875 20.2964 17.3181 20.2964C16.749 20.2964 16.2335 20.0889 15.7347 19.8891C15.2792 19.7063 14.8491 19.5333 14.4185 19.5333C13.988 19.5333 13.5578 19.7063 13.1019 19.8891C12.6031 20.0889 12.0876 20.2964 11.5181 20.2964C10.9491 20.2964 10.4327 20.0889 9.93437 19.8891C9.47889 19.7063 9.04873 19.5333 8.61817 19.5333C8.0095 19.5333 7.33179 19.7717 6.67655 20.002C6.34076 20.1193 5.99353 20.2412 5.6606 20.3285L5.65978 20.3244C5.67081 20.6262 5.68307 20.9247 5.69573 21.2195C5.94941 21.1432 6.20636 21.0542 6.47638 20.9556C7.14551 20.7115 7.83711 20.4589 8.55853 20.4589C9.12798 20.4589 9.64352 20.6656 10.1423 20.8658C10.5978 21.0482 11.0279 21.2212 11.4585 21.2212C11.8891 21.2212 12.3192 21.0482 12.7747 20.8658C13.2735 20.6656 13.789 20.4589 14.3585 20.4589C14.9275 20.4589 15.4435 20.6656 15.9422 20.8658C16.3977 21.0482 16.8283 21.2212 17.2584 21.2212C17.6894 21.2212 18.1192 21.0482 18.5746 20.8658C19.0742 20.6656 19.5898 20.4589 20.1588 20.4589C20.7287 20.4589 21.2438 20.6656 21.743 20.8658C22.1977 21.0482 22.6282 21.2212 23.0588 21.2212C23.4894 21.2212 23.9195 21.0482 24.3754 20.8658C24.8742 20.6656 25.3897 20.4589 25.9588 20.4589C26.382 20.4589 26.788 20.5405 27.1827 20.6542C27.3199 20.3975 27.447 20.1352 27.5662 19.8679C27.0405 19.6856 26.5352 19.5329 26.0192 19.5329C25.5883 19.5333 25.1585 19.7063 24.7026 19.8891Z" fill="white"/>
</svg>
