<svg width="32" height="32" viewBox="0 0 32 32" fill="none" xmlns="http://www.w3.org/2000/svg">
<path d="M16 32C24.8366 32 32 24.8366 32 16C32 7.16344 24.8366 0 16 0C7.16344 0 0 7.16344 0 16C0 24.8366 7.16344 32 16 32Z" fill="#BF3939"/>
<path d="M8.52214 8.53493C6.50807 10.5748 5.39771 13.2605 5.39771 16.1266C5.39771 18.9928 6.50807 21.6785 8.54797 23.7184C10.6395 25.8103 13.3769 26.8428 16.1397 26.8428C18.9029 26.8428 21.6398 25.8099 23.731 23.7184C25.7455 21.7039 26.8813 18.9928 26.8813 16.1266C26.8813 13.2605 25.7713 10.5748 23.731 8.53493C19.5228 4.3518 12.7053 4.3518 8.52214 8.53493ZM19.2899 11.8402C18.1796 10.4973 17.5858 8.79286 17.56 7.06293C19.1608 7.32125 20.7103 7.99248 22.0273 9.10322L19.2899 11.8402ZM18.2058 12.9505L16.1142 15.0421L10.2008 9.12867C11.8794 7.70833 13.9448 6.98544 16.0109 6.95961C16.0109 9.1545 16.7855 11.2719 18.2058 12.9505ZM15.0297 16.1266L12.9381 18.2182C11.2595 16.7979 9.14209 16.0233 6.9472 16.0492C6.97303 13.9059 7.72175 11.866 9.11626 10.2394L15.0297 16.1266ZM12.9378 20.4127C14.0481 21.7556 14.6419 23.4346 14.6677 25.1904C13.0669 24.9317 11.5174 24.2608 10.2004 23.1501L12.9378 20.4127ZM14.0223 19.3024L16.1139 17.2108L22.0269 23.1242C20.3483 24.5446 18.2829 25.2679 16.2168 25.2933C16.2172 23.0984 15.4426 20.9814 14.0223 19.3024ZM17.1984 16.1266L19.2641 14.0609C20.9428 15.4812 23.0339 16.23 25.2034 16.23C25.2292 16.23 25.2292 16.23 25.2551 16.23C25.2296 18.3732 24.4801 20.4131 23.086 22.0401L17.1984 16.1266ZM20.4003 12.9505L23.1377 10.2132C24.2222 11.5044 24.9192 13.0277 25.1776 14.6805C23.4218 14.6546 21.7432 14.0609 20.4003 12.9505ZM7.05014 17.5728C8.80628 17.5983 10.4845 18.1924 11.8274 19.3024L9.11587 22.0401C8.0059 20.7489 7.30884 19.2249 7.05014 17.5728Z" fill="white"/>
</svg>
