<svg width="32" height="32" viewBox="0 0 32 32" fill="none" xmlns="http://www.w3.org/2000/svg">
<path d="M16 32C24.8366 32 32 24.8366 32 16C32 7.16344 24.8366 0 16 0C7.16344 0 0 7.16344 0 16C0 24.8366 7.16344 32 16 32Z" fill="#BF3939"/>
<path d="M12.8757 19.2732L10.8096 23.1595L10.2549 22.8731L12.3209 18.9869L12.8757 19.2732Z" fill="white"/>
<path d="M16.5889 18.3286H15.963V21.0739H16.5889V18.3286Z" fill="white"/>
<path d="M22.6429 23.1823L22.0853 23.4633L20.6444 20.6878L21.202 20.4067L22.6429 23.1823Z" fill="white"/>
<path d="M20.0314 21.836L19.0297 19.029L18.4393 19.2336L19.4409 22.0406L20.0314 21.836Z" fill="white"/>
<path d="M13.3832 19.9825L13.9429 20.2584L12.8782 22.3556L12.3184 22.0797L13.3832 19.9825Z" fill="white"/>
<path fill-rule="evenodd" clip-rule="evenodd" d="M18.9106 13.394L25.5457 24.2504H26.4095V24.8675H6.36133V24.2504H7.10066L13.7991 13.3936H14.0036V10.4074C13.9455 10.2982 13.8985 10.1829 13.8629 10.0624C13.5026 10.065 13.1477 9.97574 12.8341 9.80803C12.4941 10.5192 11.7654 10.9876 10.9389 10.9876C9.78223 10.9876 8.84146 10.0607 8.84146 8.92096C8.84146 7.78167 9.78267 6.85473 10.9389 6.85473C11.2802 6.85473 11.6158 6.9375 11.9149 7.09221C12.0512 6.7997 12.2553 6.53838 12.5117 6.33384C12.8887 6.0331 13.3641 5.86756 13.8497 5.86756C14.264 5.86756 14.6602 5.98326 15.0007 6.19994C15.1757 5.85932 15.4299 5.55814 15.74 5.32673C16.1855 4.99478 16.7173 4.81927 17.2763 4.81927C18.6423 4.81927 19.7608 5.88142 19.825 7.21052C20.0361 7.30759 20.2279 7.44062 20.3928 7.6014C20.5674 6.61769 21.4409 5.86799 22.489 5.86799C23.6624 5.86799 24.6177 6.80923 24.6177 7.96541C24.6177 9.06093 23.7614 9.96187 22.6737 10.0546C22.4828 10.8147 21.78 11.3755 20.9641 11.3755C20.4891 11.3755 20.0339 11.1839 19.7049 10.8528C19.4732 10.9417 19.2255 10.988 18.9757 10.988C18.8979 10.988 18.8196 10.9833 18.7431 10.975V13.394H18.9106ZM12.8777 9.09343C13.1486 9.32051 13.4943 9.44618 13.8501 9.44618C13.9218 9.44618 13.9952 9.44098 14.0696 9.42971L14.3858 9.38464L14.4254 9.69666C14.5059 10.3268 15.053 10.8026 15.6986 10.8026C16.4054 10.8026 16.9812 10.2353 16.9812 9.53805V9.23124L17.2921 9.22864C17.3137 9.22864 17.3343 9.22777 17.355 9.22734L17.5894 9.21867L17.6633 9.43795C17.8529 9.99524 18.3807 10.3701 18.9775 10.3701C19.2097 10.3701 19.4397 10.3129 19.6407 10.2037L19.8831 10.0728L20.0454 10.2934C20.2587 10.5837 20.6031 10.7575 20.9663 10.7575C21.5548 10.7575 22.0514 10.3051 22.0984 9.72743L22.1209 9.43058L22.4239 9.44315C22.445 9.44401 22.4683 9.44488 22.4908 9.44488C23.3189 9.44488 23.9932 8.78055 23.9932 7.96455C23.9932 7.14768 23.3189 6.48378 22.4908 6.48378C21.6617 6.48378 20.9883 7.14768 20.9883 7.96455C20.9883 8.04038 20.9945 8.11579 21.0055 8.18989L21.0517 8.48457L20.7543 8.53961C20.7047 8.54871 20.6554 8.56128 20.6083 8.57688L20.3462 8.66225L20.227 8.41697C20.0656 8.08459 19.77 7.82761 19.416 7.71104L19.1926 7.6378L19.2018 7.40726C19.2027 7.38256 19.2036 7.35785 19.2036 7.33272C19.2036 6.28704 18.3402 5.43594 17.2785 5.43594C16.434 5.43594 15.6758 5.99193 15.4343 6.78843L15.2839 7.28332L14.9131 6.91844C14.6295 6.63892 14.2521 6.48508 13.8505 6.48508C13.1547 6.48508 12.5386 6.97 12.3855 7.6378L12.2729 8.12966L11.8797 7.80724C11.6167 7.591 11.2824 7.47226 10.9394 7.47226C10.1279 7.47226 9.4682 8.12316 9.4682 8.92182C9.4682 9.72136 10.1279 10.3714 10.9394 10.3714C11.6237 10.3714 12.2127 9.91334 12.3701 9.25767L12.4884 8.76755L12.8777 9.09343ZM15.6973 11.4201C15.3041 11.4201 14.9364 11.3014 14.6299 11.0977V13.394H18.1172V10.7987C17.8595 10.6791 17.6312 10.5075 17.4456 10.2934C17.15 10.9564 16.4771 11.4201 15.6973 11.4201ZM12.4273 17.8459C12.225 17.7895 12.0644 17.6933 11.9409 17.5936L7.8334 24.2508H24.8156L21.7703 19.2686C21.5091 19.35 21.2795 19.4068 21.0468 19.4068C20.5995 19.4068 20.1443 19.1962 19.4569 18.5527C18.3978 17.5616 18.1049 17.4593 16.5519 17.1997C15.0499 16.9488 14.8674 16.9748 13.7564 17.6088C13.2819 17.8801 12.8346 17.9598 12.4273 17.8459Z" fill="white"/>
</svg>
