<svg width="32" height="32" viewBox="0 0 32 32" fill="none" xmlns="http://www.w3.org/2000/svg">
<path d="M16 32C24.8366 32 32 24.8366 32 16C32 7.16344 24.8366 0 16 0C7.16344 0 0 7.16344 0 16C0 24.8366 7.16344 32 16 32Z" fill="#BF3939"/>
<path d="M16.1938 6.5542C15.7489 6.5542 15.3897 6.91378 15.3897 7.35855V8.86021L13.9825 7.32491C13.6823 6.99766 13.1732 6.97538 12.8446 7.2751C12.5172 7.57526 12.4958 8.08426 12.7956 8.41151L15.3897 11.2422V14.6078L12.4749 12.9257L11.3194 9.26261C11.1857 8.83968 10.7312 8.60506 10.3086 8.73744C9.88645 8.87157 9.65047 9.32377 9.78419 9.74714L10.4113 11.7351L9.10858 10.9832C8.72401 10.7603 8.23194 10.8932 8.01037 11.2776C7.78663 11.6621 7.91904 12.1541 8.30405 12.3765L9.60721 13.1284L7.57162 13.5788C7.13636 13.6745 6.86279 14.104 6.95893 14.5374C7.0424 14.9127 7.37584 15.1679 7.74511 15.1679C7.80105 15.1679 7.86092 15.1613 7.9186 15.1495L11.6708 14.3194L14.5847 16.0002L11.6699 17.6827L7.91904 16.8517C7.47897 16.7565 7.05464 17.03 6.95937 17.4625C6.86366 17.896 7.1368 18.3259 7.57074 18.4224L9.60633 18.8729L8.30448 19.6244C7.91991 19.8463 7.78794 20.3378 8.01081 20.7236C8.15983 20.9805 8.4299 21.1256 8.70872 21.1256C8.8455 21.1256 8.98359 21.0911 9.10945 21.0177L10.4126 20.2658L9.78507 22.2546C9.65134 22.6779 9.88733 23.1301 10.3095 23.2647C10.3899 23.2896 10.4712 23.3014 10.5516 23.3014C10.8942 23.3014 11.2115 23.083 11.3198 22.7395L12.4753 19.0756L15.3897 17.3935V20.7564L12.7943 23.5889C12.4941 23.9161 12.5168 24.4256 12.8433 24.7257C12.9993 24.8673 13.1942 24.9372 13.3873 24.9372C13.6063 24.9372 13.8226 24.8494 13.9812 24.6755L15.3901 23.138V24.641C15.3901 25.0862 15.7494 25.4458 16.1942 25.4458C16.6382 25.4458 16.9988 25.0862 16.9988 24.641V23.1376L18.4086 24.6759C18.5663 24.8489 18.7826 24.9368 19.0003 24.9368C19.1947 24.9368 19.3896 24.8669 19.5443 24.7262C19.873 24.426 19.8948 23.917 19.5946 23.5893L16.9988 20.756V17.3935L19.9127 19.076L21.0664 22.7391C21.1753 23.0825 21.4921 23.301 21.833 23.301C21.9138 23.301 21.996 23.29 22.0751 23.2643C22.4994 23.1306 22.7354 22.6784 22.6017 22.2541L21.975 20.2658L23.2773 21.0172C23.4027 21.0906 23.5408 21.1252 23.6776 21.1252C23.9564 21.1252 24.2265 20.9814 24.3755 20.7232C24.5992 20.3383 24.4672 19.8459 24.0818 19.6239L22.78 18.8724L24.8155 18.422C25.2491 18.325 25.5226 17.8964 25.4265 17.4621C25.3308 17.0296 24.9051 16.7552 24.4672 16.8513L20.7164 17.6819L17.8029 16.0002L20.7164 14.3185L24.4672 15.1487C24.5249 15.1591 24.5839 15.167 24.6416 15.167C25.0109 15.167 25.3421 14.9114 25.4252 14.5366C25.5209 14.1031 25.2469 13.6741 24.8134 13.578L22.7795 13.1275L24.0822 12.3756C24.4672 12.1532 24.5992 11.6621 24.3763 11.2768C24.1535 10.8914 23.6618 10.7603 23.2781 10.9823L21.9759 11.7338L22.6025 9.74627C22.7363 9.32246 22.5007 8.8707 22.0764 8.737C21.6538 8.60418 21.201 8.8388 21.0673 9.26217L19.9136 12.9248L16.9988 14.6069V11.2427L19.5937 8.41107C19.894 8.08339 19.8717 7.57439 19.5435 7.27423C19.2153 6.97407 18.7075 6.99766 18.4072 7.32404L16.9983 8.86152V7.35855C16.9988 6.91378 16.6391 6.5542 16.1938 6.5542Z" fill="white"/>
</svg>
