<svg width="32" height="32" viewBox="0 0 32 32" fill="none" xmlns="http://www.w3.org/2000/svg">
<path d="M16 32C24.8366 32 32 24.8366 32 16C32 7.16344 24.8366 0 16 0C7.16344 0 0 7.16344 0 16C0 24.8366 7.16344 32 16 32Z" fill="#BF3939"/>
<path d="M28.0517 22.4196H26.9934L26.0403 19.1541C25.4736 17.2102 24.3177 15.5404 22.698 14.3259C21.2731 13.2572 19.5952 12.6272 17.8302 12.4954V9.64738C17.8302 9.25953 17.5148 8.94415 17.1269 8.94415H14.2049C13.8171 8.94415 13.5017 9.25953 13.5017 9.64738V9.99707H3.94835C3.56049 9.99707 3.24512 10.3124 3.24512 10.7003C3.24512 11.0882 3.56049 11.4039 3.94835 11.4039H13.5017V17.4496H3.94835C3.56049 17.4496 3.24512 17.765 3.24512 18.1528C3.24512 18.5411 3.56049 18.8564 3.94835 18.8564H13.5017V19.2057C13.5017 19.5936 13.8171 19.909 14.2049 19.909H17.1273C17.5152 19.909 17.8306 19.5936 17.8306 19.2057V19.1645C18.3669 19.668 18.9656 20.6269 19.0527 22.4192H10.2481C9.86025 22.4192 9.54488 22.7346 9.54488 23.1225C9.54488 23.5103 9.86025 23.8257 10.2481 23.8257H28.0517C28.4395 23.8257 28.7549 23.5103 28.7549 23.1225C28.7549 22.7346 28.4395 22.4196 28.0517 22.4196ZM16.4237 18.5029H14.9082V10.351H16.4237V18.5029ZM23.8712 22.4196C23.8593 21.0112 23.2501 19.5994 22.1031 18.334C21.2457 17.3875 20.3921 16.8528 20.3562 16.8308C20.1153 16.6812 19.7999 16.7556 19.6507 16.9962C19.5011 17.2364 19.5755 17.5525 19.8157 17.7017C19.8462 17.7206 22.816 19.599 22.8461 22.4196H20.4603C20.4037 21.1423 20.0821 19.4837 18.9556 18.3059C18.5538 17.886 18.1452 17.6285 17.8306 17.4743V13.9069C19.2891 14.0352 20.6743 14.5661 21.8541 15.4509C23.2289 16.4819 24.2097 17.8988 24.6905 19.5477L25.5283 22.4192H23.8712V22.4196Z" fill="white"/>
</svg>
