<svg width="32" height="32" viewBox="0 0 32 32" fill="none" xmlns="http://www.w3.org/2000/svg">
<path d="M16 32C24.8366 32 32 24.8366 32 16C32 7.16344 24.8366 0 16 0C7.16344 0 0 7.16344 0 16C0 24.8366 7.16344 32 16 32Z" fill="#BF3939"/>
<path d="M29.6725 13.1419C29.4847 13.1419 29.3324 13.2946 29.3324 13.4816V13.913C29.2615 13.8189 29.1497 13.7569 29.0228 13.7569H28.9642C28.7495 13.7569 28.5756 13.9307 28.5756 14.1451V14.4975L28.3208 14.4967H27.2848L20.3539 14.5002H14.8434V13.1724H16.3855V12.6611H11.9522V12.6623C11.7586 12.2108 11.3095 11.8928 10.7882 11.8928H5.88567C5.18899 11.8928 4.62032 12.4607 4.62032 13.1577V14.8911H3.93444L3.17068 14.1262H2.51642C1.81126 15.2393 1.81126 16.3604 2.51642 17.4731H3.17068L3.93444 16.709H4.62032V17.3031C4.62032 18.0005 5.18899 18.5688 5.88567 18.5688H9.14928V20.148C9.14928 20.7174 9.60808 21.1762 10.1771 21.1762C10.7466 21.1762 11.205 20.7174 11.205 20.148V18.501C11.6977 18.3321 12.0543 17.8648 12.0543 17.3035V17.091H12.9376V17.854C12.9376 18.3637 13.4219 18.7801 14.016 18.7801H15.0438L15.094 18.7354V21.2699C15.094 21.8394 15.5524 22.2974 16.1218 22.2974C16.6913 22.2974 17.1497 21.8394 17.1497 21.2699V18.9416L17.1751 17.091H20.3635L28.5768 17.0953V17.3821C28.5768 17.5969 28.7506 17.7707 28.9654 17.7707H29.024C29.1508 17.7707 29.2626 17.7091 29.3336 17.615V18.1752C29.3336 18.3629 29.4859 18.5156 29.6736 18.5156C29.861 18.5156 30.0133 18.3629 30.0133 18.1752V13.482C30.0121 13.2946 29.8598 13.1419 29.6725 13.1419ZM12.054 14.5006V13.1728H14.1043V14.5006H13.3089H12.054ZM15.0519 18.4231H14.0241C13.6247 18.4231 13.3023 18.169 13.3023 17.8536V17.091H13.3093H14.1043C14.0858 17.3351 14.0102 17.578 13.8714 17.7862C13.9647 17.829 14.0669 17.8714 14.169 17.9142C14.1937 17.923 14.2111 17.9307 14.2369 17.9307C14.2704 17.9307 14.2882 17.9142 14.3129 17.8968C14.5742 17.6863 14.7601 17.4022 14.8622 17.091H15.0523V18.4231H15.0519Z" fill="white"/>
</svg>
