<svg width="32" height="32" viewBox="0 0 32 32" fill="none" xmlns="http://www.w3.org/2000/svg">
<path d="M16 32C24.8366 32 32 24.8366 32 16C32 7.16344 24.8366 0 16 0C7.16344 0 0 7.16344 0 16C0 24.8366 7.16344 32 16 32Z" fill="#BF3939"/>
<path d="M22.9883 16.0868C22.8198 13.9756 21.6952 12.0779 19.9436 10.9267L21.1539 9.95859C21.5024 9.67985 21.7021 9.26346 21.7021 8.817C21.7021 8.23136 21.3543 7.70394 20.8157 7.473L18.91 6.65642L18.9694 6.50838C19.0376 6.33874 19.0723 6.15985 19.0723 5.97671C19.0723 5.18905 18.4315 4.54828 17.6439 4.54828H14.73C13.9419 4.54751 13.3011 5.18828 13.3011 5.97594C13.3011 6.15985 13.3354 6.33835 13.4029 6.50606L13.4627 6.65565L11.5569 7.47262C11.0187 7.70317 10.671 8.23059 10.671 8.81662C10.671 9.26307 10.8711 9.67908 11.2192 9.95859L12.4294 10.9267C10.6779 12.0779 9.55328 13.9759 9.3848 16.0868C8.25053 17.1297 7.60205 18.6028 7.60205 20.1465C7.60205 23.1877 10.0761 25.6621 13.1176 25.6621H19.2554C22.297 25.6621 24.7714 23.1877 24.7714 20.1465C24.771 18.6028 24.1225 17.1297 22.9883 16.0868ZM19.2551 24.2757H13.1172C10.8406 24.2757 8.98846 22.4232 8.98846 20.1465C8.98846 18.9059 9.5394 17.7419 10.4994 16.9539L10.7415 16.7557L10.7527 16.4423C10.8576 13.4998 13.2445 11.1946 16.1862 16.6778C19.1279 22.161 21.5144 18.983 21.62 21.9258L21.6312 22.2389L21.8729 22.4367C22.8333 23.2251 23.3843 24.389 23.3843 25.6297C23.3842 22.4232 21.5321 24.2757 19.2551 24.2757ZM13.7881 10.2377L12.0851 8.87522C12.067 8.86057 12.057 8.83975 12.057 8.81623C12.057 8.78577 12.0751 8.7584 12.1033 8.74645L13.9781 7.94336L14.7816 9.95204C14.4427 10.0226 14.1104 10.1178 13.7881 10.2377ZM20.2875 8.87599L18.585 10.2377C18.2619 10.1174 17.9292 10.0218 17.5907 9.95165L17.8741 9.24187L17.8756 9.24226L18.3949 7.94336L20.269 8.74645C20.2972 8.7584 20.3153 8.78577 20.3153 8.81623C20.3153 8.84052 20.3053 8.86172 20.2875 8.87599ZM16.5879 8.72717L16.6592 8.7557L16.5902 8.72987L16.1861 9.73035L14.6875 5.97594C14.6875 5.95281 14.706 5.9343 14.7292 5.9343H17.6431C17.6659 5.9343 17.6847 5.95358 17.6824 5.99175L16.5879 8.72717Z" fill="white"/>
<path d="M17.2824 14.6309H16.8795V13.7542H15.4931V14.6309H15.0902C14.1036 14.6309 13.3013 15.3847 13.3013 16.3107V16.9681C13.3013 17.8942 14.104 18.6475 15.0902 18.6475H17.2824C17.5006 18.6475 17.6853 18.7821 17.6853 18.9409V19.5983C17.6853 19.7571 17.5006 19.8917 17.2824 19.8917H15.0902C14.872 19.8917 14.6877 19.7571 14.6877 19.5983V19.3434H13.3013V19.5983C13.3013 20.5243 14.104 21.2781 15.0902 21.2781H15.4931V22.1544H16.8795V21.2781H17.2824C18.2694 21.2781 19.0721 20.5243 19.0721 19.5983V18.9409C19.0721 18.0148 18.2694 17.2611 17.2824 17.2611H15.0902C14.872 17.2611 14.6877 17.1269 14.6877 16.9681V16.3107C14.6877 16.1515 14.8724 16.0173 15.0902 16.0173H17.2824C17.5006 16.0173 17.6853 16.1515 17.6853 16.3107V16.8941H19.0721V16.3107C19.0721 15.3843 18.2694 14.6309 17.2824 14.6309Z" fill="white"/>
</svg>
