<svg width="32" height="32" viewBox="0 0 32 32" fill="none" xmlns="http://www.w3.org/2000/svg">
<path d="M16 32C24.8366 32 32 24.8366 32 16C32 7.16344 24.8366 0 16 0C7.16344 0 0 7.16344 0 16C0 24.8366 7.16344 32 16 32Z" fill="#BF3939"/>
<path d="M24.3799 13.6398L24.3001 13.5802V8.78873C24.3001 8.4779 24.0472 8.22503 23.7364 8.22503L17.0911 8.22384C16.783 8.2544 16.5659 8.49695 16.567 8.78794V12.8641L16.2237 12.4973C15.9112 12.1634 15.5786 11.8641 15.2344 11.6072L15.1546 11.5477V6.75662C15.1554 6.53154 15.1094 6.3791 15.0169 6.2866C14.9379 6.20721 14.8223 6.1687 14.6636 6.1687C13.9355 6.1687 7.98566 6.19292 7.98566 6.19292L7.94517 6.19173C7.63632 6.22229 7.41918 6.46445 7.42116 6.75543V11.5477L7.34137 11.6072C5.61612 12.8946 4.62646 14.8303 4.62646 16.9184C4.62646 20.5912 7.61489 23.5792 11.2877 23.5792C12.4449 23.5792 13.6096 23.2485 14.6552 22.6229L14.816 22.5264L14.9212 22.682C16.1657 24.5164 18.2268 25.6117 20.4332 25.6117C24.1064 25.6117 27.0944 22.6241 27.0944 18.9517C27.0948 16.8624 26.1051 14.9267 24.3799 13.6398ZM14.4659 16.0391C14.0097 16.945 13.7763 17.9168 13.7727 18.9278V19.0021L13.7239 19.0581C13.0999 19.7722 12.2349 20.1656 11.2881 20.1656C9.49734 20.1656 8.04044 18.7091 8.04044 16.9184C8.04044 15.128 9.49734 13.6715 11.2881 13.6715C12.4897 13.6715 13.9168 14.6568 14.4698 15.8676L14.5095 15.9545L14.4659 16.0391ZM11.2877 12.5441C8.87528 12.5441 6.91264 14.5063 6.91264 16.9184C6.91264 19.3304 8.87528 21.293 11.2877 21.293C12.1531 21.293 12.9883 21.0433 13.7029 20.5717L13.9323 20.4201L14.0038 20.6856C14.0649 20.9123 14.1399 21.1406 14.2273 21.3637L14.2876 21.5181L14.1467 21.605C13.2341 22.1672 12.2722 22.4526 11.2877 22.4526C8.23615 22.4526 5.75387 19.9703 5.75387 16.9192C5.75387 15.0335 6.70185 13.2944 8.29014 12.267C8.45052 12.1634 8.54738 11.9879 8.54857 11.797V7.32032H14.0268V11.7978C14.028 11.9872 14.1249 12.1626 14.2852 12.2658C14.9363 12.687 15.5028 13.2475 15.9236 13.8875L16.0157 14.0276L15.8934 14.1419C15.7072 14.3158 15.5433 14.4849 15.3912 14.6592L15.2229 14.8525L15.078 14.6409C14.1912 13.3476 12.739 12.5441 11.2877 12.5441ZM20.4336 24.4847C17.382 24.4847 14.9002 22.0024 14.9002 18.9513C14.9002 17.0656 15.8481 15.3261 17.4364 14.2987C17.5968 14.1951 17.6933 14.0197 17.6949 13.8283V9.35243H23.1731V13.8299C23.1747 14.0197 23.2711 14.1947 23.4311 14.2979C25.0194 15.3257 25.9678 17.0652 25.9678 18.9513C25.9678 22.0024 23.4851 24.4847 20.4336 24.4847Z" fill="white"/>
<path d="M20.4335 14.5765C18.0215 14.5765 16.0588 16.5392 16.0588 18.9512C16.0588 21.3632 18.0211 23.3258 20.4335 23.3258C22.8459 23.3258 24.8085 21.3636 24.8085 18.9512C24.8085 16.5388 22.8459 14.5765 20.4335 14.5765ZM20.4335 22.1984C18.6427 22.1984 17.1862 20.7419 17.1862 18.9512C17.1862 17.1604 18.6427 15.7039 20.4335 15.7039C22.2242 15.7039 23.6811 17.1604 23.6811 18.9512C23.6811 20.7419 22.2242 22.1984 20.4335 22.1984Z" fill="white"/>
<path d="M11.8004 8.84387H10.7087V9.93555H11.8004V8.84387Z" fill="white"/>
<path d="M20.9799 10.7295H19.8882V11.8212H20.9799V10.7295Z" fill="white"/>
</svg>
