<svg width="32" height="32" viewBox="0 0 32 32" fill="none" xmlns="http://www.w3.org/2000/svg">
<path d="M16 32C24.8366 32 32 24.8366 32 16C32 7.16344 24.8366 0 16 0C7.16344 0 0 7.16344 0 16C0 24.8366 7.16344 32 16 32Z" fill="#BF3939"/>
<path d="M15.976 20.9832C13.2372 20.9832 11.0168 18.7624 11.0168 16.0243C11.0168 13.2854 13.2372 11.0647 15.976 11.0647C18.7149 11.0647 20.9353 13.285 20.9353 16.0243C20.9353 18.7624 18.7146 20.9832 15.976 20.9832ZM11.594 21.728C12.4688 20.8529 11.1464 19.5312 10.272 20.4052L7.74125 22.9363C6.86646 23.8111 8.18887 25.1328 9.06328 24.2587L11.594 21.728ZM21.6798 11.6423L24.2105 9.11155C25.0849 8.23676 23.7628 6.91512 22.888 7.78953L20.357 10.3206C19.4829 11.1946 20.805 12.517 21.6798 11.6423ZM8.84429 16.9585H5.26453C4.02771 16.9585 4.02771 15.089 5.26453 15.089H8.84429C10.0811 15.0894 10.0811 16.9585 8.84429 16.9585ZM23.1078 16.9585H26.6872C27.9236 16.9585 27.9232 15.089 26.6872 15.089H23.1078C21.8706 15.0894 21.8706 16.9585 23.1078 16.9585ZM10.272 11.6423C11.1464 12.517 12.4688 11.1946 11.594 10.3202L9.06328 7.78914C8.18848 6.91473 6.86646 8.23676 7.74125 9.11117L10.272 11.6423ZM20.3573 21.728L22.8884 24.2587C23.7632 25.1331 25.0845 23.8111 24.2108 22.9363L21.6801 20.4052C20.805 19.5308 19.4829 20.8532 20.3573 21.728ZM15.0411 8.89257V5.31281C15.0411 4.07599 16.911 4.07599 16.911 5.31281V8.89257C16.9106 10.129 15.0411 10.129 15.0411 8.89257ZM15.0411 23.1557V26.7355C15.0411 27.9719 16.911 27.9715 16.911 26.7355V23.1557C16.9106 21.9189 15.0411 21.9189 15.0411 23.1557ZM15.976 19.3974C17.8386 19.3974 19.3492 17.8869 19.3492 16.0243C19.3492 14.161 17.8386 12.6512 15.976 12.6512C14.1131 12.6512 12.6029 14.1614 12.6029 16.0243C12.6029 17.8869 14.1127 19.3974 15.976 19.3974Z" fill="white"/>
</svg>
