<svg width="32" height="32" viewBox="0 0 32 32" fill="none" xmlns="http://www.w3.org/2000/svg">
<path d="M16 32C24.8366 32 32 24.8366 32 16C32 7.16344 24.8366 0 16 0C7.16344 0 0 7.16344 0 16C0 24.8366 7.16344 32 16 32Z" fill="#BF3939"/>
<path d="M25.1865 8.13109C24.9621 8.02969 24.6976 8.07095 24.5137 8.23634L21.1807 11.2374C20.9976 11.2174 20.8083 11.2189 20.6259 11.2389L17.3114 8.23789C17.1283 8.07056 16.8646 8.03008 16.6386 8.1307C16.4131 8.23133 16.2685 8.4561 17.0068 8.70323L17.0338 12.618H8.8553C8.50021 12.618 8.08074 12.7071 7.69212 12.9049V10.0974C7.69212 9.90073 7.74841 8.92338 8.8553 8.92338H13.3206C13.6649 8.92338 13.9437 8.64425 13.9437 8.30034C13.9437 7.95605 13.6646 7.67731 13.3206 7.67731H8.8553C7.08836 7.67731 6.44604 9.12463 6.44604 10.0974V15.0373C6.44604 24.3158 7.45886 25.0926 8.40845 25.0926C9.9992 25.0926 10.5444 22.5924 10.7275 20.6018H15.5579C15.8591 24.2907 16.4913 25.0926 17.3399 25.0926C18.1388 25.0926 18.6712 24.4565 19.0298 23.5744C19.3652 24.7634 19.8182 25.0926 20.3579 25.0926C22.4996 25.0926 22.7487 20.5656 22.7664 18.8495C24.2477 18.191 25.3338 16.7719 25.513 15.0042L25.5539 8.70362C25.5562 8.45726 25.4113 8.23287 25.1865 8.13109ZM24.2697 14.9375C24.0915 16.6882 22.6473 18.0083 20.9124 18.0083C19.1782 18.0083 17.7347 16.6897 17.5578 15.0007L17.5261 10.1132L20.0033 12.3559C20.1378 12.4781 20.3209 12.5359 20.4983 12.5124L20.6209 12.4962C20.8032 12.4719 20.9914 12.4681 21.1749 12.4939L21.3114 12.5116C21.4876 12.5301 21.668 12.475 21.8014 12.3559L24.2993 10.107L24.2697 14.9375Z" fill="white"/>
<path d="M19.962 15.5547C20.3155 15.5547 20.602 15.269 20.602 14.9166C20.602 14.5642 20.3155 14.2786 19.962 14.2786C19.6086 14.2786 19.322 14.5642 19.322 14.9166C19.322 15.269 19.6086 15.5547 19.962 15.5547Z" fill="white"/>
<path d="M22.4222 15.5547C22.7757 15.5547 23.0622 15.269 23.0622 14.9166C23.0622 14.5642 22.7757 14.2786 22.4222 14.2786C22.0688 14.2786 21.7822 14.5642 21.7822 14.9166C21.7822 15.269 22.0688 15.5547 22.4222 15.5547Z" fill="white"/>
</svg>
