<svg width="32" height="32" viewBox="0 0 32 32" fill="none" xmlns="http://www.w3.org/2000/svg">
<path d="M16 32C24.8366 32 32 24.8366 32 16C32 7.16344 24.8366 0 16 0C7.16344 0 0 7.16344 0 16C0 24.8366 7.16344 32 16 32Z" fill="#BF3939"/>
<path d="M21.1154 16.7958L20.6996 18.6428V23.6373C20.6996 24.4438 19.9448 25.0681 19.1121 24.86C18.5399 24.7303 18.15 24.1836 18.15 23.5852V21.5047C18.15 21.3225 18.0199 21.1661 17.8377 21.1403L13.3894 20.5936C13.3114 20.5936 13.1809 20.5677 13.1029 20.5415L9.72097 19.6053C9.53874 19.5535 9.35691 19.6832 9.35691 19.8913V23.6895C9.35691 24.496 8.60254 25.1202 7.76978 24.9121C7.19763 24.7824 6.80731 24.2358 6.80731 23.6373V17.7058V16.848V13.5177C6.80731 13.3876 6.75519 13.2575 6.65094 13.1795L5.09007 11.6445C4.75188 11.3063 4.72602 10.76 5.03795 10.4481C5.37614 10.1099 5.92243 10.1099 6.23477 10.4481L7.76937 11.9827C7.84736 12.0607 7.97746 12.1128 8.10757 12.1128H16.5621C16.7443 12.1128 16.9265 12.1908 17.0825 12.3209L20.8552 16.0932C21.0378 16.25 21.1938 16.5356 21.1154 16.7958ZM22.7805 13.8559L24.9135 15.1566C25.1737 15.3126 25.5119 15.2608 25.72 15.0523L27.1508 13.4915C27.3593 13.2571 27.3593 12.9193 27.1766 12.685L23.4827 8.31469V6.31138C23.4827 5.99904 23.1183 5.86894 22.9102 6.07703L17.7597 11.2025C17.6037 11.3585 17.6037 11.5928 17.7597 11.7229L21.298 15.2608C21.4281 15.3905 21.6621 15.3384 21.7138 15.1829L22.1825 14.064C22.2601 13.8301 22.5724 13.7262 22.7805 13.8559Z" fill="white"/>
</svg>
