<svg width="32" height="32" viewBox="0 0 32 32" fill="none" xmlns="http://www.w3.org/2000/svg">
<path d="M16 32C24.8366 32 32 24.8366 32 16C32 7.16344 24.8366 0 16 0C7.16344 0 0 7.16344 0 16C0 24.8366 7.16344 32 16 32Z" fill="#BF3939"/>
<path d="M25.3977 11.6627H24.6748C22.2794 11.6627 20.3375 13.6046 20.3375 16V20.3374C20.3375 21.1358 19.6901 21.7831 18.8917 21.7831C18.0932 21.7831 17.4459 21.1358 17.4459 20.3374V11.6627C17.4459 9.26729 15.5039 7.32532 13.1085 7.32532C10.7132 7.32532 8.77119 9.26729 8.77119 11.6627V14.5542C8.77119 15.3527 8.12386 16 7.3254 16H5.15673C4.75731 16 4.43384 16.3239 4.43384 16.7229C4.43384 17.1219 4.75731 17.4454 5.15673 17.4454H7.3254C9.72078 17.4454 11.6628 15.5038 11.6628 13.1081V11.6623C11.6628 10.8638 12.3101 10.2165 13.1085 10.2165C13.907 10.2165 14.5543 10.8638 14.5543 11.6623V20.337C14.5543 22.7327 16.4963 24.6743 18.8917 24.6743C21.287 24.6743 23.229 22.7327 23.229 20.337V17.4454C23.229 16.647 23.8763 15.9996 24.6748 15.9996H25.3977C26.5952 16 27.5664 15.0288 27.5664 13.8313C27.5664 12.6338 26.5952 11.6627 25.3977 11.6627Z" fill="white"/>
</svg>
