<svg width="32" height="32" viewBox="0 0 32 32" fill="none" xmlns="http://www.w3.org/2000/svg">
<path d="M16 32C24.8366 32 32 24.8366 32 16C32 7.16344 24.8366 0 16 0C7.16344 0 0 7.16344 0 16C0 24.8366 7.16344 32 16 32Z" fill="#BF3939"/>
<path d="M13.766 17.1927C14.3819 17.1927 14.8819 16.6068 14.8819 16.2247C14.8819 15.8215 14.4231 15.5401 13.766 15.5401C13.109 15.5401 12.6501 15.8215 12.6501 16.2247C12.6505 16.6068 13.1501 17.1927 13.766 17.1927Z" fill="white"/>
<path d="M10.8614 15.182C10.9613 15.182 11.0545 15.1688 11.1376 15.1424C11.578 15.0042 11.7335 14.5701 11.8582 14.222C11.9209 14.047 11.9857 13.8663 12.0696 13.7668C12.1352 13.6893 12.2027 13.6189 12.2674 13.5522C12.518 13.2916 12.8022 12.9962 12.7323 12.5062C12.6731 12.0914 12.1827 11.7537 11.6392 11.7537C11.2891 11.7537 10.6084 11.8947 9.98854 12.838C9.45539 13.6497 9.55091 14.2048 9.72476 14.5278C9.96856 14.9798 10.4709 15.182 10.8614 15.182Z" fill="white"/>
<path d="M15.3137 13.7668C15.3976 13.8659 15.4624 14.0465 15.5247 14.2216C15.6498 14.5705 15.8049 15.0041 16.2453 15.1424C16.3285 15.1684 16.4216 15.182 16.5219 15.182C16.912 15.182 17.4144 14.9797 17.6582 14.5281C17.8324 14.2052 17.9283 13.65 17.3944 12.8383C16.7745 11.8951 16.0943 11.754 15.7438 11.754C15.2002 11.754 14.7098 12.0917 14.6507 12.5066C14.5807 12.9966 14.8649 13.2919 15.1155 13.5521C15.1802 13.6193 15.2478 13.6892 15.3137 13.7668Z" fill="white"/>
<path d="M20.6764 10.0303C21.0809 9.09508 20.654 7.93205 19.6545 7.35053C18.5857 6.72945 17.2608 7.00602 16.7009 7.96802C16.5694 8.19343 16.4827 8.46441 16.4363 8.75297C15.633 8.32532 14.7322 8.06274 13.7662 8.06274C12.8165 8.06274 11.9297 8.31653 11.1371 8.73098C11.0892 8.45042 11.0041 8.18744 10.8762 7.96762C10.3166 7.00522 8.99133 6.72865 7.92262 7.35013C7.41185 7.64709 7.03256 8.10431 6.85511 8.63706C6.67206 9.1858 6.72282 9.74894 6.99819 10.2225C7.27596 10.7001 7.79713 11.0978 8.37744 11.3032C7.77914 12.2413 7.43862 13.236 7.43862 14.0713C7.43862 15.2156 8.03533 16.2595 9.01052 17.0596C8.81907 17.6783 8.39343 19.4037 8.91659 21.195C9.55047 23.364 10.7347 24.4943 10.785 24.5414C10.8506 24.6026 10.9373 24.6369 11.0272 24.6369H12.562C12.6966 24.6369 12.8201 24.5606 12.8797 24.4395C12.9137 24.37 13.6574 22.8468 13.7374 21.426H14.42C14.4632 22.0463 14.6186 23.3696 15.175 24.4455C15.2357 24.563 15.3572 24.6369 15.4895 24.6369H17.5906C17.6777 24.6369 17.7616 24.605 17.8264 24.547C17.9055 24.4763 19.0909 23.4012 20.0325 21.5875H20.2751C20.3239 22.2222 20.5165 23.5678 21.2831 24.5066C21.3498 24.5894 21.451 24.6369 21.5573 24.6369H23.4937C23.5936 24.6369 23.6883 24.595 23.7554 24.5206C23.855 24.4115 26.1874 21.7993 26.0903 18.088C26.0012 14.6553 23.4785 10.9715 20.6764 10.0303ZM19.5801 11.1378C19.5865 11.141 19.5905 11.147 19.5973 11.1498C19.5973 11.1498 19.5977 11.1498 19.5981 11.1498C19.5985 11.1502 19.6045 11.1526 19.6093 11.155C19.8351 11.2581 23.7267 13.0798 23.4949 16.134C23.2986 18.7247 21.7079 19.711 20.6904 20.024C20.9462 19.2534 21.1316 18.4041 21.18 17.4781C21.3694 13.7904 20.2012 12.7488 19.762 12.4899C19.6101 12.0986 19.4087 11.7025 19.1629 11.3156C19.3063 11.2673 19.4462 11.2085 19.5801 11.1378ZM8.14763 14.0721C8.14763 11.9791 10.6647 8.77175 13.7666 8.77175C16.8688 8.77175 19.3859 11.9787 19.3859 14.0721C19.3859 14.969 18.9291 15.7931 18.1713 16.447C17.6993 16.8338 17.0974 17.1768 16.3628 17.4717C15.5854 17.7491 14.7034 17.9089 13.767 17.9089C13.219 17.9089 12.6907 17.8522 12.1895 17.7519C12.1267 17.7395 12.0644 17.7267 12.002 17.7119C9.76629 17.2051 8.14763 15.7663 8.14763 14.0721Z" fill="white"/>
</svg>
