<svg width="32" height="32" viewBox="0 0 32 32" fill="none" xmlns="http://www.w3.org/2000/svg">
<path d="M16 32C24.8366 32 32 24.8366 32 16C32 7.16344 24.8366 0 16 0C7.16344 0 0 7.16344 0 16C0 24.8366 7.16344 32 16 32Z" fill="#BF3939"/>
<path d="M6.58521 9.71718V21.5118L15.9998 25.2534L25.4144 21.5118V9.71718L15.9998 5.97589L6.58521 9.71718ZM22.3861 10.4257L15.9998 12.9642L9.61352 10.4257L15.9998 7.88759L22.3861 10.4257ZM8.36236 11.8411L15.1112 14.5231V22.9885L8.36236 20.3061V11.8411ZM16.8884 22.9877V14.5226L23.6377 11.8411V20.3061L16.8884 22.9877Z" fill="white"/>
<path d="M18.1639 10.1932V10.685C18.1639 10.7489 18.0813 10.8025 17.9785 10.8025H16.5583V11.726C16.5583 11.7931 16.4761 11.8435 16.3782 11.8435H15.6221C15.5242 11.8435 15.4416 11.7931 15.4416 11.726V10.8025H14.0218C13.9189 10.8025 13.8364 10.7489 13.8364 10.685V10.1932C13.8364 10.1265 13.9189 10.0761 14.0218 10.0761H15.4416V9.14934C15.4416 9.08552 15.5242 9.03186 15.6221 9.03186H16.3782C16.4761 9.03186 16.5583 9.08552 16.5583 9.14934V10.0761H17.9785C18.0813 10.0761 18.1639 10.1265 18.1639 10.1932Z" fill="white"/>
</svg>
