<svg width="32" height="32" viewBox="0 0 32 32" fill="none" xmlns="http://www.w3.org/2000/svg">
<path d="M16 32C24.8366 32 32 24.8366 32 16C32 7.16344 24.8366 0 16 0C7.16344 0 0 7.16344 0 16C0 24.8366 7.16344 32 16 32Z" fill="#BF3939"/>
<path d="M23.1076 10.0838C23.4977 9.40909 23.266 8.54586 22.5913 8.15608C21.9163 7.7663 21.053 7.99762 20.6632 8.67271C20.3741 9.17391 20.4277 9.77806 20.7504 10.2156L17.1899 16.3828C17.0341 16.6527 17.1267 16.9981 17.3965 17.1539C17.4852 17.2051 17.582 17.2294 17.678 17.2294C17.8731 17.2294 18.0624 17.128 18.1676 16.9472L21.7277 10.7801C22.2683 10.8406 22.8184 10.585 23.1076 10.0838Z" fill="white"/>
<path d="M19.1888 18.383L25.3559 14.8225C25.7939 15.1448 26.398 15.1984 26.8988 14.9089C27.5739 14.5195 27.8052 13.6566 27.4155 12.9812C27.0257 12.3065 26.1628 12.0751 25.4877 12.4649C24.9869 12.7541 24.7313 13.3046 24.7915 13.8444L18.6243 17.4053C18.3544 17.561 18.2619 17.9061 18.4177 18.1764C18.5222 18.3572 18.7118 18.4586 18.9073 18.4586C19.0029 18.4586 19.1001 18.4339 19.1888 18.383Z" fill="white"/>
<path d="M27.7703 18.1605C27.1923 18.1605 26.6954 18.5091 26.4771 19.0072H19.3562C19.0447 19.0072 18.7917 19.2597 18.7917 19.5716C18.7917 19.8835 19.0447 20.1364 19.3562 20.1364H26.4775C26.6954 20.6345 27.1923 20.9827 27.7706 20.9827C28.5498 20.9831 29.1821 20.3512 29.1821 19.572C29.1817 18.7924 28.5502 18.1605 27.7703 18.1605Z" fill="white"/>
<path d="M12.6434 19.0075H5.52206C5.30423 18.5094 4.80727 18.1609 4.22896 18.1609C3.44977 18.1609 2.81787 18.7928 2.81787 19.5724C2.81787 20.3515 3.44977 20.9831 4.22934 20.9834C4.80765 20.9834 5.30423 20.6349 5.52245 20.1368H12.6434C12.9553 20.1368 13.2078 19.8839 13.2078 19.572C13.2078 19.2601 12.9553 19.0075 12.6434 19.0075Z" fill="white"/>
<path d="M13.3751 17.4053L7.20762 13.8444C7.26815 13.3043 7.01215 12.7541 6.51133 12.4649C5.83663 12.0751 4.9734 12.3065 4.58362 12.9812C4.19422 13.6563 4.42555 14.5191 5.10025 14.9089C5.60107 15.1984 6.2056 15.1448 6.64319 14.8225L12.8103 18.383C12.8994 18.4343 12.9962 18.4586 13.0922 18.4586C13.2868 18.4586 13.4769 18.3568 13.5814 18.1764C13.7375 17.9057 13.6454 17.561 13.3751 17.4053Z" fill="white"/>
<path d="M11.2497 10.216C11.572 9.77842 11.626 9.17389 11.3364 8.67307C10.9467 7.99799 10.0838 7.76666 9.40872 8.15645C8.73402 8.54623 8.5027 9.40907 8.89248 10.0842C9.18164 10.585 9.73142 10.841 10.272 10.7804L13.8328 16.9476C13.9373 17.1288 14.127 17.2302 14.3225 17.2302C14.4181 17.2302 14.5152 17.2055 14.6039 17.1546C14.8738 16.9985 14.9663 16.653 14.8106 16.3831L11.2497 10.216Z" fill="white"/>
<path d="M17.4109 7.80136C17.4109 7.02218 16.779 6.38989 15.9998 6.38989C15.2207 6.38989 14.5884 7.0218 14.5884 7.80136C14.5884 8.37968 14.9369 8.87664 15.4354 9.09447V16.2154C15.4354 16.5273 15.6879 16.7803 15.9998 16.7803C16.3114 16.7803 16.5643 16.5273 16.5643 16.2154V9.09447C17.0624 8.87625 17.4109 8.37968 17.4109 7.80136Z" fill="white"/>
</svg>
