<svg width="32" height="32" viewBox="0 0 32 32" fill="none" xmlns="http://www.w3.org/2000/svg">
<path d="M16 32C24.8366 32 32 24.8366 32 16C32 7.16344 24.8366 0 16 0C7.16344 0 0 7.16344 0 16C0 24.8366 7.16344 32 16 32Z" fill="#BF3939"/>
<path d="M23.1793 13.6678C19.9284 13.2426 18.8959 15.0481 18.8959 15.5801C18.8959 16.1122 17.7231 10.2238 21.2057 8.83082C17.8391 9.29501 15.672 11.23 15.672 13.2036C15.672 9.48855 16.1366 6.16055 18.6514 4.53549C12.4215 5.00007 2.97877 23.5751 13.6594 25.2006C25.213 26.959 21.6702 17.0062 21.6702 17.0062C21.6702 17.0062 21.2446 14.6837 23.1793 13.6678ZM14.6946 23.8473C8.73685 22.9293 9.28547 16.4495 14.0037 14.4339C13.4277 16.1399 12.9053 18.0511 14.7629 19.4868C14.7629 18.3865 16.0194 16.6122 17.8973 16.3527C16.9689 18.2099 17.341 20.2263 17.6163 20.3373C18.2462 20.5899 18.9421 20.9384 20.7812 18.5712C21.496 22.3892 18.9229 24.4985 14.6946 23.8473Z" fill="white"/>
</svg>
