<svg width="32" height="32" viewBox="0 0 32 32" fill="none" xmlns="http://www.w3.org/2000/svg">
<path d="M16 32C24.8366 32 32 24.8366 32 16C32 7.16344 24.8366 0 16 0C7.16344 0 0 7.16344 0 16C0 24.8366 7.16344 32 16 32Z" fill="#BF3939"/>
<path d="M27.3798 11.8572C27.1223 11.6188 26.8328 11.4207 26.5179 11.2679C26.752 10.3561 26.4689 9.37813 25.7707 8.7323C25.2924 8.28961 24.6696 8.04501 24.0158 8.04501C23.3855 8.04501 22.7933 8.26615 22.3259 8.67199C22.2212 8.54551 22.1081 8.42572 21.9879 8.31432C21.2935 7.671 20.3922 7.31626 19.4531 7.31626C19.4272 7.31626 19.4016 7.3171 19.3761 7.31751C19.4406 7.21742 19.4661 7.09261 19.4343 6.96863C19.2421 6.21349 18.7663 5.57772 18.0966 5.17941C17.6438 4.91136 17.1303 4.7698 16.6102 4.7698C16.3668 4.7698 16.1227 4.8008 15.8839 4.86153C15.5329 4.95073 15.1954 5.10863 14.9005 5.32014C13.9196 4.71033 12.7955 4.38867 11.6404 4.38867C11.1265 4.38867 10.6138 4.45317 10.115 4.58049C8.51679 4.98843 7.17279 5.99403 6.33137 7.41259C5.49414 8.82235 5.25331 10.4729 5.65119 12.0632C4.05924 13.047 3.30745 14.9037 3.77444 16.7352C3.82386 16.9308 4.00102 17.0686 4.2029 17.0686C4.23975 17.0686 4.27703 17.0636 4.31263 17.0544C4.42697 17.0255 4.52372 16.9534 4.58403 16.8516C4.64434 16.7503 4.66109 16.6309 4.63177 16.5162C4.23892 14.9749 4.95427 13.3942 6.37199 12.6726C6.56465 12.5746 6.65805 12.3539 6.59397 12.147C6.56298 12.0465 6.53701 11.956 6.51565 11.8727C6.16677 10.5039 6.37157 9.08035 7.09237 7.86534C7.81317 6.65074 8.9641 5.7888 10.3332 5.43992C10.76 5.33061 11.1998 5.27532 11.6396 5.27532C12.7289 5.27532 13.7777 5.60661 14.6735 6.23234C14.7485 6.28511 14.836 6.31233 14.9265 6.31233C15.0387 6.31233 15.1451 6.27045 15.2276 6.19464C15.4731 5.96764 15.7759 5.80346 16.1017 5.72095C16.2684 5.67823 16.4389 5.65645 16.6085 5.65645C16.9704 5.65645 17.3285 5.7553 17.6434 5.94251C18.1108 6.21977 18.4421 6.66247 18.577 7.18893C18.5975 7.27019 18.6398 7.34055 18.6976 7.39625C17.9316 7.54954 17.2338 7.93486 16.6927 8.51912C16.6127 8.60624 16.5708 8.7189 16.5754 8.83701C16.5804 8.95512 16.6307 9.06443 16.7174 9.14485C16.7991 9.22065 16.9054 9.26296 17.0181 9.26296C17.1404 9.26296 17.2593 9.21102 17.3427 9.12097C17.8616 8.56017 18.5686 8.23516 19.3317 8.20542C19.3694 8.20417 19.4067 8.20333 19.4439 8.20333C20.166 8.20333 20.8554 8.47389 21.3864 8.96517C21.5858 9.14945 21.7588 9.36389 21.9003 9.6022C21.9774 9.73078 22.1123 9.81162 22.2605 9.81832C22.2664 9.81832 22.2748 9.81874 22.2831 9.81874C22.4226 9.81874 22.5562 9.75047 22.6392 9.63571C22.6856 9.57121 22.7267 9.52011 22.7694 9.4753C23.0894 9.12977 23.5442 8.93166 24.0167 8.93166C24.4464 8.93166 24.8556 9.09166 25.1697 9.38274C25.7087 9.88156 25.8645 10.6652 25.56 11.3336C25.5094 11.4471 25.5073 11.5778 25.5563 11.6926C25.6061 11.8073 25.7024 11.8961 25.8197 11.9363C26.1795 12.059 26.5024 12.2517 26.7788 12.5076C27.309 12.998 27.6148 13.6661 27.6433 14.3864C27.6701 15.1077 27.4163 15.7962 26.9258 16.3256C26.76 16.5044 26.7713 16.7851 26.9497 16.9513C27.0326 17.0276 27.1398 17.069 27.2512 17.069C27.374 17.069 27.4925 17.0179 27.5754 16.9266C28.2267 16.2242 28.5643 15.3095 28.5274 14.3517C28.4906 13.3942 28.0826 12.508 27.3798 11.8572Z" fill="white"/>
<path d="M21.4749 15.0976C21.3505 14.2122 20.6017 13.5103 19.6924 13.4646C19.6601 13.4625 19.6287 13.4621 19.5965 13.4621C18.9904 13.4621 18.4183 13.7549 18.0644 14.2386C17.8609 14.1548 17.6456 14.1071 17.4215 14.0954C17.388 14.0941 17.3558 14.0937 17.3223 14.0937C16.8327 14.0937 16.3632 14.2738 16.0005 14.6009C15.6101 14.9535 15.3802 15.4373 15.3525 15.9637C15.3412 16.2075 15.5289 16.4161 15.7726 16.4282C15.7802 16.4291 15.7881 16.4291 15.7957 16.4291C16.0315 16.4291 16.2254 16.2439 16.2379 16.0086C16.253 15.7196 16.3795 15.4528 16.5948 15.2584C16.7975 15.0754 17.0479 14.9791 17.3189 14.9791C17.3378 14.9791 17.357 14.9795 17.3776 14.9803C17.5945 14.9921 17.7997 15.0658 17.9719 15.1956C18.0481 15.2526 18.1423 15.2844 18.2382 15.2844C18.2801 15.2844 18.3212 15.279 18.3614 15.2664C18.4937 15.2287 18.6026 15.1286 18.652 14.9992C18.8024 14.6038 19.1735 14.3479 19.5965 14.3479C19.6137 14.3479 19.6317 14.3483 19.6488 14.3492C20.2055 14.3781 20.636 14.8539 20.6071 15.4105C20.605 15.4473 20.6012 15.4838 20.5958 15.5206C20.5715 15.6727 20.6301 15.8285 20.7478 15.9281C20.827 15.9947 20.9288 16.0316 21.0331 16.0316C21.0816 16.0316 21.129 16.024 21.1746 16.0086C21.2328 15.9889 21.2911 15.9792 21.3509 15.9792C21.3602 15.9792 21.3694 15.9792 21.3782 15.9801C21.5243 15.9872 21.6588 16.0513 21.7568 16.1597C21.854 16.2686 21.9042 16.4085 21.8967 16.5547C21.8904 16.6724 21.931 16.7871 22.0102 16.8743C22.0893 16.9626 22.1982 17.0137 22.3168 17.0204C22.3218 17.0204 22.3302 17.0213 22.339 17.0213C22.5752 17.0213 22.7691 16.837 22.7817 16.6012C22.8009 16.218 22.6707 15.8507 22.4143 15.5671C22.1689 15.2932 21.8368 15.129 21.4749 15.0976Z" fill="white"/>
<path d="M13.5255 12.0109C13.6039 12.1139 13.7333 12.1784 13.8706 12.1843C14.0185 12.1839 14.1508 12.1169 14.2329 12.0063C14.493 11.6553 14.849 11.3927 15.2624 11.2465C15.5003 11.1632 15.7474 11.1205 15.9953 11.1205C16.3224 11.1201 16.6408 11.1925 16.9402 11.3358C17.4692 11.5883 17.8683 12.0314 18.0635 12.5839C18.1247 12.761 18.293 12.88 18.4811 12.88C18.5305 12.88 18.5808 12.8716 18.6281 12.8548C18.7399 12.815 18.8295 12.735 18.8806 12.6278C18.9313 12.5214 18.9384 12.4008 18.8982 12.289C18.6251 11.5138 18.0648 10.8914 17.3222 10.5362C16.9017 10.3356 16.4561 10.2338 15.9958 10.2338C15.6473 10.2338 15.3018 10.2937 14.9684 10.4114C14.5588 10.5555 14.1835 10.7854 13.8715 11.0819C13.3316 10.5902 12.6196 10.3117 11.8863 10.3117C11.5512 10.3117 11.2191 10.3687 10.9003 10.4809C9.46796 10.9869 8.65963 12.5198 9.01647 13.9723C8.95615 13.9882 8.89626 14.0066 8.83763 14.0275C8.29567 14.2185 7.86051 14.6097 7.61257 15.1278C7.36462 15.6467 7.33363 16.231 7.52545 16.7729C7.58744 16.9501 7.75496 17.0686 7.94302 17.0686C7.99286 17.0686 8.0427 17.0598 8.09044 17.0431C8.20227 17.0037 8.2919 16.9229 8.343 16.8161C8.39367 16.7097 8.40037 16.5895 8.36059 16.4772C8.24792 16.1589 8.26635 15.8147 8.4121 15.5098C8.55827 15.204 8.81459 14.9741 9.13332 14.8614C9.26734 14.8137 9.40807 14.7902 9.55089 14.7902C9.56806 14.7902 9.58565 14.7902 9.60324 14.7915H9.60743H9.61748C9.77161 14.7915 9.90773 14.7182 9.99149 14.5921C10.0761 14.4627 10.0874 14.2964 10.0204 14.1574C9.98814 14.0904 9.95966 14.0213 9.93495 13.953C9.55591 12.8787 10.1213 11.6955 11.196 11.3165C11.4193 11.2369 11.6517 11.1971 11.8867 11.1971C12.5329 11.1975 13.1306 11.4941 13.5255 12.0109Z" fill="white"/>
<path d="M15.8753 19.5182V18.3288C15.8753 17.8831 15.5142 17.5221 15.0686 17.5221C14.6234 17.5221 14.2624 17.8827 14.2624 18.3288V19.5182C12.9154 19.8751 11.9211 21.0984 11.9211 22.5576V26.6345C11.9211 28.3726 13.3305 29.7824 15.0686 29.7824C16.8072 29.7824 18.2165 28.373 18.2165 26.6345V22.5576C18.2165 21.0984 17.2226 19.8751 15.8753 19.5182Z" fill="white"/>
</svg>
