<svg width="32" height="32" viewBox="0 0 32 32" fill="none" xmlns="http://www.w3.org/2000/svg">
<path d="M16 32C24.8366 32 32 24.8366 32 16C32 7.16344 24.8366 0 16 0C7.16344 0 0 7.16344 0 16C0 24.8366 7.16344 32 16 32Z" fill="#BF3939"/>
<path d="M25.7373 11.6711H18.0372C18.0372 11.6699 18.0372 11.6684 18.0372 11.6672V11.3044H18.0341C18.026 11.2481 18.0021 11.1822 17.9659 11.1113C17.8845 10.4578 17.7126 9.34819 17.408 8.38742H20.4361C20.6512 8.38742 20.8255 8.21354 20.8255 7.99879C20.8255 7.78366 20.6512 7.60978 20.4361 7.60978H17.1104C16.8239 6.99715 16.4569 6.56342 15.9911 6.56342C15.5204 6.56342 15.1595 6.99677 14.8843 7.60978H11.6418C11.4267 7.60978 11.2528 7.78366 11.2528 7.99879C11.2528 8.21354 11.4267 8.38742 11.6418 8.38742H14.6013C14.3009 9.39638 14.1525 10.5692 14.0904 11.2065C14.0792 11.24 14.0704 11.272 14.0661 11.3002L14.0638 11.4995C14.0638 11.5007 14.0638 11.5018 14.0638 11.5026L14.0631 11.6487L14.0627 11.6676V11.6711H6.34064C5.5125 11.6711 4.86401 12.1838 4.86401 12.8377V14.7388C4.86401 15.3827 5.49283 15.8893 6.30209 15.9055L14.3696 17.433C14.4528 18.277 14.5488 19.1598 14.6514 20.0185L11.5563 20.4495V22.7558L14.9363 23.0453C14.9471 23.0461 14.9587 23.0469 14.9695 23.0469C14.9914 23.0469 15.0107 23.0388 15.0319 23.0349C15.0311 23.1225 15.0292 23.2088 15.0292 23.2983C15.0292 23.8064 15.052 24.2883 15.0924 24.6558C15.1329 25.0205 15.2274 25.8744 16.0062 25.8744C16.785 25.8744 16.8794 25.0205 16.9199 24.6558C16.9527 24.3608 16.9731 23.9911 16.9793 23.5944C17.0082 23.4247 17.0379 23.2397 17.0684 23.0411C17.0788 23.0419 17.0869 23.0469 17.0969 23.0469C17.1077 23.0469 17.1185 23.0465 17.1297 23.0457L20.576 22.7566V20.4491L17.4577 20.0238C17.4577 20.0231 17.4577 20.0227 17.4577 20.0223C17.5541 19.1703 17.6455 18.2831 17.7249 17.4292L25.7751 15.9051C26.5847 15.8889 27.2131 15.3831 27.2131 14.7385V12.8373C27.2139 12.1838 26.5654 11.6711 25.7373 11.6711ZM14.8403 11.4247C14.9213 11.2971 15.2733 10.8217 16.0023 10.8217C16.6674 10.8217 17.088 11.2177 17.2326 11.4024C17.2376 11.4525 17.2407 11.4995 17.2434 11.5431C17.1154 11.5354 16.9446 11.503 16.7773 11.4714C16.5436 11.4266 16.3023 11.38 16.0848 11.38C15.8697 11.38 15.6226 11.427 15.3843 11.4721C15.1877 11.5099 14.9833 11.5485 14.8399 11.5512L14.8403 11.4247Z" fill="white"/>
</svg>
