<svg width="32" height="32" viewBox="0 0 32 32" fill="none" xmlns="http://www.w3.org/2000/svg">
<path d="M16 32C24.8366 32 32 24.8366 32 16C32 7.16344 24.8366 0 16 0C7.16344 0 0 7.16344 0 16C0 24.8366 7.16344 32 16 32Z" fill="#BF3939"/>
<path d="M24.0057 14.9125C21.9696 14.9125 20.3137 16.5676 20.3137 18.606C20.3137 20.642 21.9696 22.2983 24.0057 22.2983C26.0417 22.2983 27.698 20.642 27.698 18.606C27.698 16.568 26.0417 14.9125 24.0057 14.9125ZM24.0057 20.5256C22.947 20.5256 22.0861 19.6647 22.0861 18.606C22.0861 17.5469 22.9466 16.6856 24.0057 16.6856C25.0648 16.6856 25.9264 17.5469 25.9264 18.606C25.9264 19.6647 25.0648 20.5256 24.0057 20.5256Z" fill="white"/>
<path d="M25.1607 14.227C25.8354 14.2524 25.8937 10.3376 20.9067 8.96935C19.848 8.67788 20.7058 10.1321 20.6229 10.958C20.6229 10.958 16.0835 8.54641 14.4103 11.5775C13.7865 12.7087 13.6423 13.2508 11.9968 13.2508C10.3501 13.2508 11.0233 11.8343 8.85693 11.8069C7.49365 11.7915 6.0976 12.435 6.23524 12.9516C6.3482 13.3749 10.1323 13.55 11.6093 16.4057C8.73432 17.7007 7.61625 18.0662 7.84642 18.69C8.08353 19.3385 13.539 20.0421 13.539 20.0421C13.539 20.0421 19.2982 21.0873 19.3834 19.9315C19.6043 16.9038 20.6025 14.0612 25.1607 14.227Z" fill="white"/>
<path d="M7.99172 20.5256C6.93456 20.5256 6.0721 19.6646 6.0721 18.6059C6.0721 17.5469 6.93456 16.6856 7.99172 16.6856C8.37225 16.6856 8.72502 16.797 9.02189 16.9871L10.7518 16.1551C10.0763 15.3936 9.08897 14.9128 7.99095 14.9128C5.9549 14.9128 4.30054 16.568 4.30054 18.6063C4.30054 20.6424 5.95528 22.2987 7.99095 22.2987C9.41283 22.2987 10.6473 21.4917 11.2654 20.3139L9.41861 19.8875C9.06738 20.2784 8.55924 20.5256 7.99172 20.5256Z" fill="white"/>
</svg>
