<svg width="32" height="32" viewBox="0 0 32 32" fill="none" xmlns="http://www.w3.org/2000/svg">
<path d="M16 32C24.8366 32 32 24.8366 32 16C32 7.16344 24.8366 0 16 0C7.16344 0 0 7.16344 0 16C0 24.8366 7.16344 32 16 32Z" fill="#BF3939"/>
<path d="M26.2619 15.957C26.2619 12.9114 23.7842 10.4333 20.7382 10.4333C20.3969 10.4333 20.0477 10.4673 19.6977 10.5354C19.0285 7.21044 16.1266 4.81927 12.7183 4.81927C8.78813 4.81927 5.59033 8.01666 5.59033 11.9468C5.59033 15.3178 7.91667 18.1812 11.1768 18.8979L10.6115 19.4637C10.4071 19.6676 10.3464 19.9717 10.4572 20.2392C10.5676 20.5059 10.8252 20.6782 11.1145 20.6782H12.0068V27.5025C12.0068 27.8948 12.3261 28.214 12.7183 28.214C13.1105 28.214 13.4297 27.8948 13.4297 27.5025V20.6786H14.3303C14.7226 20.6786 15.0413 20.3594 15.0413 19.9672C15.0413 19.7431 14.9334 19.5294 14.7755 19.4141L14.2602 18.8984C14.7857 18.7827 15.2937 18.6083 15.7762 18.3781C16.4622 19.792 17.7255 20.8468 19.2316 21.2702L18.6314 21.8701C18.4275 22.074 18.3667 22.378 18.4771 22.6451C18.5875 22.9122 18.8456 23.0841 19.1352 23.0841H20.028V27.5021C20.028 27.8944 20.3468 28.2136 20.739 28.2136C21.1313 28.2136 21.4505 27.8944 21.4505 27.5021V23.085H22.3515C22.7437 23.085 23.0625 22.7657 23.0625 22.3735C23.0625 22.1479 22.9538 21.9337 22.7958 21.8204L22.2456 21.2702C24.5937 20.6023 26.2619 18.4245 26.2619 15.957ZM24.8391 15.957C24.8391 18.2177 22.9997 20.0574 20.7386 20.0574C19.1053 20.0574 17.6528 19.1125 16.996 17.6371C18.782 16.2918 19.8434 14.18 19.8458 11.9542C20.1384 11.8894 20.4375 11.8566 20.7386 11.8566C22.9993 11.8566 24.8391 13.6959 24.8391 15.957ZM12.7183 6.24257C15.864 6.24257 18.423 8.80154 18.423 11.9472C18.423 15.0929 15.864 17.6519 12.7183 17.6519C9.5726 17.6519 7.01363 15.0929 7.01363 11.9472C7.01363 8.80154 9.5726 6.24257 12.7183 6.24257Z" fill="white"/>
<path d="M8.67326 9.12882C8.06213 9.94706 7.92332 10.8767 8.36321 11.2053C8.80311 11.5338 9.65513 11.1368 10.2663 10.3186C10.8774 9.50035 11.0162 8.5707 10.5763 8.24215C10.1364 7.9136 9.28439 8.31058 8.67326 9.12882Z" fill="white"/>
</svg>
