<svg width="40" height="40" viewBox="0 0 40 40" fill="none" xmlns="http://www.w3.org/2000/svg">
<path d="M20 0L40 20L20 40L0 20L20 0Z" fill="#26334D"/>
<path fill-rule="evenodd" clip-rule="evenodd" d="M20 0L40 20L20 40L0 20L20 0ZM1.41421 20L20 38.5858L38.5858 20L20 1.41421L1.41421 20Z" fill="#F23D4C"/>
<path d="M20 20C20 20 16.2147 23.0878 15.0005 24C14.1647 24.6279 13.1258 25 12 25C9.23858 25 7 22.7614 7 20C7 17.2386 9.23858 15 12 15C13.1258 15 14.1647 15.3721 15.0005 16C16.2147 16.9122 20 20 20 20Z" fill="white"/>
<path d="M20 20C20 20 23.7853 23.0878 24.9995 24C25.8353 24.6279 26.8742 25 28 25C30.7614 25 33 22.7614 33 20C33 17.2386 30.7614 15 28 15C26.8742 15 25.8353 15.3721 24.9995 16C23.7853 16.9122 20 20 20 20Z" fill="white"/>
</svg>
