<svg width="40" height="40" viewBox="0 0 40 40" fill="none" xmlns="http://www.w3.org/2000/svg">
<path d="M20 0L40 20L20 40L0 20L20 0Z" fill="#26334D"/>
<path fill-rule="evenodd" clip-rule="evenodd" d="M16.5 13C16.5 11.067 18.067 9.5 20 9.5C21.933 9.5 23.5 11.067 23.5 13V24H22.5V13C22.5 11.6193 21.3807 10.5 20 10.5C18.6193 10.5 17.5 11.6193 17.5 13V24H16.5V13Z" fill="white"/>
<path fill-rule="evenodd" clip-rule="evenodd" d="M19.5 24V10H20.5V24H19.5Z" fill="white"/>
<path fill-rule="evenodd" clip-rule="evenodd" d="M8.27698 27.4162C8.27711 27.4161 8.27725 27.416 7.9999 27C7.72255 26.584 7.72272 26.5839 7.72291 26.5837L7.72338 26.5834L7.72462 26.5826L7.72836 26.5801L7.74077 26.572C7.75124 26.5652 7.76609 26.5557 7.78527 26.5436C7.82363 26.5193 7.87933 26.4848 7.952 26.4415C8.09734 26.355 8.31062 26.2332 8.58893 26.088C9.14545 25.7976 9.9625 25.4134 11.0165 25.0301C13.1246 24.2635 16.1826 23.5 19.9999 23.5C23.8172 23.5 26.8751 24.2635 28.9833 25.0301C30.0373 25.4134 30.8543 25.7976 31.4109 26.088C31.6892 26.2332 31.9025 26.355 32.0478 26.4415C32.1205 26.4848 32.1762 26.5193 32.2145 26.5436C32.2337 26.5557 32.2486 26.5652 32.259 26.572L32.2714 26.5801L32.2752 26.5826L32.2764 26.5834L32.2769 26.5837C32.2771 26.5839 32.2772 26.584 31.9999 27C31.7225 27.416 31.7227 27.4161 31.7228 27.4162L31.7218 27.4155L31.7145 27.4108C31.7075 27.4062 31.6961 27.3989 31.6805 27.3891C31.6493 27.3693 31.601 27.3394 31.536 27.3006C31.4059 27.2232 31.2091 27.1106 30.9483 26.9745C30.4267 26.7024 29.65 26.3366 28.6415 25.9699C26.6246 25.2365 23.6826 24.5 19.9999 24.5C16.3172 24.5 13.3751 25.2365 11.3583 25.9699C10.3498 26.3366 9.57309 26.7024 9.05149 26.9745C8.79073 27.1106 8.59386 27.2232 8.46381 27.3006C8.39878 27.3394 8.35048 27.3693 8.31926 27.3891C8.30365 27.3989 8.29231 27.4062 8.2853 27.4108L8.27801 27.4155L8.27698 27.4162Z" fill="white"/>
<path fill-rule="evenodd" clip-rule="evenodd" d="M20 0L40 20L20 40L0 20L20 0ZM1.41421 20L20 38.5858L38.5858 20L20 1.41421L1.41421 20Z" fill="#F23D4C"/>
</svg>
