<svg width="40" height="40" viewBox="0 0 40 40" fill="none" xmlns="http://www.w3.org/2000/svg">
<path d="M20 0L40 20L20 40L0 20L20 0Z" fill="#26334D"/>
<path fill-rule="evenodd" clip-rule="evenodd" d="M20 0L40 20L20 40L0 20L20 0ZM1.41421 20L20 38.5858L38.5858 20L20 1.41421L1.41421 20Z" fill="#F23D4C"/>
<path fill-rule="evenodd" clip-rule="evenodd" d="M26 15H14C11.2386 15 9 17.2386 9 20C9 22.7614 11.2386 25 14 25H26C28.7614 25 31 22.7614 31 20C31 17.2386 28.7614 15 26 15ZM14 14C10.6863 14 8 16.6863 8 20C8 23.3137 10.6863 26 14 26H26C29.3137 26 32 23.3137 32 20C32 16.6863 29.3137 14 26 14H14Z" fill="white"/>
<path fill-rule="evenodd" clip-rule="evenodd" d="M14 30C14.5523 30 15 29.5523 15 29C15 28.4477 14.5523 28 14 28C13.4477 28 13 28.4477 13 29C13 29.5523 13.4477 30 14 30ZM14 31C15.1046 31 16 30.1046 16 29C16 27.8954 15.1046 27 14 27C12.8954 27 12 27.8954 12 29C12 30.1046 12.8954 31 14 31Z" fill="white"/>
<path fill-rule="evenodd" clip-rule="evenodd" d="M20 30C20.5523 30 21 29.5523 21 29C21 28.4477 20.5523 28 20 28C19.4477 28 19 28.4477 19 29C19 29.5523 19.4477 30 20 30ZM20 31C21.1046 31 22 30.1046 22 29C22 27.8954 21.1046 27 20 27C18.8954 27 18 27.8954 18 29C18 30.1046 18.8954 31 20 31Z" fill="white"/>
<path fill-rule="evenodd" clip-rule="evenodd" d="M26 30C26.5523 30 27 29.5523 27 29C27 28.4477 26.5523 28 26 28C25.4477 28 25 28.4477 25 29C25 29.5523 25.4477 30 26 30ZM26 31C27.1046 31 28 30.1046 28 29C28 27.8954 27.1046 27 26 27C24.8954 27 24 27.8954 24 29C24 30.1046 24.8954 31 26 31Z" fill="white"/>
</svg>
