<svg width="40" height="40" viewBox="0 0 40 40" fill="none" xmlns="http://www.w3.org/2000/svg">
<path d="M20 0L40 20L20 40L0 20L20 0Z" fill="#26334D"/>
<path fill-rule="evenodd" clip-rule="evenodd" d="M20 0L40 20L20 40L0 20L20 0ZM1.41421 20L20 38.5858L38.5858 20L20 1.41421L1.41421 20Z" fill="#F23D4C"/>
<path fill-rule="evenodd" clip-rule="evenodd" d="M13.2826 13.2825C9.57263 16.9925 9.57263 23.0075 13.2826 26.7175C16.9926 30.4275 23.0077 30.4275 26.7176 26.7175L29.7887 23.6464L30.4958 24.3536L27.4247 27.4246C23.3242 31.5251 16.676 31.5251 12.5755 27.4246C8.47499 23.3241 8.47499 16.6759 12.5755 12.5754L15.6465 9.50436L16.3536 10.2115L13.2826 13.2825Z" fill="white"/>
<path fill-rule="evenodd" clip-rule="evenodd" d="M27.8536 15.3536L19.5 23.7071V19.2071L12.3536 26.3536L11.6465 25.6465L20.5 16.7929V21.2929L27.1465 14.6465L27.8536 15.3536Z" fill="white"/>
</svg>
