<svg width="40" height="40" viewBox="0 0 40 40" fill="none" xmlns="http://www.w3.org/2000/svg">
<path d="M20 0L40 20L20 40L0 20L20 0Z" fill="#26334D"/>
<path fill-rule="evenodd" clip-rule="evenodd" d="M20 0L40 20L20 40L0 20L20 0ZM1.41421 20L20 38.5858L38.5858 20L20 1.41421L1.41421 20Z" fill="#F23D4C"/>
<path fill-rule="evenodd" clip-rule="evenodd" d="M8.64648 15.3536L9.35359 14.6465L12.2071 17.5H27.7929L30.6465 14.6465L31.3536 15.3536L28.2071 18.5H11.7929L8.64648 15.3536Z" fill="white"/>
<path fill-rule="evenodd" clip-rule="evenodd" d="M8.64648 24.6464L9.35359 25.3535L12.2071 22.5H27.7659L30.1159 25.3201L30.8841 24.6799L28.2342 21.5H11.7929L8.64648 24.6464Z" fill="white"/>
</svg>
