<svg width="40" height="40" viewBox="0 0 40 40" fill="none" xmlns="http://www.w3.org/2000/svg">
<path d="M20 0L40 20L20 40L0 20L20 0Z" fill="#26334D"/>
<path fill-rule="evenodd" clip-rule="evenodd" d="M20 0L40 20L20 40L0 20L20 0ZM1.41421 20L20 38.5858L38.5858 20L20 1.41421L1.41421 20Z" fill="#F23D4C"/>
<path d="M27.4206 19.7781C26.7121 20.3324 25.6204 21.1355 24.6761 21.8067C24.878 22.0365 25.2386 22.3734 25.6257 22.7175C24.4537 24.1038 22.8746 24.5234 21.4124 24.6469C21.0014 24.6817 20.6474 24.3632 20.6474 23.9547V15.1669H24.0878V14.145H20.6474V13.0523C21.2152 12.806 21.6116 12.2459 21.6116 11.5931C21.6116 10.7132 20.8905 10 20.0007 10C19.1109 10 18.3897 10.7132 18.3897 11.5931C18.3897 12.2452 18.7861 12.8054 19.3539 13.0523V14.145H15.9129V15.1669H19.3532V23.9547C19.3532 24.3625 18.9993 24.681 18.5883 24.6469C17.1267 24.5234 15.547 24.1044 14.375 22.7175C14.7621 22.3734 15.1227 22.0365 15.3245 21.8067C14.3803 21.1355 13.2879 20.333 12.5801 19.7781C11.1637 22.1278 12.7866 24.0683 12.7866 24.0683C12.7866 24.0683 13.1731 23.7531 13.6532 23.344C14.0609 23.916 15.2787 25.3718 17.5384 26.0896C19.0225 26.5611 19.7815 27.3833 20 27.6C20.2191 27.3833 20.9775 26.5611 22.4616 26.0896C24.7206 25.3718 25.9391 23.916 26.3468 23.344C26.8269 23.7531 27.2134 24.0683 27.2134 24.0683C27.2134 24.0683 28.8363 22.1271 27.4199 19.7781H27.4206ZM20.0007 10.8544C20.413 10.8544 20.7484 11.186 20.7484 11.5938C20.7484 12.0016 20.413 12.3332 20.0007 12.3332C19.5883 12.3332 19.253 12.0016 19.253 11.5938C19.253 11.186 19.5883 10.8544 20.0007 10.8544Z" fill="white"/>
</svg>
